<svg width="735" height="436" viewBox="0 0 735 436" fill="none" xmlns="http://www.w3.org/2000/svg">
<path d="M604.438 140.66C494.952 -53.6553 -117.222 -39.994 19.9135 140.66C88.7351 231.322 -28.9556 336.237 37.6885 428.381C39.5773 430.993 41.4801 433.531 43.3976 436H614.691C676.26 342.157 661.319 241.613 604.438 140.66Z" fill="#1A1A1A"/>
<path d="M686.523 144.751C580.464 -49.6896 -12.5541 -36.0196 120.29 144.751C186.958 235.47 72.9505 340.452 137.509 432.655C138.299 433.784 139.092 434.899 139.887 436H699.12C755.649 343.323 740.788 244.235 686.523 144.751Z" fill="url(#paint0_linear)"/>
<path d="M310.98 393.266C304.418 393.266 299.082 387.931 299.082 381.368C299.082 374.805 304.418 369.47 310.98 369.47C317.543 369.47 322.878 374.805 322.878 381.368C322.878 387.931 317.543 393.266 310.98 393.266ZM310.98 373.265C306.529 373.265 302.877 376.888 302.877 381.368C302.877 385.848 306.501 389.471 310.98 389.471C315.431 389.471 319.084 385.848 319.084 381.368C319.084 376.888 315.431 373.265 310.98 373.265Z" fill="white"/>
<path d="M337.772 347.214C329.07 347.214 321.965 340.138 321.965 331.407C321.965 322.704 329.041 315.6 337.772 315.6C346.475 315.6 353.579 322.676 353.579 331.407C353.579 340.109 346.503 347.214 337.772 347.214ZM337.772 319.423C331.152 319.423 325.788 324.787 325.788 331.407C325.788 338.027 331.152 343.391 337.772 343.391C344.392 343.391 349.756 338.027 349.756 331.407C349.756 324.787 344.392 319.423 337.772 319.423Z" fill="white"/>
<path d="M500.409 156.614C491.706 156.614 484.602 149.538 484.602 140.807C484.602 132.076 491.678 125 500.409 125C509.14 125 516.216 132.076 516.216 140.807C516.216 149.538 509.14 156.614 500.409 156.614ZM500.409 128.823C493.789 128.823 488.425 134.188 488.425 140.807C488.425 147.427 493.789 152.791 500.409 152.791C507.028 152.791 512.393 147.427 512.393 140.807C512.393 134.188 507.028 128.823 500.409 128.823Z" fill="white"/>
<path d="M272.661 196.361C272.261 196.361 271.89 196.246 271.548 196.018C271.149 195.733 270.863 195.276 270.778 194.791L267.182 173.534C267.011 172.507 267.696 171.508 268.752 171.337L290.009 167.742C291.036 167.571 292.035 168.256 292.206 169.311L295.801 190.568C295.972 191.596 295.287 192.594 294.232 192.765L272.975 196.361C272.889 196.332 272.775 196.361 272.661 196.361ZM271.263 174.761L274.23 192.252L291.721 189.284L288.753 171.794L271.263 174.761Z" fill="white"/>
<path d="M483.204 351.894C482.291 351.894 481.492 351.238 481.321 350.296L477.725 329.039C477.554 328.012 478.239 327.013 479.295 326.842L500.552 323.247C501.579 323.076 502.578 323.76 502.749 324.816L506.344 346.073C506.515 347.1 505.83 348.099 504.775 348.27L483.518 351.865C483.403 351.894 483.318 351.894 483.204 351.894ZM481.806 330.295L484.773 347.785L502.264 344.818L499.296 327.327L481.806 330.295Z" fill="white"/>
<path d="M274.457 321.563C273.715 321.563 273.03 321.135 272.716 320.422L257.166 285.155C256.738 284.185 257.166 283.072 258.136 282.644C259.106 282.216 260.219 282.644 260.647 283.614L276.197 318.881C276.625 319.851 276.197 320.964 275.227 321.392C274.97 321.506 274.714 321.563 274.457 321.563Z" fill="white"/>
<path d="M466.34 367.331H460.348V373.322H466.34V367.331Z" fill="white"/>
<path d="M482.261 247.777H476.27V253.769H482.261V247.777Z" fill="white"/>
<path d="M284.018 258.477H279.566V262.928H284.018V258.477Z" fill="white"/>
<path d="M332.006 210.199H327.555V214.65H332.006V210.199Z" fill="white"/>
<path d="M271.846 344.668C272.571 341.568 270.646 338.468 267.547 337.743C264.447 337.018 261.347 338.942 260.622 342.042C259.896 345.141 261.821 348.242 264.921 348.967C268.02 349.692 271.121 347.767 271.846 344.668Z" fill="white"/>
<path d="M316.639 150.355C317.364 147.256 315.439 144.155 312.34 143.43C309.24 142.705 306.14 144.63 305.415 147.729C304.689 150.829 306.614 153.929 309.714 154.654C312.813 155.379 315.913 153.455 316.639 150.355Z" fill="white"/>
<path d="M514.869 373.179C518.052 373.179 520.633 370.599 520.633 367.416C520.633 364.232 518.052 361.652 514.869 361.652C511.686 361.652 509.105 364.232 509.105 367.416C509.105 370.599 511.686 373.179 514.869 373.179Z" fill="white"/>
<path d="M547.744 186.175C549.887 186.175 551.624 184.437 551.624 182.294C551.624 180.151 549.887 178.414 547.744 178.414C545.601 178.414 543.863 180.151 543.863 182.294C543.863 184.437 545.601 186.175 547.744 186.175Z" fill="white"/>
<path d="M288.014 239.675C287.472 239.675 286.93 239.446 286.559 238.99C285.874 238.191 285.988 236.993 286.787 236.308L307.217 219.245C308.016 218.56 309.214 218.674 309.899 219.473C310.584 220.272 310.47 221.471 309.671 222.155L289.241 239.218C288.899 239.532 288.442 239.675 288.014 239.675Z" fill="white"/>
<path d="M495.927 287.095C495.613 287.095 495.299 287.01 494.985 286.838C494.072 286.325 493.73 285.155 494.243 284.242L519.552 239.103C520.066 238.19 521.236 237.847 522.149 238.361C523.062 238.875 523.404 240.044 522.89 240.958L497.582 286.125C497.239 286.753 496.583 287.095 495.927 287.095Z" fill="white"/>
<path d="M479.726 200.841C479.127 200.841 478.528 200.556 478.185 200.042C477.786 199.5 477.729 198.758 478.014 198.159L485.832 180.897C486.089 180.297 486.66 179.898 487.316 179.784C487.972 179.698 488.6 179.955 489.028 180.44L501.925 195.734C502.381 196.276 502.495 197.018 502.239 197.674C501.982 198.33 501.354 198.787 500.641 198.844L479.926 200.784C479.84 200.841 479.783 200.841 479.726 200.841ZM488.029 185.205L482.808 196.704L496.618 195.391L488.029 185.205Z" fill="white"/>
<path d="M488.224 402.654L484.258 412.041C483.859 412.983 484.601 414.039 485.628 413.924L494.93 413.097C495.957 413.011 496.499 411.87 495.957 411.014L490.621 402.454C490.051 401.541 488.652 401.655 488.224 402.654Z" fill="white"/>
<path d="M344.035 159.533L322.965 170.094L324.678 173.512L345.748 162.951L344.035 159.533Z" fill="white"/>
<path d="M464.373 165.345C463.688 165.345 463.032 164.974 462.69 164.347L450.364 141.692C449.85 140.778 450.192 139.609 451.134 139.095C452.047 138.581 453.217 138.924 453.73 139.865L466.057 162.521C466.57 163.434 466.228 164.603 465.286 165.117C464.972 165.26 464.659 165.345 464.373 165.345Z" fill="white"/>
<path d="M471.665 266.524V324.189C471.665 331.637 464.218 338.741 457.798 343.506C452.006 347.786 448.639 354.577 448.639 361.767C448.639 391.014 448.582 435.553 448.582 435.553H358.503L363.525 345.817L342.211 266.524H471.665" fill="#FF8C8C"/>
<path d="M301.323 209.173C308.428 201.212 322.009 193.907 332.709 193.708C332.766 191.853 331.14 187.887 327.745 187.031C327.174 186.888 326.575 186.86 326.004 186.888C315.247 187.773 305.489 191.254 299.069 199.471C296.301 203.352 299.725 207.86 301.323 209.173Z" fill="#1A1A1A"/>
<path d="M506.583 209.173C499.478 201.212 485.897 193.907 475.197 193.708C475.14 191.853 476.766 187.887 480.162 187.031C480.732 186.888 481.331 186.86 481.902 186.888C492.659 187.773 502.417 191.254 508.837 199.471C511.633 203.352 508.209 207.86 506.583 209.173Z" fill="#1A1A1A"/>
<path d="M534.979 310.376C536.412 296.998 534.023 288.398 531.156 274.543L520.541 236.85C520.541 236.45 520.569 236.022 520.569 235.623C520.569 232.456 520.255 229.374 519.628 226.407L519.599 226.15L519.571 226.179C515.205 205.749 497.087 190.427 475.345 190.427C475.116 190.427 474.888 190.427 474.688 190.427H329.37V190.484C308.655 191.482 291.593 206.434 287.37 226.15C286.714 229.203 286.371 232.37 286.371 235.623C286.371 236.136 286.371 236.622 286.4 237.107C283.009 264.848 280.252 280.474 281.863 307.783C280.55 322.677 292.278 335.517 307.257 335.517C314.619 335.517 321.609 332.321 326.46 326.786C326.46 326.786 366.606 283.729 366.634 283.701H440.335C440.363 283.729 480.538 326.786 480.538 326.786C485.388 332.321 492.379 335.517 499.74 335.517C514.453 335.664 532.573 332.831 534.979 310.376Z" fill="#F2F2F2"/>
<path d="M390.658 269.116C393.757 261.632 390.204 253.053 382.72 249.953C375.237 246.854 366.658 250.407 363.558 257.891C360.458 265.374 364.012 273.953 371.495 277.053C378.979 280.153 387.558 276.599 390.658 269.116Z" fill="#F2F2F2"/>
<path d="M432.543 277.975C440.538 276.677 445.968 269.144 444.67 261.148C443.373 253.153 435.839 247.724 427.844 249.021C419.849 250.319 414.419 257.852 415.717 265.847C417.014 273.843 424.548 279.272 432.543 277.975Z" fill="#F2F2F2"/>
<path d="M499.741 335.516C502.366 335.516 504.877 335.117 507.246 334.404L470.723 296.598C462.763 288.352 451.778 283.701 440.336 283.701C440.393 283.786 480.539 326.785 480.539 326.785C485.389 332.321 492.38 335.516 499.741 335.516Z" fill="#CCCCCC"/>
<path d="M299.613 334.347C302.01 335.117 304.607 335.516 307.26 335.516C314.622 335.516 321.612 332.321 326.463 326.785C326.463 326.785 363.698 286.839 366.466 283.872L366.552 283.586C355.081 283.586 344.125 288.237 336.164 296.483L299.613 334.347Z" fill="#CCCCCC"/>
<path d="M377.079 274.484C383.146 274.484 388.064 269.565 388.064 263.498C388.064 257.431 383.146 252.513 377.079 252.513C371.012 252.513 366.094 257.431 366.094 263.498C366.094 269.565 371.012 274.484 377.079 274.484Z" fill="#1A1A1A"/>
<path d="M377.079 274.485C383.156 274.485 388.064 269.577 388.064 263.5C388.064 262.758 387.978 262.016 387.835 261.303C380.931 265.469 373.94 267.266 366.664 267.009C368.148 271.346 372.257 274.485 377.079 274.485Z" fill="#231F20"/>
<path d="M480.12 232.172C485.35 230.937 488.588 225.697 487.354 220.467C486.119 215.238 480.878 211.999 475.649 213.234C470.419 214.469 467.181 219.71 468.416 224.939C469.65 230.169 474.891 233.407 480.12 232.172Z" fill="#BCBEC0"/>
<path d="M486.925 258.968C488.981 254.003 486.624 248.311 481.659 246.255C476.694 244.198 471.003 246.556 468.946 251.52C466.89 256.485 469.247 262.177 474.212 264.233C479.177 266.29 484.868 263.932 486.925 258.968Z" fill="#BCBEC0"/>
<path d="M497.324 248.417C502.553 247.182 505.791 241.942 504.557 236.712C503.322 231.482 498.081 228.244 492.852 229.479C487.622 230.714 484.384 235.954 485.619 241.184C486.854 246.413 492.094 249.652 497.324 248.417Z" fill="#BCBEC0"/>
<path d="M462.921 249.215C468.151 247.98 471.389 242.739 470.154 237.51C468.919 232.28 463.679 229.042 458.449 230.277C453.22 231.512 449.982 236.752 451.216 241.982C452.451 247.211 457.692 250.45 462.921 249.215Z" fill="#BCBEC0"/>
<path d="M401.566 228.86H397.857C396.63 228.86 395.66 229.859 395.66 231.057C395.66 232.284 396.659 233.254 397.857 233.254H401.566C402.793 233.254 403.764 232.255 403.764 231.057C403.792 229.83 402.793 228.86 401.566 228.86Z" fill="#BCBEC0"/>
<path d="M413.801 228.86H410.092C408.865 228.86 407.895 229.859 407.895 231.057C407.895 232.284 408.893 233.254 410.092 233.254H413.801C415.028 233.254 415.998 232.255 415.998 231.057C415.998 229.83 415.028 228.86 413.801 228.86Z" fill="#BCBEC0"/>
<path d="M349.488 233.994H339.787V224.293C339.787 220.127 336.392 216.732 332.226 216.732C328.06 216.732 324.665 220.127 324.665 224.293V233.994H314.964C310.798 233.994 307.402 237.39 307.402 241.556C307.402 245.721 310.798 249.117 314.964 249.117H324.665V258.818C324.665 262.984 328.06 266.379 332.226 266.379C336.392 266.379 339.787 262.984 339.787 258.818V249.117H349.488C353.654 249.117 357.05 245.721 357.05 241.556C357.05 237.39 353.654 233.994 349.488 233.994Z" fill="#BCBEC0"/>
<path d="M455.546 274.86C431.865 252.204 421.936 257.258 421.936 257.258C421.936 257.258 421.936 257.258 421.905 257.229C421.042 257.549 420.302 257.955 419.778 258.449C419.716 258.507 419.654 258.565 419.593 258.653C415.923 262.138 422.368 268.673 426.068 272.13C440.283 285.374 473.338 316.162 487.213 329C497.974 338.963 508.921 344.685 519.836 346.079L527.884 338.585L528.285 328.419C527.391 328.565 526.466 328.652 525.479 328.681C525.356 328.681 525.047 327.083 524.924 327.112C517.339 329.61 509.137 324.411 500.41 316.336L455.546 274.86Z" fill="#FF8641"/>
<path d="M478.023 181.883C472.072 183.161 465.782 185.31 458.998 188.331C439.696 197.015 410.865 221.442 373.309 260.973C348.734 286.823 328.198 311.076 323.881 316.188C323.603 316.537 323.295 316.827 322.956 317.147C314.445 324.698 306.12 328.62 298.812 328.503C291.628 328.387 287.188 324.495 286.571 323.914L286.17 323.537C282.007 319.732 279.14 305.732 284.752 278.72C289.038 258.127 297.702 234.106 305.781 220.339C321.137 194.227 332.052 197.945 355.733 206.92C360.266 208.633 359.433 198.816 359.772 195.476L327.889 180.866C326.255 181.099 324.683 181.418 323.11 181.825C310.067 185.223 299.336 194.75 289.346 211.77C280.281 227.193 271.03 252.724 266.312 275.292C259.991 305.674 262.211 326.122 272.911 336.084C274.576 337.74 282.347 344.74 295.112 346.018C304.301 345.233 324.528 341.37 341.857 323.42C349.443 314.533 367.019 294.201 387.431 272.707C432.08 225.741 455.422 209.592 467.108 204.335C479.503 198.758 490.326 198.003 495.877 202.098C498.868 204.306 503.894 201.982 507.131 204.887L511.88 201.227L478.023 181.883Z" fill="#AF42AE"/>
<path d="M354.934 229.486H346.239V221.295C346.239 216.706 342.292 212.988 337.42 212.988H337.235C332.363 212.988 328.416 216.706 328.416 221.295V229.486H319.721C314.849 229.486 310.902 233.204 310.902 237.793V237.967C310.902 242.556 314.849 246.274 319.721 246.274H328.416V254.465C328.416 259.054 332.363 262.772 337.235 262.772H337.42C342.292 262.772 346.239 259.054 346.239 254.465V246.274H354.934C359.806 246.274 363.753 242.556 363.753 237.967V237.793C363.753 233.233 359.806 229.486 354.934 229.486Z" fill="#FF8641"/>
<path d="M482.477 229.367C487.04 227.586 489.206 222.659 487.316 218.361C485.426 214.063 480.195 212.022 475.633 213.802C471.07 215.583 468.903 220.51 470.793 224.808C472.683 229.106 477.914 231.147 482.477 229.367Z" fill="#AF42AE"/>
<path d="M487.859 255.591C488.651 250.999 485.34 246.672 480.465 245.927C475.59 245.182 470.997 248.3 470.206 252.892C469.415 257.484 472.725 261.811 477.6 262.556C482.475 263.301 487.068 260.183 487.859 255.591Z" fill="#AF42AE"/>
<path d="M461.712 246.333C466.65 246.333 470.654 242.561 470.654 237.909C470.654 233.257 466.65 229.486 461.712 229.486C456.773 229.486 452.77 233.257 452.77 237.909C452.77 242.561 456.773 246.333 461.712 246.333Z" fill="#AF42AE"/>
<path d="M496.399 246.333C501.338 246.333 505.341 242.561 505.341 237.909C505.341 233.257 501.338 229.486 496.399 229.486C491.461 229.486 487.457 233.257 487.457 237.909C487.457 242.561 491.461 246.333 496.399 246.333Z" fill="#AF42AE"/>
<path d="M550.208 273.52C544.719 249.732 534.76 226.176 527.298 212.089C518.479 195.446 507.625 185.6 494.15 181.998C481.971 178.745 467.91 180.808 451.198 188.33C431.895 197.015 403.065 221.442 365.508 260.973C340.933 286.823 320.397 311.076 316.08 316.188C315.803 316.536 315.494 316.827 315.155 317.146C306.645 324.698 298.319 328.619 291.011 328.503C283.827 328.387 279.387 324.495 278.77 323.914L278.369 323.536C274.207 319.731 271.339 305.731 276.951 278.719C281.237 258.126 289.901 234.106 297.98 220.338C313.336 194.226 326.255 194.314 349.412 204.392C362.055 209.882 373.833 212.903 382.683 214.558C384.595 214.907 386.537 214.355 387.925 213.077C390.052 211.131 392.118 209.214 394.184 207.384C397.699 204.247 395.849 198.67 391.07 197.944C391.008 197.944 390.947 197.915 390.885 197.915C382.991 196.753 370.719 194.081 357.337 188.272C340.008 180.72 327.026 178.745 315.309 181.795C302.266 185.193 291.536 194.72 281.545 211.741C272.48 227.193 263.199 252.724 258.512 275.292C252.191 305.673 254.411 326.121 265.11 336.084C266.899 337.855 275.687 345.756 290.117 346.191C303.16 346.569 316.327 340.789 329.216 328.997C329.524 328.706 329.801 328.416 330.048 328.125C330.264 327.864 352.434 301.316 379.599 272.736C424.279 225.741 447.59 209.591 459.307 204.334C471.703 198.758 481.416 197.015 489.001 199.048C497.11 201.226 504.141 208.081 510.462 219.99C517.122 232.537 526.712 255.047 531.83 277.267C537.011 299.777 536.271 316.768 529.795 323.943C529.764 323.972 529.734 324.001 529.703 324.03L529.795 323.943C529.209 324.495 524.8 328.503 517.646 328.619C517.523 328.619 517.4 328.619 517.276 328.619C509.845 328.619 501.304 324.349 492.578 316.275C478.671 303.379 445.37 272.387 431.278 259.259C427.702 255.919 421.936 255.948 418.39 259.317C418.328 259.375 418.266 259.433 418.174 259.52C414.504 263.006 414.535 268.611 418.235 272.068C432.45 285.312 465.505 316.1 479.381 328.938C491.869 340.498 504.603 346.366 517.246 346.366C517.708 346.366 518.171 346.366 518.602 346.337C533.958 345.814 542.9 336.752 543.856 335.706L543.918 335.648C554.864 323.797 556.991 302.885 550.208 273.52Z" fill="url(#paint1_linear)"/>
<path d="M395.247 215.962C386.801 215.962 379.953 209.114 379.953 200.669V173.819C379.953 165.373 386.801 158.525 395.247 158.525C403.692 158.525 410.54 165.373 410.54 173.819V200.669C410.54 209.114 403.692 215.962 395.247 215.962Z" fill="#FFA8A8"/>
<path d="M364.63 205.948C356.184 205.948 349.336 199.1 349.336 190.654V173.848C349.336 165.403 356.184 158.555 364.63 158.555C373.075 158.555 379.923 165.403 379.923 173.848V190.654C379.923 199.1 373.075 205.948 364.63 205.948Z" fill="#FFA8A8"/>
<path d="M425.868 215.962C417.422 215.962 410.574 209.115 410.574 200.669V183.863C410.574 175.417 417.422 168.569 425.868 168.569C434.314 168.569 441.162 175.417 441.162 183.863V200.669C441.162 209.115 434.314 215.962 425.868 215.962Z" fill="#FFA8A8"/>
<path d="M456.454 213.481C448.008 213.481 441.16 206.633 441.16 198.187V191.396C441.16 182.95 448.008 176.103 456.454 176.103C464.9 176.103 471.747 182.95 471.747 191.396V198.158C471.776 206.604 464.928 213.481 456.454 213.481Z" fill="#FFA8A8"/>
<g opacity="0.6">
<path opacity="0.6" d="M410.539 189C410.539 180.554 417.387 173.706 425.833 173.706C434.278 173.706 441.126 180.554 441.126 189V183.864C441.126 175.418 434.278 168.57 425.833 168.57C417.387 168.57 410.539 175.418 410.539 183.864V189Z" fill="#FFEDED"/>
</g>
<g opacity="0.6">
<path opacity="0.6" d="M364.63 163.663C373.075 163.663 379.923 170.511 379.923 178.957C379.923 170.511 386.771 163.663 395.217 163.663C403.663 163.663 410.511 170.511 410.511 178.957V173.821C410.511 165.375 403.663 158.527 395.217 158.527C386.771 158.527 379.923 165.375 379.923 173.821C379.923 165.375 373.075 158.527 364.63 158.527C356.184 158.527 349.336 165.375 349.336 173.821V178.957C349.307 170.511 356.184 163.663 364.63 163.663Z" fill="#FFEDED"/>
</g>
<g opacity="0.6">
<path opacity="0.6" d="M456.454 176.074C448.008 176.074 441.16 182.922 441.16 191.367V196.503C441.16 188.058 448.008 181.21 456.454 181.21C464.9 181.21 471.747 188.058 471.747 196.503V191.367C471.776 182.922 464.928 176.074 456.454 176.074Z" fill="#FFEDED"/>
</g>
<path d="M370.892 196.961C367.211 196.447 360.82 196.447 357.167 196.961C355.712 197.16 354.371 196.19 354.371 194.935V190.284C354.371 187.716 373.688 187.716 373.688 190.284V194.935C373.659 196.19 372.347 197.16 370.892 196.961Z" fill="#FFC4C4"/>
<path d="M402.251 206.262C398.57 205.748 392.179 205.748 388.527 206.262C387.072 206.462 385.73 205.491 385.73 204.236V199.585C385.73 197.017 405.047 197.017 405.047 199.585V204.236C405.047 205.491 403.706 206.462 402.251 206.262Z" fill="#FFC4C4"/>
<path d="M432.599 206.262C428.918 205.748 422.527 205.748 418.874 206.262C417.419 206.462 416.078 205.491 416.078 204.236V199.585C416.078 197.017 435.395 197.017 435.395 199.585V204.236C435.395 205.491 434.054 206.462 432.599 206.262Z" fill="#FFC4C4"/>
<path d="M462.958 203.237C459.277 202.723 452.886 202.723 449.234 203.237C447.779 203.436 446.438 202.466 446.438 201.211V196.589C446.438 194.021 465.754 194.021 465.754 196.589V201.211C465.754 202.466 464.413 203.436 462.958 203.237Z" fill="#FFC4C4"/>
<path d="M390.634 284.785C400.05 284.785 407.668 277.167 407.668 267.751C407.668 258.335 400.05 250.717 390.634 250.717H353.827C342.756 250.717 332.284 256.081 325.836 265.097C325.037 266.21 324.295 267.38 323.639 268.578C317.875 279.107 318.531 291.947 324.98 302.048L346.437 335.574C353.285 346.302 356.594 358.885 355.91 371.582L354.711 435.524H415.8C415.8 428.734 416.799 361.31 416.799 343.677C416.799 319.966 402.276 305.557 389.207 300.278C352.6 285.47 390.634 284.785 390.634 284.785Z" fill="#FFA8A8"/>
<path d="M390.629 250.716H382.84V253.541C382.84 259.476 387.633 264.269 393.568 264.269H407.321C405.695 256.508 398.847 250.716 390.629 250.716Z" fill="#FFC4C4"/>
<g opacity="0.6">
<path opacity="0.6" d="M406.408 313.118C405.381 311.834 404.268 310.664 403.155 309.551C402.784 309.18 402.385 308.809 402.014 308.467C400.673 307.24 399.275 306.099 397.848 305.1C397.249 304.672 396.621 304.244 396.022 303.845C395.194 303.331 394.367 302.818 393.54 302.361C393.34 302.247 393.14 302.133 392.912 302.019C391.685 301.362 390.43 300.792 389.203 300.278C374.965 294.514 371.997 290.891 373.709 288.608C373.709 288.608 373.681 288.608 373.681 288.58C369.115 290.634 366.547 296.569 389.203 306.527C401.871 312.091 416.252 325.672 416.794 348.613C416.794 348.499 416.794 348.413 416.794 348.299C416.794 348.213 416.794 348.128 416.794 348.042C416.794 347.928 416.794 347.842 416.794 347.728C416.794 347.586 416.794 347.472 416.794 347.357C416.794 347.3 416.794 347.215 416.794 347.158C416.794 347.015 416.794 346.872 416.794 346.73C416.794 346.673 416.794 346.587 416.794 346.53C416.794 346.387 416.794 346.245 416.794 346.102C416.794 346.016 416.794 345.902 416.794 345.817C416.794 345.674 416.794 345.56 416.794 345.417C416.794 345.36 416.794 345.303 416.794 345.246C416.794 345.132 416.794 345.018 416.794 344.904C416.794 344.818 416.794 344.732 416.794 344.647C416.794 344.561 416.794 344.476 416.794 344.39C416.794 344.304 416.794 344.219 416.794 344.162C416.794 344.048 416.794 343.962 416.794 343.848C416.794 343.791 416.794 343.734 416.794 343.705C416.794 331.465 412.942 321.735 407.407 314.43C407.093 313.974 406.75 313.546 406.408 313.118Z" fill="#FFEDED"/>
</g>
<g opacity="0.6">
<path opacity="0.6" d="M355.933 371.468C355.933 371.525 355.933 371.582 355.933 371.611L354.734 435.553H354.849L355.933 377.888C356.047 375.748 356.047 373.58 355.933 371.468Z" fill="#FFEDED"/>
</g>
<g opacity="0.6">
<path opacity="0.6" d="M323.661 274.856C324.317 273.657 325.059 272.487 325.858 271.375C332.306 262.358 342.749 256.994 353.848 256.994H390.656C398.987 256.994 405.921 262.986 407.405 270.89C407.604 269.862 407.69 268.835 407.69 267.751C407.69 258.335 400.072 250.717 390.656 250.717H353.848C342.778 250.717 332.306 256.081 325.858 265.097C325.059 266.21 324.317 267.38 323.661 268.578C320.493 274.371 319.267 280.848 319.866 287.21C320.294 282.93 321.521 278.736 323.661 274.856Z" fill="#FFEDED"/>
</g>
<path d="M448.641 407.02H354.425C352.143 407.02 350.316 405.166 350.316 402.912V392.297C350.316 390.015 352.171 388.188 354.425 388.188H448.641C450.923 388.188 452.75 390.043 452.75 392.297V402.912C452.75 405.166 450.895 407.02 448.641 407.02Z" fill="#333A62"/>
<path d="M414.517 400.172C415.935 400.172 417.085 399.022 417.085 397.604C417.085 396.185 415.935 395.036 414.517 395.036C413.099 395.036 411.949 396.185 411.949 397.604C411.949 399.022 413.099 400.172 414.517 400.172Z" fill="#7DADFF"/>
<path d="M406.24 400.172C407.658 400.172 408.808 399.022 408.808 397.604C408.808 396.185 407.658 395.036 406.24 395.036C404.822 395.036 403.672 396.185 403.672 397.604C403.672 399.022 404.822 400.172 406.24 400.172Z" fill="#7DADFF"/>
<path d="M397.966 400.172C399.385 400.172 400.534 399.022 400.534 397.604C400.534 396.185 399.385 395.036 397.966 395.036C396.548 395.036 395.398 396.185 395.398 397.604C395.398 399.022 396.548 400.172 397.966 400.172Z" fill="#7DADFF"/>
<path d="M448.644 388.188H423.078V407.019H448.644C450.926 407.019 452.752 405.165 452.752 402.911V392.296C452.752 390.042 450.898 388.188 448.644 388.188Z" fill="#1D202E"/>
<defs>
<linearGradient id="paint0_linear" x1="113.953" y1="613.651" x2="844.864" y2="196.493" gradientUnits="userSpaceOnUse">
<stop offset="0.02" stop-color="#00E47D"/>
<stop offset="0.67" stop-color="#DBEA7C"/>
<stop offset="1" stop-color="#FF8641"/>
</linearGradient>
<linearGradient id="paint1_linear" x1="255" y1="263.395" x2="554.086" y2="263.395" gradientUnits="userSpaceOnUse">
<stop offset="0.02" stop-color="#00E47D"/>
<stop offset="0.67" stop-color="#DBEA7C"/>
<stop offset="1" stop-color="#FF8641"/>
</linearGradient>
</defs>
</svg>
