<svg width="746" height="467" viewBox="0 0 746 467" fill="none" xmlns="http://www.w3.org/2000/svg">
<path d="M613.229 93.7613C502.152 -151.807 -118.927 -134.543 20.2031 93.7613C90.0257 208.336 -29.3768 340.923 38.2367 457.372C40.1529 460.672 42.0835 463.88 44.0288 467H623.632C686.096 348.405 670.938 221.342 613.229 93.7613Z" fill="#1A1A1A"/>
<path d="M122.566 98.8929C190.18 213.552 74.5538 346.238 140.029 462.773C140.83 464.199 141.634 465.608 142.44 467H709.612C766.944 349.867 715.763 234.836 696.836 98.8929C691.384 59.7287 689.5 35.5 686.003 -5.34058e-05C686.002 -160.5 5.60806 -99.4419 122.566 98.8929Z" fill="url(#paint0_linear)"/>
<path d="M321.98 424.788C315.418 424.788 310.082 419.462 310.082 412.911C310.082 406.36 315.418 401.034 321.98 401.034C328.543 401.034 333.878 406.36 333.878 412.911C333.878 419.462 328.543 424.788 321.98 424.788ZM321.98 404.822C317.529 404.822 313.877 408.44 313.877 412.911C313.877 417.383 317.501 421 321.98 421C326.431 421 330.084 417.383 330.084 412.911C330.084 408.44 326.431 404.822 321.98 404.822Z" fill="white"/>
<path d="M348.772 378.818C340.07 378.818 332.965 371.754 332.965 363.039C332.965 354.352 340.041 347.26 348.772 347.26C357.475 347.26 364.579 354.323 364.579 363.039C364.579 371.726 357.503 378.818 348.772 378.818ZM348.772 351.076C342.152 351.076 336.788 356.431 336.788 363.039C336.788 369.647 342.152 375.001 348.772 375.001C355.392 375.001 360.756 369.647 360.756 363.039C360.756 356.431 355.392 351.076 348.772 351.076Z" fill="white"/>
<path d="M511.409 188.558C502.706 188.558 495.602 181.495 495.602 172.779C495.602 164.064 502.678 157 511.409 157C520.14 157 527.216 164.064 527.216 172.779C527.216 181.495 520.14 188.558 511.409 188.558ZM511.409 160.817C504.789 160.817 499.425 166.171 499.425 172.779C499.425 179.387 504.789 184.742 511.409 184.742C518.028 184.742 523.393 179.387 523.393 172.779C523.393 166.171 518.028 160.817 511.409 160.817Z" fill="white"/>
<path d="M283.661 228.233C283.261 228.233 282.89 228.119 282.548 227.892C282.149 227.607 281.863 227.151 281.778 226.667L278.182 205.448C278.011 204.422 278.696 203.425 279.752 203.255L301.009 199.666C302.036 199.495 303.035 200.178 303.206 201.232L306.801 222.451C306.972 223.477 306.287 224.474 305.232 224.645L283.975 228.233C283.889 228.205 283.775 228.233 283.661 228.233ZM282.263 206.672L285.23 224.132L302.721 221.17L299.753 203.71L282.263 206.672Z" fill="white"/>
<path d="M494.204 383.49C493.291 383.49 492.492 382.835 492.321 381.895L488.725 360.676C488.554 359.65 489.239 358.653 490.295 358.483L511.552 354.894C512.579 354.723 513.578 355.406 513.749 356.46L517.344 377.679C517.515 378.705 516.83 379.702 515.775 379.873L494.518 383.461C494.403 383.49 494.318 383.49 494.204 383.49ZM492.806 361.929L495.773 379.388L513.264 376.426L510.296 358.967L492.806 361.929Z" fill="white"/>
<path d="M285.457 353.213C284.715 353.213 284.03 352.786 283.716 352.074L268.166 316.87C267.738 315.901 268.166 314.79 269.136 314.363C270.106 313.936 271.219 314.363 271.647 315.332L287.197 350.535C287.625 351.504 287.197 352.615 286.227 353.042C285.97 353.156 285.714 353.213 285.457 353.213Z" fill="white"/>
<path d="M477.34 398.899H471.348V404.88H477.34V398.899Z" fill="white"/>
<path d="M493.261 279.558H487.27V285.539H493.261V279.558Z" fill="white"/>
<path d="M295.018 290.239H290.566V294.682H295.018V290.239Z" fill="white"/>
<path d="M343.006 242.047H338.555V246.49H343.006V242.047Z" fill="white"/>
<path d="M282.846 376.277C283.571 373.183 281.646 370.088 278.547 369.364C275.447 368.64 272.347 370.561 271.622 373.655C270.896 376.749 272.821 379.844 275.921 380.568C279.02 381.292 282.121 379.37 282.846 376.277Z" fill="white"/>
<path d="M327.639 182.31C328.364 179.216 326.439 176.121 323.34 175.398C320.24 174.674 317.14 176.595 316.415 179.689C315.689 182.783 317.614 185.878 320.714 186.602C323.813 187.325 326.913 185.404 327.639 182.31Z" fill="white"/>
<path d="M525.869 404.737C529.052 404.737 531.633 402.161 531.633 398.983C531.633 395.806 529.052 393.23 525.869 393.23C522.686 393.23 520.105 395.806 520.105 398.983C520.105 402.161 522.686 404.737 525.869 404.737Z" fill="white"/>
<path d="M558.744 218.065C560.887 218.065 562.624 216.331 562.624 214.192C562.624 212.053 560.887 210.318 558.744 210.318C556.601 210.318 554.863 212.053 554.863 214.192C554.863 216.331 556.601 218.065 558.744 218.065Z" fill="white"/>
<path d="M299.014 271.47C298.472 271.47 297.93 271.243 297.559 270.787C296.874 269.989 296.988 268.793 297.787 268.11L318.217 251.077C319.016 250.394 320.214 250.508 320.899 251.305C321.584 252.103 321.47 253.299 320.671 253.982L300.241 271.015C299.899 271.328 299.442 271.47 299.014 271.47Z" fill="white"/>
<path d="M506.927 318.806C506.613 318.806 506.299 318.721 505.985 318.55C505.072 318.037 504.73 316.87 505.243 315.958L530.552 270.9C531.066 269.988 532.236 269.646 533.149 270.159C534.062 270.672 534.404 271.839 533.89 272.751L508.582 317.838C508.239 318.465 507.583 318.806 506.927 318.806Z" fill="white"/>
<path d="M490.726 232.706C490.127 232.706 489.528 232.421 489.185 231.908C488.786 231.367 488.729 230.627 489.014 230.029L496.832 212.797C497.089 212.199 497.66 211.8 498.316 211.686C498.972 211.601 499.6 211.857 500.028 212.341L512.925 227.608C513.381 228.149 513.495 228.889 513.239 229.544C512.982 230.2 512.354 230.655 511.641 230.712L490.926 232.649C490.84 232.706 490.783 232.706 490.726 232.706ZM499.029 217.098L493.808 228.576L507.618 227.266L499.029 217.098Z" fill="white"/>
<path d="M499.224 434.159L495.258 443.53C494.859 444.47 495.601 445.524 496.628 445.41L505.93 444.584C506.957 444.498 507.499 443.359 506.957 442.504L501.621 433.96C501.051 433.048 499.652 433.162 499.224 434.159Z" fill="white"/>
<path d="M355.035 191.471L333.965 202.013L335.678 205.425L356.748 194.883L355.035 191.471Z" fill="white"/>
<path d="M475.373 197.273C474.688 197.273 474.032 196.903 473.69 196.276L461.364 173.662C460.85 172.75 461.192 171.582 462.134 171.07C463.047 170.557 464.217 170.899 464.73 171.839L477.057 194.453C477.57 195.365 477.228 196.533 476.286 197.045C475.972 197.188 475.659 197.273 475.373 197.273Z" fill="white"/>
<path d="M482.665 298.272V355.835C482.665 363.269 475.218 370.361 468.798 375.117C463.006 379.389 459.639 386.168 459.639 393.346C459.639 422.54 459.582 467 459.582 467H369.503L374.525 377.424L353.211 298.272H482.665" fill="#FF8C8C"/>
<path d="M312.323 241.023C319.428 233.076 333.009 225.785 343.709 225.585C343.766 223.734 342.14 219.775 338.745 218.92C338.174 218.778 337.575 218.75 337.004 218.778C326.247 219.661 316.489 223.136 310.069 231.339C307.301 235.212 310.725 239.712 312.323 241.023Z" fill="#1A1A1A"/>
<path d="M517.583 241.023C510.478 233.076 496.897 225.785 486.197 225.585C486.14 223.734 487.766 219.775 491.162 218.92C491.732 218.778 492.331 218.75 492.902 218.778C503.659 219.661 513.417 223.136 519.837 231.339C522.633 235.212 519.209 239.712 517.583 241.023Z" fill="#1A1A1A"/>
<path d="M545.979 342.045C547.412 328.692 545.023 320.107 542.156 306.276L531.541 268.65C531.541 268.252 531.569 267.824 531.569 267.426C531.569 264.264 531.255 261.188 530.628 258.226L530.599 257.97L530.571 257.998C526.205 237.605 508.087 222.31 486.345 222.31C486.116 222.31 485.888 222.31 485.688 222.31H340.37V222.367C319.655 223.364 302.593 238.289 298.37 257.97C297.714 261.017 297.371 264.179 297.371 267.426C297.371 267.938 297.371 268.423 297.4 268.907C294.009 296.598 291.252 312.197 292.863 339.457C291.55 354.325 303.278 367.141 318.257 367.141C325.619 367.141 332.609 363.951 337.46 358.426C337.46 358.426 377.606 315.446 377.634 315.418H451.335C451.363 315.446 491.538 358.426 491.538 358.426C496.388 363.951 503.379 367.141 510.74 367.141C525.453 367.288 543.573 364.461 545.979 342.045Z" fill="#F2F2F2"/>
<path d="M401.658 300.859C404.757 293.389 401.204 284.825 393.72 281.731C386.237 278.637 377.658 282.184 374.558 289.654C371.458 297.124 375.012 305.688 382.495 308.782C389.979 311.877 398.558 308.329 401.658 300.859Z" fill="#F2F2F2"/>
<path d="M443.543 309.702C451.538 308.407 456.968 300.887 455.67 292.906C454.373 284.925 446.839 279.505 438.844 280.8C430.849 282.095 425.419 289.615 426.717 297.596C428.014 305.577 435.548 310.997 443.543 309.702Z" fill="#F2F2F2"/>
<path d="M510.741 367.141C513.366 367.141 515.877 366.743 518.246 366.031L481.723 328.292C473.763 320.061 462.778 315.418 451.336 315.418C451.393 315.503 491.539 358.426 491.539 358.426C496.389 363.951 503.38 367.141 510.741 367.141Z" fill="#CCCCCC"/>
<path d="M310.613 365.973C313.01 366.742 315.607 367.141 318.26 367.141C325.622 367.141 332.612 363.951 337.463 358.426C337.463 358.426 374.698 318.551 377.466 315.589L377.552 315.304C366.081 315.304 355.125 319.946 347.164 328.178L310.613 365.973Z" fill="#CCCCCC"/>
<path d="M388.079 306.217C394.146 306.217 399.064 301.308 399.064 295.252C399.064 289.196 394.146 284.286 388.079 284.286C382.012 284.286 377.094 289.196 377.094 295.252C377.094 301.308 382.012 306.217 388.079 306.217Z" fill="#1A1A1A"/>
<path d="M388.079 306.219C394.156 306.219 399.064 301.32 399.064 295.253C399.064 294.513 398.978 293.772 398.835 293.06C391.931 297.218 384.94 299.013 377.664 298.756C379.148 303.086 383.257 306.219 388.079 306.219Z" fill="#231F20"/>
<path d="M491.12 263.981C496.35 262.749 499.588 257.518 498.354 252.297C497.119 247.077 491.878 243.845 486.649 245.077C481.419 246.31 478.181 251.541 479.416 256.761C480.65 261.981 485.891 265.214 491.12 263.981Z" fill="#BCBEC0"/>
<path d="M497.925 290.729C499.981 285.773 497.624 280.092 492.659 278.039C487.694 275.986 482.003 278.339 479.946 283.295C477.89 288.251 480.247 293.933 485.212 295.985C490.177 298.038 495.868 295.685 497.925 290.729Z" fill="#BCBEC0"/>
<path d="M508.324 280.197C513.553 278.965 516.791 273.733 515.557 268.513C514.322 263.293 509.081 260.06 503.852 261.293C498.622 262.526 495.384 267.757 496.619 272.977C497.854 278.197 503.094 281.43 508.324 280.197Z" fill="#BCBEC0"/>
<path d="M473.921 280.994C479.151 279.761 482.389 274.53 481.154 269.31C479.919 264.089 474.679 260.857 469.449 262.089C464.22 263.322 460.982 268.553 462.216 273.773C463.451 278.994 468.692 282.226 473.921 280.994Z" fill="#BCBEC0"/>
<path d="M412.566 260.675H408.857C407.63 260.675 406.66 261.672 406.66 262.868C406.66 264.093 407.659 265.061 408.857 265.061H412.566C413.793 265.061 414.764 264.064 414.764 262.868C414.792 261.643 413.793 260.675 412.566 260.675Z" fill="#BCBEC0"/>
<path d="M424.801 260.675H421.092C419.865 260.675 418.895 261.672 418.895 262.868C418.895 264.093 419.893 265.061 421.092 265.061H424.801C426.028 265.061 426.998 264.064 426.998 262.868C426.998 261.643 426.028 260.675 424.801 260.675Z" fill="#BCBEC0"/>
<path d="M360.488 265.8H350.787V256.116C350.787 251.958 347.392 248.568 343.226 248.568C339.06 248.568 335.665 251.958 335.665 256.116V265.8H325.964C321.798 265.8 318.402 269.189 318.402 273.348C318.402 277.506 321.798 280.896 325.964 280.896H335.665V290.579C335.665 294.738 339.06 298.127 343.226 298.127C347.392 298.127 350.787 294.738 350.787 290.579V280.896H360.488C364.654 280.896 368.05 277.506 368.05 273.348C368.05 269.189 364.654 265.8 360.488 265.8Z" fill="#BCBEC0"/>
<path d="M466.546 306.593C442.865 283.978 432.936 289.023 432.936 289.023C432.936 289.023 432.936 289.023 432.905 288.994C432.042 289.313 431.302 289.718 430.778 290.211C430.716 290.269 430.654 290.327 430.593 290.414C426.923 293.894 433.368 300.417 437.068 303.867C451.283 317.088 484.338 347.822 498.213 360.637C508.974 370.581 519.921 376.293 530.836 377.685L538.884 370.204L539.285 360.057C538.391 360.202 537.466 360.289 536.479 360.318C536.356 360.318 536.047 358.723 535.924 358.752C528.339 361.246 520.137 356.056 511.41 347.995L466.546 306.593Z" fill="#FF8641"/>
<path d="M489.023 213.781C483.072 215.057 476.782 217.203 469.998 220.218C450.696 228.887 421.865 253.271 384.309 292.731C359.734 318.535 339.198 342.745 334.881 347.847C334.603 348.195 334.295 348.485 333.956 348.804C325.445 356.343 317.12 360.257 309.812 360.141C302.628 360.025 298.188 356.14 297.571 355.56L297.17 355.183C293.007 351.385 290.14 337.41 295.752 310.446C300.038 289.889 308.702 265.912 316.781 252.169C332.137 226.104 343.052 229.815 366.733 238.774C371.266 240.484 370.433 230.685 370.772 227.35L338.889 212.767C337.255 212.999 335.683 213.317 334.11 213.723C321.067 217.116 310.336 226.626 300.346 243.616C291.281 259.011 282.03 284.497 277.312 307.025C270.991 337.352 273.211 357.763 283.911 367.708C285.576 369.361 293.347 376.348 306.112 377.624C315.301 376.841 335.528 372.985 352.857 355.067C360.443 346.195 378.019 325.899 398.431 304.444C443.08 257.562 466.422 241.441 478.108 236.193C490.503 230.627 501.326 229.873 506.877 233.961C509.868 236.164 514.894 233.845 518.131 236.744L522.88 233.091L489.023 213.781Z" fill="#AF42AE"/>
<path d="M365.934 261.3H357.239V253.124C357.239 248.543 353.292 244.832 348.42 244.832H348.235C343.363 244.832 339.416 248.543 339.416 253.124V261.3H330.721C325.849 261.3 321.902 265.011 321.902 269.592V269.766C321.902 274.347 325.849 278.058 330.721 278.058H339.416V286.234C339.416 290.815 343.363 294.526 348.235 294.526H348.42C353.292 294.526 357.239 290.815 357.239 286.234V278.058H365.934C370.806 278.058 374.753 274.347 374.753 269.766V269.592C374.753 265.04 370.806 261.3 365.934 261.3Z" fill="#FF8641"/>
<path d="M493.477 261.181C498.04 259.403 500.206 254.485 498.316 250.195C496.426 245.904 491.195 243.867 486.633 245.644C482.07 247.421 479.903 252.34 481.793 256.63C483.683 260.92 488.914 262.958 493.477 261.181Z" fill="#AF42AE"/>
<path d="M498.859 287.358C499.651 282.774 496.34 278.455 491.465 277.712C486.59 276.968 481.997 280.08 481.206 284.664C480.415 289.248 483.725 293.567 488.6 294.311C493.475 295.055 498.068 291.942 498.859 287.358Z" fill="#AF42AE"/>
<path d="M472.712 278.117C477.65 278.117 481.654 274.352 481.654 269.708C481.654 265.065 477.65 261.3 472.712 261.3C467.773 261.3 463.77 265.065 463.77 269.708C463.77 274.352 467.773 278.117 472.712 278.117Z" fill="#AF42AE"/>
<path d="M507.399 278.117C512.338 278.117 516.341 274.352 516.341 269.708C516.341 265.065 512.338 261.3 507.399 261.3C502.461 261.3 498.457 265.065 498.457 269.708C498.457 274.352 502.461 278.117 507.399 278.117Z" fill="#AF42AE"/>
<path d="M561.208 305.256C555.719 281.51 545.76 257.996 538.298 243.934C529.479 227.321 518.625 217.492 505.15 213.897C492.971 210.65 478.91 212.708 462.198 220.218C442.895 228.887 414.065 253.27 376.508 292.73C351.933 318.535 331.397 342.744 327.08 347.847C326.803 348.195 326.494 348.485 326.155 348.804C317.645 356.342 309.319 360.256 302.011 360.14C294.827 360.024 290.387 356.139 289.77 355.559L289.369 355.182C285.207 351.384 282.339 337.409 287.951 310.445C292.237 289.889 300.901 265.911 308.98 252.168C324.336 226.103 337.255 226.19 360.412 236.251C373.055 241.731 384.833 244.746 393.683 246.399C395.595 246.747 397.537 246.196 398.925 244.92C401.052 242.977 403.118 241.064 405.184 239.237C408.699 236.106 406.849 230.539 402.07 229.814C402.008 229.814 401.947 229.785 401.885 229.785C393.991 228.626 381.719 225.958 368.337 220.16C351.008 212.621 338.026 210.65 326.309 213.694C313.266 217.086 302.536 226.596 292.545 243.586C283.48 259.011 274.199 284.496 269.512 307.024C263.191 337.351 265.411 357.763 276.11 367.708C277.899 369.476 286.687 377.362 301.117 377.797C314.16 378.174 327.327 372.405 340.216 360.633C340.524 360.343 340.801 360.053 341.048 359.763C341.264 359.502 363.434 333.002 390.599 304.473C435.279 257.561 458.59 241.441 470.307 236.193C482.703 230.626 492.416 228.887 500.001 230.916C508.11 233.091 515.141 239.933 521.462 251.82C528.122 264.346 537.712 286.816 542.83 308.996C548.011 331.466 547.271 348.427 540.795 355.588C540.764 355.617 540.734 355.646 540.703 355.675L540.795 355.588C540.209 356.139 535.8 360.14 528.646 360.256C528.523 360.256 528.4 360.256 528.276 360.256C520.845 360.256 512.304 355.994 503.578 347.934C489.671 335.061 456.37 304.125 442.278 291.02C438.702 287.685 432.936 287.714 429.39 291.078C429.328 291.136 429.266 291.194 429.174 291.281C425.504 294.76 425.535 300.356 429.235 303.806C443.45 317.027 476.505 347.76 490.381 360.575C502.869 372.115 515.603 377.971 528.246 377.971C528.708 377.971 529.171 377.971 529.602 377.942C544.958 377.42 553.9 368.374 554.856 367.331L554.918 367.273C565.864 355.443 567.991 334.568 561.208 305.256Z" fill="url(#paint1_linear)"/>
<path d="M406.247 247.8C397.801 247.8 390.953 240.965 390.953 232.534V205.732C390.953 197.302 397.801 190.466 406.247 190.466C414.692 190.466 421.54 197.302 421.54 205.732V232.534C421.54 240.965 414.692 247.8 406.247 247.8Z" fill="#FFA8A8"/>
<path d="M375.63 237.804C367.184 237.804 360.336 230.968 360.336 222.537V205.762C360.336 197.331 367.184 190.495 375.63 190.495C384.075 190.495 390.923 197.331 390.923 205.762V222.537C390.923 230.968 384.075 237.804 375.63 237.804Z" fill="#FFA8A8"/>
<path d="M436.868 247.8C428.422 247.8 421.574 240.965 421.574 232.534V215.758C421.574 207.327 428.422 200.492 436.868 200.492C445.314 200.492 452.162 207.327 452.162 215.758V232.534C452.162 240.965 445.314 247.8 436.868 247.8Z" fill="#FFA8A8"/>
<path d="M467.454 245.323C459.008 245.323 452.16 238.488 452.16 230.057V223.278C452.16 214.847 459.008 208.012 467.454 208.012C475.9 208.012 482.747 214.847 482.747 223.278V230.028C482.776 238.459 475.928 245.323 467.454 245.323Z" fill="#FFA8A8"/>
<g opacity="0.6">
<path opacity="0.6" d="M421.539 220.886C421.539 212.455 428.387 205.619 436.833 205.619C445.278 205.619 452.126 212.455 452.126 220.886V215.759C452.126 207.328 445.278 200.493 436.833 200.493C428.387 200.493 421.539 207.328 421.539 215.759V220.886Z" fill="#FFEDED"/>
</g>
<g opacity="0.6">
<path opacity="0.6" d="M375.63 195.595C384.075 195.595 390.923 202.43 390.923 210.861C390.923 202.43 397.771 195.595 406.217 195.595C414.663 195.595 421.511 202.43 421.511 210.861V205.734C421.511 197.303 414.663 190.468 406.217 190.468C397.771 190.468 390.923 197.303 390.923 205.734C390.923 197.303 384.075 190.468 375.63 190.468C367.184 190.468 360.336 197.303 360.336 205.734V210.861C360.307 202.43 367.184 195.595 375.63 195.595Z" fill="#FFEDED"/>
</g>
<g opacity="0.6">
<path opacity="0.6" d="M467.454 207.983C459.008 207.983 452.16 214.819 452.16 223.249V228.376C452.16 219.945 459.008 213.11 467.454 213.11C475.9 213.11 482.747 219.945 482.747 228.376V223.249C482.776 214.819 475.928 207.983 467.454 207.983Z" fill="#FFEDED"/>
</g>
<path d="M381.892 228.832C378.211 228.32 371.82 228.32 368.167 228.832C366.712 229.032 365.371 228.063 365.371 226.81V222.168C365.371 219.604 384.688 219.604 384.688 222.168V226.81C384.659 228.063 383.347 229.032 381.892 228.832Z" fill="#FFC4C4"/>
<path d="M413.251 238.117C409.57 237.604 403.179 237.604 399.527 238.117C398.072 238.317 396.73 237.348 396.73 236.095V231.452C396.73 228.889 416.047 228.889 416.047 231.452V236.095C416.047 237.348 414.706 238.317 413.251 238.117Z" fill="#FFC4C4"/>
<path d="M443.599 238.117C439.918 237.604 433.527 237.604 429.874 238.117C428.419 238.317 427.078 237.348 427.078 236.095V231.452C427.078 228.889 446.395 228.889 446.395 231.452V236.095C446.395 237.348 445.054 238.317 443.599 238.117Z" fill="#FFC4C4"/>
<path d="M473.958 235.097C470.277 234.585 463.886 234.585 460.234 235.097C458.779 235.297 457.438 234.328 457.438 233.075V228.461C457.438 225.898 476.754 225.898 476.754 228.461V233.075C476.754 234.328 475.413 235.297 473.958 235.097Z" fill="#FFC4C4"/>
<path d="M401.862 316.104C411.268 316.104 418.879 308.478 418.879 299.052C418.879 289.626 411.268 282 401.862 282H365.092C354.033 282 343.572 287.37 337.13 296.396C336.332 297.509 335.591 298.681 334.936 299.88C329.178 310.42 329.833 323.273 336.275 333.384L357.71 366.945C364.551 377.685 367.857 390.281 367.173 402.991L365.976 467H427.002C427.002 460.202 428 392.709 428 375.057C428 351.321 413.492 336.897 400.437 331.613C363.867 316.789 401.862 316.104 401.862 316.104Z" fill="#FFA8A8"/>
<path d="M401.629 282.493H393.84V285.312C393.84 291.237 398.633 296.022 404.568 296.022H418.321C416.695 288.275 409.847 282.493 401.629 282.493Z" fill="#FFC4C4"/>
<g opacity="0.6">
<path opacity="0.6" d="M417.408 344.783C416.381 343.501 415.268 342.334 414.155 341.223C413.784 340.853 413.385 340.482 413.014 340.141C411.673 338.916 410.275 337.777 408.848 336.78C408.249 336.352 407.621 335.925 407.022 335.526C406.194 335.014 405.367 334.501 404.54 334.045C404.34 333.932 404.14 333.818 403.912 333.704C402.685 333.049 401.43 332.479 400.203 331.966C385.965 326.213 382.997 322.596 384.709 320.317C384.709 320.317 384.681 320.317 384.681 320.289C380.115 322.339 377.547 328.264 400.203 338.204C412.871 343.758 427.252 357.315 427.794 380.215C427.794 380.101 427.794 380.016 427.794 379.902C427.794 379.816 427.794 379.731 427.794 379.645C427.794 379.531 427.794 379.446 427.794 379.332C427.794 379.19 427.794 379.076 427.794 378.962C427.794 378.905 427.794 378.819 427.794 378.762C427.794 378.62 427.794 378.478 427.794 378.335C427.794 378.278 427.794 378.193 427.794 378.136C427.794 377.993 427.794 377.851 427.794 377.708C427.794 377.623 427.794 377.509 427.794 377.424C427.794 377.281 427.794 377.167 427.794 377.025C427.794 376.968 427.794 376.911 427.794 376.854C427.794 376.74 427.794 376.626 427.794 376.512C427.794 376.427 427.794 376.341 427.794 376.256C427.794 376.17 427.794 376.085 427.794 376C427.794 375.914 427.794 375.829 427.794 375.772C427.794 375.658 427.794 375.572 427.794 375.458C427.794 375.401 427.794 375.344 427.794 375.316C427.794 363.097 423.942 353.385 418.407 346.093C418.093 345.638 417.75 345.21 417.408 344.783Z" fill="#FFEDED"/>
</g>
<g opacity="0.6">
<path opacity="0.6" d="M366.933 403.03C366.933 403.087 366.933 403.144 366.933 403.172L365.734 467.001H365.849L366.933 409.438C367.047 407.302 367.047 405.137 366.933 403.03Z" fill="#FFEDED"/>
</g>
<g opacity="0.6">
<path opacity="0.6" d="M334.661 306.589C335.317 305.393 336.059 304.225 336.858 303.114C343.306 294.114 353.749 288.759 364.848 288.759H401.656C409.987 288.759 416.921 294.74 418.405 302.63C418.604 301.605 418.69 300.579 418.69 299.497C418.69 290.098 411.072 282.493 401.656 282.493H364.848C353.778 282.493 343.306 287.848 336.858 296.848C336.059 297.959 335.317 299.127 334.661 300.323C331.493 306.105 330.267 312.57 330.866 318.922C331.294 314.649 332.521 310.463 334.661 306.589Z" fill="#FFEDED"/>
</g>
<path d="M459.641 438.518H365.425C363.143 438.518 361.316 436.667 361.316 434.417V423.821C361.316 421.543 363.171 419.72 365.425 419.72H459.641C461.923 419.72 463.75 421.571 463.75 423.821V434.417C463.75 436.667 461.895 438.518 459.641 438.518Z" fill="#333A62"/>
<path d="M425.517 431.681C426.935 431.681 428.085 430.534 428.085 429.118C428.085 427.702 426.935 426.555 425.517 426.555C424.099 426.555 422.949 427.702 422.949 429.118C422.949 430.534 424.099 431.681 425.517 431.681Z" fill="#7DADFF"/>
<path d="M417.24 431.681C418.658 431.681 419.808 430.534 419.808 429.118C419.808 427.702 418.658 426.555 417.24 426.555C415.822 426.555 414.672 427.702 414.672 429.118C414.672 430.534 415.822 431.681 417.24 431.681Z" fill="#7DADFF"/>
<path d="M408.966 431.681C410.385 431.681 411.534 430.534 411.534 429.118C411.534 427.702 410.385 426.555 408.966 426.555C407.548 426.555 406.398 427.702 406.398 429.118C406.398 430.534 407.548 431.681 408.966 431.681Z" fill="#7DADFF"/>
<path d="M459.644 419.719H434.078V438.517H459.644C461.926 438.517 463.752 436.666 463.752 434.416V423.82C463.752 421.57 461.898 419.719 459.644 419.719Z" fill="#1D202E"/>
<defs>
<linearGradient id="paint0_linear" x1="121.856" y1="696.749" x2="926.774" y2="345.479" gradientUnits="userSpaceOnUse">
<stop offset="0.02" stop-color="#00E47D"/>
<stop offset="0.67" stop-color="#DBEA7C"/>
<stop offset="1" stop-color="#FF8641"/>
</linearGradient>
<linearGradient id="paint1_linear" x1="266" y1="295.148" x2="565.086" y2="295.148" gradientUnits="userSpaceOnUse">
<stop offset="0.02" stop-color="#00E47D"/>
<stop offset="0.67" stop-color="#DBEA7C"/>
<stop offset="1" stop-color="#FF8641"/>
</linearGradient>
</defs>
</svg>
