<svg width="559" height="473" viewBox="0 0 559 473" fill="none" xmlns="http://www.w3.org/2000/svg">
<path d="M15.3397 99.8313C68.3542 214.384 -22.305 346.947 29.0321 463.373C30.4871 466.673 31.9529 469.881 33.4299 473H473.508C520.935 354.427 509.426 227.388 465.609 99.8313C451.792 59.6061 427.58 26.4345 397.216 0.0887742L7.59274 0C-3.94944 26.6876 -3.06809 60.056 15.3397 99.8313Z" fill="#1A1A1A"/>
<path d="M67.0833 104.894C122.517 219.553 27.7208 352.238 81.4006 468.773C82.0575 470.199 82.7165 471.608 83.3777 473H558.362L558.5 104.894L558.362 6V0L80.9323 0.000183105C55.42 28.5653 47.2063 63.78 67.0833 104.894Z" fill="url(#paint0_linear)"/>
<path d="M213.98 430.787C207.418 430.787 202.082 425.461 202.082 418.91C202.082 412.359 207.418 407.033 213.98 407.033C220.543 407.033 225.878 412.359 225.878 418.91C225.878 425.461 220.543 430.787 213.98 430.787ZM213.98 410.821C209.529 410.821 205.877 414.439 205.877 418.91C205.877 423.382 209.501 426.999 213.98 426.999C218.431 426.999 222.084 423.382 222.084 418.91C222.084 414.439 218.431 410.821 213.98 410.821Z" fill="white"/>
<path d="M240.772 384.818C232.07 384.818 224.965 377.754 224.965 369.039C224.965 360.352 232.041 353.26 240.772 353.26C249.475 353.26 256.579 360.323 256.579 369.039C256.579 377.726 249.503 384.818 240.772 384.818ZM240.772 357.076C234.152 357.076 228.788 362.431 228.788 369.039C228.788 375.647 234.152 381.001 240.772 381.001C247.392 381.001 252.756 375.647 252.756 369.039C252.756 362.431 247.392 357.076 240.772 357.076Z" fill="white"/>
<path d="M403.409 194.558C394.706 194.558 387.602 187.495 387.602 178.779C387.602 170.064 394.678 163 403.409 163C412.14 163 419.216 170.064 419.216 178.779C419.216 187.495 412.14 194.558 403.409 194.558ZM403.409 166.817C396.789 166.817 391.425 172.171 391.425 178.779C391.425 185.387 396.789 190.742 403.409 190.742C410.028 190.742 415.393 185.387 415.393 178.779C415.393 172.171 410.028 166.817 403.409 166.817Z" fill="white"/>
<path d="M175.661 234.234C175.261 234.234 174.89 234.12 174.548 233.893C174.149 233.608 173.863 233.152 173.778 232.668L170.182 211.449C170.011 210.423 170.696 209.426 171.752 209.256L193.009 205.667C194.036 205.496 195.035 206.179 195.206 207.233L198.801 228.452C198.972 229.478 198.287 230.475 197.232 230.646L175.975 234.234C175.889 234.206 175.775 234.234 175.661 234.234ZM174.263 212.673L177.23 230.133L194.721 227.171L191.753 209.711L174.263 212.673Z" fill="white"/>
<path d="M386.204 389.489C385.291 389.489 384.492 388.834 384.321 387.894L380.725 366.675C380.554 365.65 381.239 364.653 382.295 364.482L403.552 360.893C404.579 360.722 405.578 361.406 405.749 362.46L409.344 383.679C409.515 384.704 408.83 385.701 407.775 385.872L386.518 389.461C386.403 389.489 386.318 389.489 386.204 389.489ZM384.806 367.928L387.773 385.388L405.264 382.426L402.296 364.966L384.806 367.928Z" fill="white"/>
<path d="M177.457 359.212C176.715 359.212 176.03 358.785 175.716 358.073L160.166 322.869C159.738 321.901 160.166 320.79 161.136 320.363C162.106 319.936 163.219 320.363 163.647 321.331L179.197 356.535C179.625 357.503 179.197 358.614 178.227 359.041C177.97 359.155 177.714 359.212 177.457 359.212Z" fill="white"/>
<path d="M369.34 404.898H363.348V410.88H369.34V404.898Z" fill="white"/>
<path d="M385.261 285.559H379.27V291.54H385.261V285.559Z" fill="white"/>
<path d="M187.018 296.238H182.566V300.682H187.018V296.238Z" fill="white"/>
<path d="M235.006 248.047H230.555V252.49H235.006V248.047Z" fill="white"/>
<path d="M174.846 382.277C175.571 379.183 173.646 376.088 170.547 375.364C167.447 374.64 164.347 376.562 163.622 379.656C162.896 382.75 164.821 385.845 167.921 386.568C171.02 387.292 174.121 385.371 174.846 382.277Z" fill="white"/>
<path d="M219.639 188.31C220.364 185.216 218.439 182.121 215.34 181.398C212.24 180.674 209.14 182.595 208.415 185.689C207.689 188.783 209.614 191.878 212.714 192.602C215.813 193.325 218.913 191.404 219.639 188.31Z" fill="white"/>
<path d="M417.869 410.737C421.052 410.737 423.633 408.161 423.633 404.984C423.633 401.806 421.052 399.23 417.869 399.23C414.686 399.23 412.105 401.806 412.105 404.984C412.105 408.161 414.686 410.737 417.869 410.737Z" fill="white"/>
<path d="M450.744 224.065C452.887 224.065 454.624 222.331 454.624 220.192C454.624 218.053 452.887 216.318 450.744 216.318C448.601 216.318 446.863 218.053 446.863 220.192C446.863 222.331 448.601 224.065 450.744 224.065Z" fill="white"/>
<path d="M191.014 277.471C190.472 277.471 189.93 277.243 189.559 276.787C188.874 275.99 188.988 274.794 189.787 274.11L210.217 257.078C211.016 256.394 212.214 256.508 212.899 257.306C213.584 258.103 213.47 259.299 212.671 259.983L192.241 277.015C191.899 277.329 191.442 277.471 191.014 277.471Z" fill="white"/>
<path d="M398.927 324.806C398.613 324.806 398.299 324.721 397.985 324.55C397.072 324.037 396.73 322.87 397.243 321.958L422.552 276.9C423.066 275.988 424.236 275.646 425.149 276.159C426.062 276.672 426.404 277.839 425.89 278.751L400.582 323.838C400.239 324.465 399.583 324.806 398.927 324.806Z" fill="white"/>
<path d="M382.726 238.706C382.127 238.706 381.528 238.421 381.185 237.908C380.786 237.367 380.729 236.627 381.014 236.029L388.832 218.797C389.089 218.199 389.66 217.8 390.316 217.686C390.972 217.601 391.6 217.857 392.028 218.341L404.925 233.608C405.381 234.149 405.495 234.889 405.239 235.544C404.982 236.2 404.354 236.655 403.641 236.712L382.926 238.649C382.84 238.706 382.783 238.706 382.726 238.706ZM391.029 223.098L385.808 234.576L399.618 233.266L391.029 223.098Z" fill="white"/>
<path d="M391.224 440.16L387.258 449.531C386.859 450.47 387.601 451.524 388.628 451.41L397.93 450.584C398.957 450.499 399.499 449.36 398.957 448.505L393.621 439.961C393.051 439.049 391.652 439.163 391.224 440.16Z" fill="white"/>
<path d="M247.035 197.472L225.965 208.014L227.678 211.426L248.748 200.884L247.035 197.472Z" fill="white"/>
<path d="M367.373 203.274C366.688 203.274 366.032 202.903 365.69 202.277L353.364 179.662C352.85 178.751 353.192 177.583 354.134 177.07C355.047 176.557 356.217 176.899 356.73 177.839L369.057 200.454C369.57 201.365 369.228 202.533 368.286 203.046C367.972 203.188 367.659 203.274 367.373 203.274Z" fill="white"/>
<path d="M374.665 304.271V361.834C374.665 369.268 367.218 376.36 360.798 381.116C355.006 385.388 351.639 392.167 351.639 399.345C351.639 428.539 351.582 472.999 351.582 472.999H261.503L266.525 383.423L245.211 304.271H374.665" fill="#FF8C8C"/>
<path d="M204.323 247.022C211.428 239.076 225.009 231.784 235.709 231.585C235.766 229.733 234.14 225.774 230.745 224.92C230.174 224.778 229.575 224.749 229.004 224.778C218.247 225.66 208.489 229.135 202.069 237.338C199.301 241.212 202.725 245.712 204.323 247.022Z" fill="#1A1A1A"/>
<path d="M409.583 247.022C402.478 239.076 388.897 231.784 378.197 231.585C378.14 229.733 379.766 225.774 383.162 224.92C383.732 224.778 384.331 224.749 384.902 224.778C395.659 225.66 405.417 229.135 411.837 237.338C414.633 241.212 411.209 245.712 409.583 247.022Z" fill="#1A1A1A"/>
<path d="M437.979 348.046C439.412 334.692 437.023 326.107 434.156 312.277L423.541 274.651C423.541 274.252 423.569 273.825 423.569 273.426C423.569 270.265 423.255 267.189 422.628 264.226L422.599 263.97L422.571 263.999C418.205 243.605 400.087 228.311 378.345 228.311C378.116 228.311 377.888 228.311 377.688 228.311H232.37V228.368C211.655 229.364 194.593 244.289 190.37 263.97C189.714 267.018 189.371 270.179 189.371 273.426C189.371 273.939 189.371 274.423 189.4 274.907C186.009 302.599 183.252 318.197 184.863 345.457C183.55 360.325 195.278 373.142 210.257 373.142C217.619 373.142 224.609 369.952 229.46 364.426C229.46 364.426 269.606 321.447 269.634 321.418H343.335C343.363 321.447 383.538 364.426 383.538 364.426C388.388 369.952 395.379 373.142 402.74 373.142C417.453 373.289 435.573 370.461 437.979 348.046Z" fill="#F2F2F2"/>
<path d="M293.658 306.859C296.757 299.389 293.204 290.825 285.72 287.731C278.237 284.637 269.658 288.184 266.558 295.654C263.458 303.124 267.012 311.688 274.495 314.782C281.979 317.877 290.558 314.329 293.658 306.859Z" fill="#F2F2F2"/>
<path d="M335.543 315.701C343.538 314.406 348.968 306.886 347.67 298.905C346.373 290.924 338.839 285.504 330.844 286.799C322.849 288.095 317.419 295.614 318.717 303.595C320.014 311.577 327.548 316.996 335.543 315.701Z" fill="#F2F2F2"/>
<path d="M402.741 373.141C405.366 373.141 407.877 372.743 410.246 372.031L373.723 334.292C365.763 326.061 354.778 321.418 343.336 321.418C343.393 321.503 383.539 364.426 383.539 364.426C388.389 369.951 395.38 373.141 402.741 373.141Z" fill="#CCCCCC"/>
<path d="M202.613 371.972C205.01 372.741 207.607 373.14 210.26 373.14C217.622 373.14 224.612 369.95 229.463 364.425C229.463 364.425 266.698 324.55 269.466 321.588L269.552 321.303C258.081 321.303 247.125 325.945 239.164 334.177L202.613 371.972Z" fill="#CCCCCC"/>
<path d="M280.079 312.216C286.146 312.216 291.064 307.307 291.064 301.251C291.064 295.195 286.146 290.285 280.079 290.285C274.012 290.285 269.094 295.195 269.094 301.251C269.094 307.307 274.012 312.216 280.079 312.216Z" fill="#1A1A1A"/>
<path d="M280.079 312.217C286.156 312.217 291.064 307.318 291.064 301.252C291.064 300.511 290.978 299.771 290.835 299.059C283.931 303.217 276.94 305.011 269.664 304.755C271.148 309.084 275.257 312.217 280.079 312.217Z" fill="#231F20"/>
<path d="M383.12 269.981C388.35 268.748 391.588 263.517 390.354 258.297C389.119 253.077 383.878 249.844 378.649 251.077C373.419 252.309 370.181 257.54 371.416 262.761C372.65 267.981 377.891 271.214 383.12 269.981Z" fill="#BCBEC0"/>
<path d="M389.925 296.728C391.981 291.772 389.624 286.091 384.659 284.038C379.694 281.985 374.003 284.339 371.946 289.294C369.89 294.25 372.247 299.932 377.212 301.985C382.177 304.037 387.868 301.684 389.925 296.728Z" fill="#BCBEC0"/>
<path d="M400.324 286.196C405.553 284.963 408.791 279.732 407.557 274.512C406.322 269.291 401.081 266.059 395.852 267.292C390.622 268.524 387.384 273.755 388.619 278.976C389.854 284.196 395.094 287.428 400.324 286.196Z" fill="#BCBEC0"/>
<path d="M365.921 286.993C371.151 285.76 374.389 280.529 373.154 275.309C371.919 270.088 366.679 266.856 361.449 268.088C356.22 269.321 352.982 274.552 354.216 279.772C355.451 284.993 360.692 288.225 365.921 286.993Z" fill="#BCBEC0"/>
<path d="M304.566 266.674H300.857C299.63 266.674 298.66 267.671 298.66 268.867C298.66 270.092 299.659 271.06 300.857 271.06H304.566C305.793 271.06 306.764 270.063 306.764 268.867C306.792 267.642 305.793 266.674 304.566 266.674Z" fill="#BCBEC0"/>
<path d="M316.801 266.674H313.092C311.865 266.674 310.895 267.671 310.895 268.867C310.895 270.092 311.893 271.06 313.092 271.06H316.801C318.028 271.06 318.998 270.063 318.998 268.867C318.998 267.642 318.028 266.674 316.801 266.674Z" fill="#BCBEC0"/>
<path d="M252.488 271.8H242.787V262.116C242.787 257.958 239.392 254.568 235.226 254.568C231.06 254.568 227.665 257.958 227.665 262.116V271.8H217.964C213.798 271.8 210.402 275.189 210.402 279.348C210.402 283.506 213.798 286.896 217.964 286.896H227.665V296.579C227.665 300.738 231.06 304.127 235.226 304.127C239.392 304.127 242.787 300.738 242.787 296.579V286.896H252.488C256.654 286.896 260.05 283.506 260.05 279.348C260.05 275.189 256.654 271.8 252.488 271.8Z" fill="#BCBEC0"/>
<path d="M358.546 312.591C334.865 289.976 324.936 295.021 324.936 295.021C324.936 295.021 324.936 295.021 324.905 294.992C324.042 295.311 323.302 295.717 322.778 296.21C322.716 296.268 322.654 296.326 322.593 296.413C318.923 299.892 325.368 306.416 329.068 309.866C343.283 323.087 376.338 353.82 390.213 366.635C400.974 376.58 411.921 382.292 422.836 383.683L430.884 376.203L431.285 366.055C430.391 366.2 429.466 366.287 428.479 366.316C428.356 366.316 428.047 364.722 427.924 364.751C420.339 367.244 412.137 362.054 403.41 353.994L358.546 312.591Z" fill="#FF8641"/>
<path d="M381.023 219.78C375.072 221.056 368.782 223.202 361.998 226.217C342.696 234.886 313.865 259.27 276.309 298.73C251.734 324.534 231.198 348.744 226.881 353.846C226.603 354.194 226.295 354.484 225.956 354.803C217.445 362.342 209.12 366.256 201.812 366.14C194.628 366.024 190.188 362.139 189.571 361.559L189.17 361.182C185.007 357.384 182.14 343.409 187.752 316.445C192.038 295.888 200.702 271.911 208.781 258.168C224.137 232.103 235.052 235.814 258.733 244.773C263.266 246.483 262.433 236.684 262.772 233.349L230.889 218.766C229.255 218.998 227.683 219.317 226.11 219.722C213.067 223.115 202.336 232.625 192.346 249.615C183.281 265.01 174.03 290.496 169.312 313.024C162.991 343.351 165.211 363.762 175.911 373.707C177.576 375.36 185.347 382.347 198.112 383.623C207.301 382.84 227.528 378.984 244.857 361.066C252.443 352.194 270.019 331.898 290.431 310.443C335.08 263.561 358.422 247.44 370.108 242.192C382.503 236.626 393.326 235.872 398.877 239.96C401.868 242.163 406.894 239.844 410.131 242.743L414.88 239.09L381.023 219.78Z" fill="#AF42AE"/>
<path d="M257.934 267.298H249.239V259.122C249.239 254.541 245.292 250.83 240.42 250.83H240.235C235.363 250.83 231.416 254.541 231.416 259.122V267.298H222.721C217.849 267.298 213.902 271.01 213.902 275.591V275.765C213.902 280.345 217.849 284.057 222.721 284.057H231.416V292.233C231.416 296.814 235.363 300.525 240.235 300.525H240.42C245.292 300.525 249.239 296.814 249.239 292.233V284.057H257.934C262.806 284.057 266.753 280.345 266.753 275.765V275.591C266.753 271.039 262.806 267.298 257.934 267.298Z" fill="#FF8641"/>
<path d="M385.477 267.18C390.04 265.403 392.206 260.484 390.316 256.194C388.426 251.904 383.195 249.866 378.633 251.644C374.07 253.421 371.903 258.339 373.793 262.63C375.683 266.92 380.914 268.957 385.477 267.18Z" fill="#AF42AE"/>
<path d="M390.859 293.357C391.651 288.773 388.34 284.454 383.465 283.711C378.59 282.967 373.997 286.079 373.206 290.663C372.415 295.247 375.725 299.566 380.6 300.31C385.475 301.054 390.068 297.941 390.859 293.357Z" fill="#AF42AE"/>
<path d="M364.712 284.115C369.65 284.115 373.654 280.351 373.654 275.707C373.654 271.063 369.65 267.299 364.712 267.299C359.773 267.299 355.77 271.063 355.77 275.707C355.77 280.351 359.773 284.115 364.712 284.115Z" fill="#AF42AE"/>
<path d="M399.399 284.115C404.338 284.115 408.341 280.351 408.341 275.707C408.341 271.063 404.338 267.299 399.399 267.299C394.461 267.299 390.457 271.063 390.457 275.707C390.457 280.351 394.461 284.115 399.399 284.115Z" fill="#AF42AE"/>
<path d="M453.208 311.255C447.719 287.509 437.76 263.995 430.298 249.933C421.479 233.32 410.625 223.491 397.15 219.896C384.971 216.649 370.91 218.707 354.198 226.217C334.895 234.886 306.065 259.269 268.508 298.729C243.933 324.534 223.397 348.743 219.08 353.846C218.803 354.194 218.494 354.484 218.155 354.803C209.645 362.341 201.319 366.255 194.011 366.139C186.827 366.023 182.387 362.138 181.77 361.558L181.369 361.181C177.207 357.383 174.339 343.408 179.951 316.444C184.237 295.888 192.901 271.91 200.98 258.167C216.336 232.102 229.255 232.189 252.412 242.25C265.055 247.73 276.833 250.745 285.683 252.398C287.595 252.746 289.537 252.195 290.925 250.919C293.052 248.976 295.118 247.063 297.184 245.236C300.699 242.105 298.849 236.538 294.07 235.813C294.008 235.813 293.947 235.784 293.885 235.784C285.991 234.625 273.719 231.957 260.337 226.159C243.008 218.62 230.026 216.649 218.309 219.693C205.266 223.085 194.536 232.595 184.545 249.585C175.48 265.01 166.199 290.495 161.512 313.023C155.191 343.35 157.411 363.762 168.11 373.707C169.899 375.475 178.687 383.361 193.117 383.796C206.16 384.173 219.327 378.404 232.216 366.632C232.524 366.342 232.801 366.052 233.048 365.762C233.264 365.501 255.434 339.001 282.599 310.472C327.279 263.56 350.59 247.44 362.307 242.192C374.703 236.625 384.416 234.886 392.001 236.915C400.11 239.09 407.141 245.932 413.462 257.82C420.122 270.345 429.712 292.815 434.83 314.995C440.011 337.465 439.271 354.426 432.795 361.587C432.764 361.616 432.734 361.645 432.703 361.674L432.795 361.587C432.209 362.138 427.8 366.139 420.646 366.255C420.523 366.255 420.4 366.255 420.276 366.255C412.845 366.255 404.304 361.993 395.578 353.933C381.671 341.06 348.37 310.124 334.278 297.019C330.702 293.684 324.936 293.713 321.39 297.077C321.328 297.135 321.266 297.193 321.174 297.28C317.504 300.759 317.535 306.355 321.235 309.805C335.45 323.026 368.505 353.759 382.381 366.574C394.869 378.114 407.603 383.97 420.246 383.97C420.708 383.97 421.171 383.97 421.602 383.941C436.958 383.419 445.9 374.373 446.856 373.33L446.918 373.272C457.864 361.442 459.991 340.567 453.208 311.255Z" fill="url(#paint1_linear)"/>
<path d="M298.247 253.799C289.801 253.799 282.953 246.964 282.953 238.533V211.731C282.953 203.301 289.801 196.465 298.247 196.465C306.692 196.465 313.54 203.301 313.54 211.731V238.533C313.54 246.964 306.692 253.799 298.247 253.799Z" fill="#FFA8A8"/>
<path d="M267.63 243.803C259.184 243.803 252.336 236.967 252.336 228.536V211.761C252.336 203.33 259.184 196.494 267.63 196.494C276.075 196.494 282.923 203.33 282.923 211.761V228.536C282.923 236.967 276.075 243.803 267.63 243.803Z" fill="#FFA8A8"/>
<path d="M328.868 253.799C320.422 253.799 313.574 246.963 313.574 238.533V221.757C313.574 213.326 320.422 206.49 328.868 206.49C337.314 206.49 344.162 213.326 344.162 221.757V238.533C344.162 246.963 337.314 253.799 328.868 253.799Z" fill="#FFA8A8"/>
<path d="M359.454 251.321C351.008 251.321 344.16 244.486 344.16 236.055V229.276C344.16 220.845 351.008 214.01 359.454 214.01C367.9 214.01 374.747 220.845 374.747 229.276V236.026C374.776 244.457 367.928 251.321 359.454 251.321Z" fill="#FFA8A8"/>
<g opacity="0.6">
<path opacity="0.6" d="M313.539 226.885C313.539 218.455 320.387 211.619 328.833 211.619C337.278 211.619 344.126 218.455 344.126 226.885V221.759C344.126 213.328 337.278 206.492 328.833 206.492C320.387 206.492 313.539 213.328 313.539 221.759V226.885Z" fill="#FFEDED"/>
</g>
<g opacity="0.6">
<path opacity="0.6" d="M267.63 201.594C276.075 201.594 282.923 208.429 282.923 216.86C282.923 208.429 289.771 201.594 298.217 201.594C306.663 201.594 313.511 208.429 313.511 216.86V211.733C313.511 203.302 306.663 196.467 298.217 196.467C289.771 196.467 282.923 203.302 282.923 211.733C282.923 203.302 276.075 196.467 267.63 196.467C259.184 196.467 252.336 203.302 252.336 211.733V216.86C252.307 208.429 259.184 201.594 267.63 201.594Z" fill="#FFEDED"/>
</g>
<g opacity="0.6">
<path opacity="0.6" d="M359.454 213.982C351.008 213.982 344.16 220.818 344.16 229.249V234.376C344.16 225.945 351.008 219.109 359.454 219.109C367.9 219.109 374.747 225.945 374.747 234.376V229.249C374.776 220.818 367.928 213.982 359.454 213.982Z" fill="#FFEDED"/>
</g>
<path d="M273.892 234.831C270.211 234.319 263.82 234.319 260.167 234.831C258.712 235.031 257.371 234.062 257.371 232.809V228.167C257.371 225.603 276.688 225.603 276.688 228.167V232.809C276.659 234.062 275.347 235.031 273.892 234.831Z" fill="#FFC4C4"/>
<path d="M305.251 244.117C301.57 243.604 295.179 243.604 291.527 244.117C290.072 244.316 288.73 243.348 288.73 242.094V237.452C288.73 234.888 308.047 234.888 308.047 237.452V242.094C308.047 243.348 306.706 244.316 305.251 244.117Z" fill="#FFC4C4"/>
<path d="M335.599 244.117C331.918 243.604 325.527 243.604 321.874 244.117C320.419 244.316 319.078 243.348 319.078 242.094V237.452C319.078 234.888 338.395 234.888 338.395 237.452V242.094C338.395 243.348 337.054 244.316 335.599 244.117Z" fill="#FFC4C4"/>
<path d="M365.958 241.096C362.277 240.583 355.886 240.583 352.234 241.096C350.779 241.295 349.438 240.327 349.438 239.074V234.46C349.438 231.896 368.754 231.896 368.754 234.46V239.074C368.754 240.327 367.413 241.295 365.958 241.096Z" fill="#FFC4C4"/>
<path d="M293.862 322.102C303.268 322.102 310.879 314.476 310.879 305.05C310.879 295.624 303.268 287.998 293.862 287.998H257.092C246.033 287.998 235.572 293.368 229.13 302.394C228.332 303.508 227.591 304.679 226.936 305.878C221.178 316.418 221.833 329.271 228.275 339.382L249.71 372.943C256.551 383.683 259.857 396.279 259.173 408.989L257.976 472.998H319.002C319.002 466.2 320 398.707 320 381.055C320 357.319 305.492 342.895 292.437 337.611C255.867 322.787 293.862 322.102 293.862 322.102Z" fill="#FFA8A8"/>
<path d="M293.631 288.49H285.842V291.31C285.842 297.234 290.635 302.019 296.57 302.019H310.323C308.697 294.272 301.849 288.49 293.631 288.49Z" fill="#FFC4C4"/>
<g opacity="0.6">
<path opacity="0.6" d="M309.408 350.782C308.381 349.5 307.268 348.332 306.155 347.221C305.784 346.851 305.385 346.481 305.014 346.139C303.673 344.914 302.275 343.775 300.848 342.778C300.249 342.351 299.621 341.924 299.022 341.525C298.194 341.012 297.367 340.5 296.54 340.044C296.34 339.93 296.14 339.816 295.912 339.702C294.685 339.047 293.43 338.477 292.203 337.965C277.965 332.211 274.997 328.594 276.709 326.316C276.709 326.316 276.681 326.316 276.681 326.287C272.115 328.338 269.547 334.262 292.203 344.202C304.871 349.756 319.252 363.314 319.794 386.213C319.794 386.1 319.794 386.014 319.794 385.9C319.794 385.815 319.794 385.729 319.794 385.644C319.794 385.53 319.794 385.444 319.794 385.33C319.794 385.188 319.794 385.074 319.794 384.96C319.794 384.903 319.794 384.818 319.794 384.761C319.794 384.618 319.794 384.476 319.794 384.334C319.794 384.277 319.794 384.191 319.794 384.134C319.794 383.992 319.794 383.849 319.794 383.707C319.794 383.622 319.794 383.508 319.794 383.422C319.794 383.28 319.794 383.166 319.794 383.023C319.794 382.966 319.794 382.91 319.794 382.853C319.794 382.739 319.794 382.625 319.794 382.511C319.794 382.425 319.794 382.34 319.794 382.254C319.794 382.169 319.794 382.084 319.794 381.998C319.794 381.913 319.794 381.827 319.794 381.77C319.794 381.656 319.794 381.571 319.794 381.457C319.794 381.4 319.794 381.343 319.794 381.315C319.794 369.096 315.942 359.383 310.407 352.092C310.093 351.636 309.75 351.209 309.408 350.782Z" fill="#FFEDED"/>
</g>
<g opacity="0.6">
<path opacity="0.6" d="M258.933 409.029C258.933 409.086 258.933 409.143 258.933 409.172L257.734 473H257.849L258.933 415.438C259.047 413.302 259.047 411.137 258.933 409.029Z" fill="#FFEDED"/>
</g>
<g opacity="0.6">
<path opacity="0.6" d="M226.661 312.588C227.317 311.392 228.059 310.224 228.858 309.113C235.306 300.113 245.749 294.758 256.848 294.758H293.656C301.987 294.758 308.921 300.739 310.405 308.629C310.604 307.604 310.69 306.578 310.69 305.496C310.69 296.097 303.072 288.492 293.656 288.492H256.848C245.778 288.492 235.306 293.847 228.858 302.847C228.059 303.958 227.317 305.126 226.661 306.322C223.493 312.104 222.267 318.569 222.866 324.921C223.294 320.648 224.521 316.462 226.661 312.588Z" fill="#FFEDED"/>
</g>
<path d="M351.641 444.517H257.425C255.143 444.517 253.316 442.666 253.316 440.416V429.82C253.316 427.542 255.171 425.719 257.425 425.719H351.641C353.923 425.719 355.75 427.57 355.75 429.82V440.416C355.75 442.666 353.895 444.517 351.641 444.517Z" fill="#333A62"/>
<path d="M317.517 437.681C318.935 437.681 320.085 436.534 320.085 435.118C320.085 433.702 318.935 432.555 317.517 432.555C316.099 432.555 314.949 433.702 314.949 435.118C314.949 436.534 316.099 437.681 317.517 437.681Z" fill="#7DADFF"/>
<path d="M309.24 437.681C310.658 437.681 311.808 436.534 311.808 435.118C311.808 433.702 310.658 432.555 309.24 432.555C307.822 432.555 306.672 433.702 306.672 435.118C306.672 436.534 307.822 437.681 309.24 437.681Z" fill="#7DADFF"/>
<path d="M300.966 437.681C302.385 437.681 303.534 436.534 303.534 435.118C303.534 433.702 302.385 432.555 300.966 432.555C299.548 432.555 298.398 433.702 298.398 435.118C298.398 436.534 299.548 437.681 300.966 437.681Z" fill="#7DADFF"/>
<path d="M351.644 425.719H326.078V444.517H351.644C353.926 444.517 355.752 442.666 355.752 440.416V429.82C355.752 427.57 353.898 425.719 351.644 425.719Z" fill="#1D202E"/>
<defs>
<linearGradient id="paint0_linear" x1="66.2668" y1="667.512" x2="722.302" y2="396.472" gradientUnits="userSpaceOnUse">
<stop offset="0.02" stop-color="#00E47D"/>
<stop offset="0.67" stop-color="#DBEA7C"/>
<stop offset="1" stop-color="#FF8641"/>
</linearGradient>
<linearGradient id="paint1_linear" x1="158" y1="301.147" x2="457.086" y2="301.147" gradientUnits="userSpaceOnUse">
<stop offset="0.02" stop-color="#00E47D"/>
<stop offset="0.67" stop-color="#DBEA7C"/>
<stop offset="1" stop-color="#FF8641"/>
</linearGradient>
</defs>
</svg>
