<svg width="570" height="473" viewBox="0 0 570 473" fill="none" xmlns="http://www.w3.org/2000/svg">
<path d="M15.6696 99.8313C69.8242 214.384 -22.7847 346.947 29.6565 463.373C31.1427 466.673 32.64 469.881 34.1488 473H483.691C532.138 354.427 520.381 227.388 475.622 99.8313C461.508 59.6061 436.775 26.4345 405.758 0.0887742L7.75602 0C-4.03438 26.6876 -3.13407 60.056 15.6696 99.8313Z" fill="#1A1A1A"/>
<path d="M67.0833 104.894C122.517 219.553 27.7208 352.238 81.4006 468.773C82.0575 470.199 82.7165 471.608 83.3777 473H548.373C595.376 355.867 553.416 240.837 537.899 104.894C533.428 65.7295 531.884 41.5009 529.017 6.00091C529.017 3.96501 528.927 1.96477 528.75 0H80.9323C55.42 28.5651 47.2063 63.7799 67.0833 104.894Z" fill="url(#paint0_linear)"/>
<path d="M206.885 430.787C200.322 430.787 194.986 425.461 194.986 418.91C194.986 412.359 200.322 407.033 206.885 407.033C213.447 407.033 218.783 412.359 218.783 418.91C218.783 425.461 213.447 430.787 206.885 430.787ZM206.885 410.821C202.433 410.821 198.781 414.439 198.781 418.91C198.781 423.382 202.405 426.999 206.885 426.999C211.336 426.999 214.988 423.382 214.988 418.91C214.988 414.439 211.336 410.821 206.885 410.821Z" fill="white"/>
<path d="M233.676 384.818C224.974 384.818 217.869 377.754 217.869 369.039C217.869 360.352 224.945 353.26 233.676 353.26C242.379 353.26 249.484 360.323 249.484 369.039C249.484 377.726 242.407 384.818 233.676 384.818ZM233.676 357.076C227.057 357.076 221.693 362.431 221.693 369.039C221.693 375.647 227.057 381.001 233.676 381.001C240.296 381.001 245.66 375.647 245.66 369.039C245.66 362.431 240.296 357.076 233.676 357.076Z" fill="white"/>
<path d="M396.313 194.558C387.611 194.558 380.506 187.495 380.506 178.779C380.506 170.064 387.582 163 396.313 163C405.044 163 412.12 170.064 412.12 178.779C412.12 187.495 405.044 194.558 396.313 194.558ZM396.313 166.817C389.693 166.817 384.329 172.171 384.329 178.779C384.329 185.387 389.693 190.742 396.313 190.742C402.933 190.742 408.297 185.387 408.297 178.779C408.297 172.171 402.933 166.817 396.313 166.817Z" fill="white"/>
<path d="M168.565 234.234C168.166 234.234 167.795 234.12 167.452 233.893C167.053 233.608 166.767 233.152 166.682 232.668L163.087 211.449C162.916 210.423 163.6 209.426 164.656 209.256L185.913 205.667C186.94 205.496 187.939 206.179 188.11 207.233L191.705 228.452C191.876 229.478 191.192 230.475 190.136 230.646L168.879 234.234C168.793 234.206 168.679 234.234 168.565 234.234ZM167.167 212.673L170.134 230.133L187.625 227.171L184.658 209.711L167.167 212.673Z" fill="white"/>
<path d="M379.108 389.489C378.195 389.489 377.396 388.834 377.225 387.894L373.63 366.675C373.459 365.65 374.143 364.653 375.199 364.482L396.456 360.893C397.483 360.722 398.482 361.406 398.653 362.46L402.248 383.679C402.419 384.704 401.735 385.701 400.679 385.872L379.422 389.461C379.308 389.489 379.222 389.489 379.108 389.489ZM377.71 367.928L380.677 385.388L398.168 382.426L395.201 364.966L377.71 367.928Z" fill="white"/>
<path d="M170.361 359.212C169.619 359.212 168.934 358.785 168.621 358.073L153.07 322.869C152.642 321.901 153.07 320.79 154.04 320.363C155.01 319.936 156.123 320.363 156.551 321.331L172.102 356.535C172.53 357.503 172.102 358.614 171.131 359.041C170.875 359.155 170.618 359.212 170.361 359.212Z" fill="white"/>
<path d="M362.244 404.898H356.252V410.88H362.244V404.898Z" fill="white"/>
<path d="M378.166 285.559H372.174V291.54H378.166V285.559Z" fill="white"/>
<path d="M179.922 296.238H175.471V300.682H179.922V296.238Z" fill="white"/>
<path d="M227.91 248.047H223.459V252.49H227.91V248.047Z" fill="white"/>
<path d="M167.75 382.277C168.475 379.183 166.55 376.088 163.451 375.364C160.351 374.64 157.251 376.562 156.526 379.656C155.801 382.75 157.725 385.845 160.825 386.568C163.924 387.292 167.025 385.371 167.75 382.277Z" fill="white"/>
<path d="M212.543 188.31C213.268 185.216 211.343 182.121 208.244 181.398C205.144 180.674 202.044 182.595 201.319 185.689C200.594 188.783 202.518 191.878 205.618 192.602C208.717 193.325 211.818 191.404 212.543 188.31Z" fill="white"/>
<path d="M410.773 410.737C413.957 410.737 416.537 408.161 416.537 404.984C416.537 401.806 413.957 399.23 410.773 399.23C407.59 399.23 405.01 401.806 405.01 404.984C405.01 408.161 407.59 410.737 410.773 410.737Z" fill="white"/>
<path d="M443.648 224.065C445.791 224.065 447.529 222.331 447.529 220.192C447.529 218.053 445.791 216.318 443.648 216.318C441.505 216.318 439.768 218.053 439.768 220.192C439.768 222.331 441.505 224.065 443.648 224.065Z" fill="white"/>
<path d="M183.919 277.471C183.376 277.471 182.834 277.243 182.463 276.787C181.779 275.99 181.893 274.794 182.692 274.11L203.121 257.078C203.92 256.394 205.118 256.508 205.803 257.306C206.488 258.103 206.374 259.299 205.575 259.983L185.145 277.015C184.803 277.329 184.347 277.471 183.919 277.471Z" fill="white"/>
<path d="M391.831 324.806C391.517 324.806 391.203 324.721 390.89 324.55C389.976 324.037 389.634 322.87 390.148 321.958L415.456 276.9C415.97 275.988 417.14 275.646 418.053 276.159C418.966 276.672 419.308 277.839 418.795 278.751L393.486 323.838C393.144 324.465 392.487 324.806 391.831 324.806Z" fill="white"/>
<path d="M375.631 238.706C375.031 238.706 374.432 238.421 374.09 237.908C373.69 237.367 373.633 236.627 373.919 236.029L381.737 218.797C381.993 218.199 382.564 217.8 383.22 217.686C383.877 217.601 384.504 217.857 384.932 218.341L397.829 233.608C398.286 234.149 398.4 234.889 398.143 235.544C397.886 236.2 397.258 236.655 396.545 236.712L375.83 238.649C375.745 238.706 375.688 238.706 375.631 238.706ZM383.934 223.098L378.712 234.576L392.522 233.266L383.934 223.098Z" fill="white"/>
<path d="M384.129 440.16L380.163 449.531C379.763 450.47 380.505 451.524 381.532 451.41L390.834 450.584C391.861 450.499 392.403 449.36 391.861 448.505L386.526 439.961C385.955 439.049 384.557 439.163 384.129 440.16Z" fill="white"/>
<path d="M239.939 197.472L218.869 208.014L220.582 211.426L241.652 200.884L239.939 197.472Z" fill="white"/>
<path d="M360.278 203.274C359.593 203.274 358.936 202.903 358.594 202.277L346.268 179.662C345.754 178.751 346.097 177.583 347.038 177.07C347.951 176.557 349.121 176.899 349.635 177.839L361.961 200.454C362.475 201.365 362.132 202.533 361.191 203.046C360.877 203.188 360.563 203.274 360.278 203.274Z" fill="white"/>
<path d="M367.569 304.271V361.834C367.569 369.268 360.122 376.36 353.702 381.116C347.91 385.388 344.543 392.167 344.543 399.345C344.543 428.539 344.486 472.999 344.486 472.999H254.408L259.429 383.423L238.115 304.271H367.569" fill="#FF8C8C"/>
<path d="M197.227 247.022C204.332 239.076 217.914 231.784 228.614 231.585C228.671 229.733 227.044 225.774 223.649 224.92C223.078 224.778 222.479 224.749 221.908 224.778C211.151 225.66 201.393 229.135 194.973 237.338C192.206 241.212 195.63 245.712 197.227 247.022Z" fill="#1A1A1A"/>
<path d="M402.487 247.022C395.383 239.076 381.801 231.784 371.101 231.585C371.044 229.733 372.67 225.774 376.066 224.92C376.636 224.778 377.236 224.749 377.806 224.778C388.563 225.66 398.322 229.135 404.741 237.338C407.538 241.212 404.114 245.712 402.487 247.022Z" fill="#1A1A1A"/>
<path d="M430.883 348.046C432.316 334.692 429.927 326.107 427.061 312.277L416.445 274.651C416.445 274.252 416.474 273.825 416.474 273.426C416.474 270.265 416.16 267.189 415.532 264.226L415.504 263.97L415.475 263.999C411.109 243.605 392.991 228.311 371.249 228.311C371.021 228.311 370.792 228.311 370.593 228.311H225.275V228.368C204.56 229.364 187.497 244.289 183.274 263.97C182.618 267.018 182.276 270.179 182.276 273.426C182.276 273.939 182.276 274.423 182.304 274.907C178.913 302.599 176.156 318.197 177.767 345.457C176.455 360.325 188.182 373.142 203.162 373.142C210.523 373.142 217.514 369.952 222.364 364.426C222.364 364.426 262.51 321.447 262.539 321.418H336.239C336.268 321.447 376.442 364.426 376.442 364.426C381.293 369.952 388.283 373.142 395.645 373.142C410.358 373.289 428.477 370.461 430.883 348.046Z" fill="#F2F2F2"/>
<path d="M286.562 306.859C289.662 299.389 286.108 290.825 278.625 287.731C271.141 284.637 262.562 288.184 259.462 295.654C256.362 303.124 259.916 311.688 267.399 314.782C274.883 317.877 283.462 314.329 286.562 306.859Z" fill="#F2F2F2"/>
<path d="M328.447 315.701C336.442 314.406 341.872 306.886 340.574 298.905C339.277 290.924 331.743 285.504 323.748 286.799C315.753 288.095 310.323 295.614 311.621 303.595C312.919 311.577 320.452 316.996 328.447 315.701Z" fill="#F2F2F2"/>
<path d="M395.646 373.141C398.271 373.141 400.782 372.743 403.15 372.031L366.628 334.292C358.667 326.061 347.682 321.418 336.24 321.418C336.297 321.503 376.443 364.426 376.443 364.426C381.294 369.951 388.284 373.141 395.646 373.141Z" fill="#CCCCCC"/>
<path d="M195.518 371.972C197.914 372.741 200.511 373.14 203.164 373.14C210.526 373.14 217.516 369.95 222.367 364.425C222.367 364.425 259.603 324.55 262.37 321.588L262.456 321.303C250.986 321.303 240.029 325.945 232.068 334.177L195.518 371.972Z" fill="#CCCCCC"/>
<path d="M272.983 312.216C279.05 312.216 283.968 307.307 283.968 301.251C283.968 295.195 279.05 290.285 272.983 290.285C266.916 290.285 261.998 295.195 261.998 301.251C261.998 307.307 266.916 312.216 272.983 312.216Z" fill="#1A1A1A"/>
<path d="M272.983 312.217C279.06 312.217 283.968 307.318 283.968 301.252C283.968 300.511 283.882 299.771 283.74 299.059C276.835 303.217 269.844 305.011 262.568 304.755C264.052 309.084 268.161 312.217 272.983 312.217Z" fill="#231F20"/>
<path d="M376.025 269.981C381.254 268.748 384.493 263.517 383.258 258.297C382.023 253.077 376.783 249.844 371.553 251.077C366.323 252.309 363.085 257.54 364.32 262.761C365.555 267.981 370.795 271.214 376.025 269.981Z" fill="#BCBEC0"/>
<path d="M382.829 296.728C384.886 291.772 382.528 286.091 377.563 284.038C372.599 281.985 366.907 284.339 364.851 289.294C362.794 294.25 365.152 299.932 370.116 301.985C375.081 304.037 380.773 301.684 382.829 296.728Z" fill="#BCBEC0"/>
<path d="M393.228 286.196C398.457 284.963 401.696 279.732 400.461 274.512C399.226 269.291 393.986 266.059 388.756 267.292C383.527 268.524 380.288 273.755 381.523 278.976C382.758 284.196 387.998 287.428 393.228 286.196Z" fill="#BCBEC0"/>
<path d="M358.826 286.993C364.055 285.76 367.293 280.529 366.059 275.309C364.824 270.088 359.583 266.856 354.354 268.088C349.124 269.321 345.886 274.552 347.121 279.772C348.356 284.993 353.596 288.225 358.826 286.993Z" fill="#BCBEC0"/>
<path d="M297.471 266.674H293.761C292.535 266.674 291.564 267.671 291.564 268.867C291.564 270.092 292.563 271.06 293.761 271.06H297.471C298.698 271.06 299.668 270.063 299.668 268.867C299.696 267.642 298.698 266.674 297.471 266.674Z" fill="#BCBEC0"/>
<path d="M309.705 266.674H305.996C304.769 266.674 303.799 267.671 303.799 268.867C303.799 270.092 304.797 271.06 305.996 271.06H309.705C310.932 271.06 311.902 270.063 311.902 268.867C311.902 267.642 310.932 266.674 309.705 266.674Z" fill="#BCBEC0"/>
<path d="M245.393 271.8H235.691V262.116C235.691 257.958 232.296 254.568 228.13 254.568C223.964 254.568 220.569 257.958 220.569 262.116V271.8H210.868C206.702 271.8 203.307 275.189 203.307 279.348C203.307 283.506 206.702 286.896 210.868 286.896H220.569V296.579C220.569 300.738 223.964 304.127 228.13 304.127C232.296 304.127 235.691 300.738 235.691 296.579V286.896H245.393C249.558 286.896 252.954 283.506 252.954 279.348C252.954 275.189 249.558 271.8 245.393 271.8Z" fill="#BCBEC0"/>
<path d="M351.45 312.591C327.769 289.976 317.84 295.021 317.84 295.021C317.84 295.021 317.84 295.021 317.81 294.992C316.946 295.311 316.206 295.717 315.682 296.21C315.62 296.268 315.559 296.326 315.497 296.413C311.828 299.892 318.272 306.416 321.972 309.866C336.187 323.087 369.242 353.82 383.117 366.635C393.879 376.58 404.825 382.292 415.741 383.683L423.788 376.203L424.189 366.055C423.295 366.2 422.37 366.287 421.383 366.316C421.26 366.316 420.952 364.722 420.828 364.751C413.243 367.244 405.041 362.054 396.315 353.994L351.45 312.591Z" fill="#FF8641"/>
<path d="M373.928 219.78C367.977 221.056 361.686 223.202 354.903 226.217C335.6 234.886 306.77 259.27 269.213 298.73C244.638 324.534 224.102 348.744 219.785 353.846C219.508 354.194 219.199 354.484 218.86 354.803C210.35 362.342 202.024 366.256 194.717 366.14C187.532 366.024 183.092 362.139 182.475 361.559L182.074 361.182C177.912 357.384 175.044 343.409 180.656 316.445C184.942 295.888 193.606 271.911 201.685 258.168C217.041 232.103 227.956 235.814 251.637 244.773C256.17 246.483 255.338 236.684 255.677 233.349L223.794 218.766C222.159 218.998 220.587 219.317 219.014 219.722C205.971 223.115 195.241 232.625 185.25 249.615C176.185 265.01 166.934 290.496 162.217 313.024C155.896 343.351 158.116 363.762 168.815 373.707C170.48 375.36 178.251 382.347 191.016 383.623C200.205 382.84 220.433 378.984 237.762 361.066C245.347 352.194 262.923 331.898 283.335 310.443C327.984 263.561 351.326 247.44 363.012 242.192C375.408 236.626 386.231 235.872 391.781 239.96C394.772 242.163 399.798 239.844 403.036 242.743L407.784 239.09L373.928 219.78Z" fill="#AF42AE"/>
<path d="M250.839 267.298H242.143V259.122C242.143 254.541 238.196 250.83 233.324 250.83H233.139C228.268 250.83 224.321 254.541 224.321 259.122V267.298H215.625C210.753 267.298 206.807 271.01 206.807 275.591V275.765C206.807 280.345 210.753 284.057 215.625 284.057H224.321V292.233C224.321 296.814 228.268 300.525 233.139 300.525H233.324C238.196 300.525 242.143 296.814 242.143 292.233V284.057H250.839C255.71 284.057 259.657 280.345 259.657 275.765V275.591C259.657 271.039 255.71 267.298 250.839 267.298Z" fill="#FF8641"/>
<path d="M378.381 267.18C382.944 265.403 385.111 260.484 383.221 256.194C381.331 251.904 376.1 249.866 371.537 251.644C366.974 253.421 364.808 258.339 366.698 262.63C368.588 266.92 373.818 268.957 378.381 267.18Z" fill="#AF42AE"/>
<path d="M383.764 293.357C384.555 288.773 381.244 284.454 376.369 283.711C371.495 282.967 366.901 286.079 366.11 290.663C365.319 295.247 368.63 299.566 373.504 300.31C378.379 301.054 382.973 297.941 383.764 293.357Z" fill="#AF42AE"/>
<path d="M357.616 284.115C362.554 284.115 366.558 280.351 366.558 275.707C366.558 271.063 362.554 267.299 357.616 267.299C352.677 267.299 348.674 271.063 348.674 275.707C348.674 280.351 352.677 284.115 357.616 284.115Z" fill="#AF42AE"/>
<path d="M392.303 284.115C397.242 284.115 401.245 280.351 401.245 275.707C401.245 271.063 397.242 267.299 392.303 267.299C387.365 267.299 383.361 271.063 383.361 275.707C383.361 280.351 387.365 284.115 392.303 284.115Z" fill="#AF42AE"/>
<path d="M446.112 311.255C440.624 287.509 430.664 263.995 423.202 249.933C414.383 233.32 403.529 223.491 390.055 219.896C377.875 216.649 363.814 218.707 347.102 226.217C327.799 234.886 298.969 259.269 261.412 298.729C236.837 324.534 216.301 348.743 211.984 353.846C211.707 354.194 211.398 354.484 211.059 354.803C202.549 362.341 194.224 366.255 186.916 366.139C179.731 366.023 175.291 362.138 174.674 361.558L174.274 361.181C170.111 357.383 167.243 343.408 172.855 316.444C177.141 295.888 185.806 271.91 193.884 258.167C209.24 232.102 222.16 232.189 245.317 242.25C257.959 247.73 269.738 250.745 278.587 252.398C280.499 252.746 282.442 252.195 283.829 250.919C285.957 248.976 288.023 247.063 290.089 245.236C293.604 242.105 291.754 236.538 286.974 235.813C286.913 235.813 286.851 235.784 286.789 235.784C278.896 234.625 266.623 231.957 253.241 226.159C235.912 218.62 222.931 216.649 211.213 219.693C198.17 223.085 187.44 232.595 177.449 249.585C168.384 265.01 159.103 290.495 154.416 313.023C148.095 343.35 150.315 363.762 161.015 373.707C162.803 375.475 171.591 383.361 186.022 383.796C199.065 384.173 212.231 378.404 225.12 366.632C225.428 366.342 225.706 366.052 225.952 365.762C226.168 365.501 248.338 339.001 275.504 310.472C320.183 263.56 343.494 247.44 355.211 242.192C367.607 236.625 377.32 234.886 384.905 236.915C393.015 239.09 400.045 245.932 406.366 257.82C413.026 270.345 422.616 292.815 427.735 314.995C432.915 337.465 432.175 354.426 425.7 361.587C425.669 361.616 425.638 361.645 425.607 361.674L425.7 361.587C425.114 362.138 420.704 366.139 413.551 366.255C413.427 366.255 413.304 366.255 413.181 366.255C405.749 366.255 397.208 361.993 388.482 353.933C374.576 341.06 341.274 310.124 327.183 297.019C323.606 293.684 317.84 293.713 314.294 297.077C314.232 297.135 314.17 297.193 314.078 297.28C310.409 300.759 310.439 306.355 314.14 309.805C328.354 323.026 361.409 353.759 375.285 366.574C387.773 378.114 400.508 383.97 413.15 383.97C413.612 383.97 414.075 383.97 414.507 383.941C429.862 383.419 438.804 374.373 439.76 373.33L439.822 373.272C450.768 361.442 452.896 340.567 446.112 311.255Z" fill="url(#paint1_linear)"/>
<path d="M291.151 253.799C282.705 253.799 275.857 246.964 275.857 238.533V211.731C275.857 203.301 282.705 196.465 291.151 196.465C299.597 196.465 306.445 203.301 306.445 211.731V238.533C306.445 246.964 299.597 253.799 291.151 253.799Z" fill="#FFA8A8"/>
<path d="M260.534 243.803C252.088 243.803 245.24 236.967 245.24 228.536V211.761C245.24 203.33 252.088 196.494 260.534 196.494C268.98 196.494 275.828 203.33 275.828 211.761V228.536C275.828 236.967 268.98 243.803 260.534 243.803Z" fill="#FFA8A8"/>
<path d="M321.772 253.799C313.326 253.799 306.479 246.963 306.479 238.533V221.757C306.479 213.326 313.326 206.49 321.772 206.49C330.218 206.49 337.066 213.326 337.066 221.757V238.533C337.066 246.963 330.218 253.799 321.772 253.799Z" fill="#FFA8A8"/>
<path d="M352.358 251.321C343.912 251.321 337.064 244.486 337.064 236.055V229.276C337.064 220.845 343.912 214.01 352.358 214.01C360.804 214.01 367.652 220.845 367.652 229.276V236.026C367.68 244.457 360.832 251.321 352.358 251.321Z" fill="#FFA8A8"/>
<g opacity="0.6">
<path opacity="0.6" d="M306.443 226.885C306.443 218.455 313.291 211.619 321.737 211.619C330.183 211.619 337.031 218.455 337.031 226.885V221.759C337.031 213.328 330.183 206.492 321.737 206.492C313.291 206.492 306.443 213.328 306.443 221.759V226.885Z" fill="#FFEDED"/>
</g>
<g opacity="0.6">
<path opacity="0.6" d="M260.534 201.594C268.98 201.594 275.828 208.429 275.828 216.86C275.828 208.429 282.676 201.594 291.121 201.594C299.567 201.594 306.415 208.429 306.415 216.86V211.733C306.415 203.302 299.567 196.467 291.121 196.467C282.676 196.467 275.828 203.302 275.828 211.733C275.828 203.302 268.98 196.467 260.534 196.467C252.088 196.467 245.24 203.302 245.24 211.733V216.86C245.212 208.429 252.088 201.594 260.534 201.594Z" fill="#FFEDED"/>
</g>
<g opacity="0.6">
<path opacity="0.6" d="M352.358 213.982C343.912 213.982 337.064 220.818 337.064 229.249V234.376C337.064 225.945 343.912 219.109 352.358 219.109C360.804 219.109 367.652 225.945 367.652 234.376V229.249C367.68 220.818 360.832 213.982 352.358 213.982Z" fill="#FFEDED"/>
</g>
<path d="M266.796 234.831C263.115 234.319 256.724 234.319 253.072 234.831C251.616 235.031 250.275 234.062 250.275 232.809V228.167C250.275 225.603 269.592 225.603 269.592 228.167V232.809C269.564 234.062 268.251 235.031 266.796 234.831Z" fill="#FFC4C4"/>
<path d="M298.155 244.117C294.475 243.604 288.083 243.604 284.431 244.117C282.976 244.316 281.635 243.348 281.635 242.094V237.452C281.635 234.888 300.952 234.888 300.952 237.452V242.094C300.952 243.348 299.611 244.316 298.155 244.117Z" fill="#FFC4C4"/>
<path d="M328.503 244.117C324.822 243.604 318.431 243.604 314.779 244.117C313.323 244.316 311.982 243.348 311.982 242.094V237.452C311.982 234.888 331.299 234.888 331.299 237.452V242.094C331.299 243.348 329.958 244.316 328.503 244.117Z" fill="#FFC4C4"/>
<path d="M358.862 241.096C355.182 240.583 348.79 240.583 345.138 241.096C343.683 241.295 342.342 240.327 342.342 239.074V234.46C342.342 231.896 361.659 231.896 361.659 234.46V239.074C361.659 240.327 360.318 241.295 358.862 241.096Z" fill="#FFC4C4"/>
<path d="M286.766 322.102C296.173 322.102 303.783 314.476 303.783 305.05C303.783 295.624 296.173 287.998 286.766 287.998H249.997C238.937 287.998 228.476 293.368 222.035 302.394C221.237 303.508 220.495 304.679 219.84 305.878C214.082 316.418 214.738 329.271 221.18 339.382L242.614 372.943C249.455 383.683 252.762 396.279 252.077 408.989L250.88 472.998H311.907C311.907 466.2 312.904 398.707 312.904 381.055C312.904 357.319 298.396 342.895 285.341 337.611C248.771 322.787 286.766 322.102 286.766 322.102Z" fill="#FFA8A8"/>
<path d="M286.536 288.49H278.746V291.31C278.746 297.234 283.54 302.019 289.474 302.019H303.227C301.601 294.272 294.753 288.49 286.536 288.49Z" fill="#FFC4C4"/>
<g opacity="0.6">
<path opacity="0.6" d="M302.312 350.782C301.285 349.5 300.172 348.332 299.059 347.221C298.689 346.851 298.289 346.481 297.918 346.139C296.577 344.914 295.179 343.775 293.752 342.778C293.153 342.351 292.525 341.924 291.926 341.525C291.099 341.012 290.271 340.5 289.444 340.044C289.244 339.93 289.044 339.816 288.816 339.702C287.589 339.047 286.334 338.477 285.107 337.965C270.869 332.211 267.902 328.594 269.613 326.316C269.613 326.316 269.585 326.316 269.585 326.287C265.02 328.338 262.452 334.262 285.107 344.202C297.775 349.756 312.156 363.314 312.698 386.213C312.698 386.1 312.698 386.014 312.698 385.9C312.698 385.815 312.698 385.729 312.698 385.644C312.698 385.53 312.698 385.444 312.698 385.33C312.698 385.188 312.698 385.074 312.698 384.96C312.698 384.903 312.698 384.818 312.698 384.761C312.698 384.618 312.698 384.476 312.698 384.334C312.698 384.277 312.698 384.191 312.698 384.134C312.698 383.992 312.698 383.849 312.698 383.707C312.698 383.622 312.698 383.508 312.698 383.422C312.698 383.28 312.698 383.166 312.698 383.023C312.698 382.966 312.698 382.91 312.698 382.853C312.698 382.739 312.698 382.625 312.698 382.511C312.698 382.425 312.698 382.34 312.698 382.254C312.698 382.169 312.698 382.084 312.698 381.998C312.698 381.913 312.698 381.827 312.698 381.77C312.698 381.656 312.698 381.571 312.698 381.457C312.698 381.4 312.698 381.343 312.698 381.315C312.698 369.096 308.846 359.383 303.311 352.092C302.997 351.636 302.655 351.209 302.312 350.782Z" fill="#FFEDED"/>
</g>
<g opacity="0.6">
<path opacity="0.6" d="M251.837 409.029C251.837 409.086 251.837 409.143 251.837 409.172L250.639 473H250.753L251.837 415.438C251.951 413.302 251.951 411.137 251.837 409.029Z" fill="#FFEDED"/>
</g>
<g opacity="0.6">
<path opacity="0.6" d="M219.565 312.588C220.221 311.392 220.963 310.224 221.762 309.113C228.21 300.113 238.653 294.758 249.753 294.758H286.56C294.892 294.758 301.825 300.739 303.309 308.629C303.509 307.604 303.594 306.578 303.594 305.496C303.594 296.097 295.976 288.492 286.56 288.492H249.753C238.682 288.492 228.21 293.847 221.762 302.847C220.963 303.958 220.221 305.126 219.565 306.322C216.398 312.104 215.171 318.569 215.77 324.921C216.198 320.648 217.425 316.462 219.565 312.588Z" fill="#FFEDED"/>
</g>
<path d="M344.545 444.517H250.329C248.047 444.517 246.221 442.666 246.221 440.416V429.82C246.221 427.542 248.075 425.719 250.329 425.719H344.545C346.828 425.719 348.654 427.57 348.654 429.82V440.416C348.654 442.666 346.799 444.517 344.545 444.517Z" fill="#333A62"/>
<path d="M310.422 437.681C311.84 437.681 312.989 436.534 312.989 435.118C312.989 433.702 311.84 432.555 310.422 432.555C309.003 432.555 307.854 433.702 307.854 435.118C307.854 436.534 309.003 437.681 310.422 437.681Z" fill="#7DADFF"/>
<path d="M302.144 437.681C303.562 437.681 304.712 436.534 304.712 435.118C304.712 433.702 303.562 432.555 302.144 432.555C300.726 432.555 299.576 433.702 299.576 435.118C299.576 436.534 300.726 437.681 302.144 437.681Z" fill="#7DADFF"/>
<path d="M293.871 437.681C295.289 437.681 296.439 436.534 296.439 435.118C296.439 433.702 295.289 432.555 293.871 432.555C292.452 432.555 291.303 433.702 291.303 435.118C291.303 436.534 292.452 437.681 293.871 437.681Z" fill="#7DADFF"/>
<path d="M344.548 425.719H318.982V444.517H344.548C346.831 444.517 348.657 442.666 348.657 440.416V429.82C348.657 427.57 346.802 425.719 344.548 425.719Z" fill="#1D202E"/>
<defs>
<linearGradient id="paint0_linear" x1="66.5017" y1="667.511" x2="733.052" y2="385.825" gradientUnits="userSpaceOnUse">
<stop offset="0.02" stop-color="#00E47D"/>
<stop offset="0.67" stop-color="#DBEA7C"/>
<stop offset="1" stop-color="#FF8641"/>
</linearGradient>
<linearGradient id="paint1_linear" x1="150.904" y1="301.147" x2="449.99" y2="301.147" gradientUnits="userSpaceOnUse">
<stop offset="0.02" stop-color="#00E47D"/>
<stop offset="0.67" stop-color="#DBEA7C"/>
<stop offset="1" stop-color="#FF8641"/>
</linearGradient>
</defs>
</svg>
