<svg width="320" height="233" viewBox="0 0 320 233" fill="none" xmlns="http://www.w3.org/2000/svg">
<rect width="320" height="233" fill="url(#paint0_linear)"/>
<g opacity="0.3">
<path d="M108.319 208.555C104.685 208.555 101.73 205.601 101.73 201.967C101.73 198.333 104.685 195.378 108.319 195.378C111.953 195.378 114.908 198.333 114.908 201.967C114.908 205.601 111.953 208.555 108.319 208.555ZM108.319 197.479C105.854 197.479 103.832 199.486 103.832 201.967C103.832 204.447 105.839 206.454 108.319 206.454C110.784 206.454 112.807 204.447 112.807 201.967C112.807 199.486 110.784 197.479 108.319 197.479Z" fill="#949494"/>
<path d="M123.156 183.054C118.337 183.054 114.402 179.135 114.402 174.3C114.402 169.481 118.321 165.547 123.156 165.547C127.975 165.547 131.909 169.465 131.909 174.3C131.909 179.119 127.991 183.054 123.156 183.054ZM123.156 167.664C119.49 167.664 116.52 170.635 116.52 174.3C116.52 177.966 119.49 180.937 123.156 180.937C126.821 180.937 129.792 177.966 129.792 174.3C129.792 170.635 126.821 167.664 123.156 167.664Z" fill="#949494"/>
<path d="M213.218 77.5069C208.399 77.5069 204.465 73.5884 204.465 68.7535C204.465 63.9185 208.383 60 213.218 60C218.053 60 221.972 63.9185 221.972 68.7535C221.972 73.5884 218.053 77.5069 213.218 77.5069ZM213.218 62.1173C209.553 62.1173 206.582 65.0877 206.582 68.7535C206.582 72.4192 209.553 75.3896 213.218 75.3896C216.884 75.3896 219.854 72.4192 219.854 68.7535C219.854 65.0877 216.884 62.1173 213.218 62.1173Z" fill="#949494"/>
<path d="M87.099 99.5166C86.8778 99.5166 86.6724 99.4534 86.4827 99.327C86.2615 99.169 86.1035 98.9162 86.0561 98.6476L84.0653 86.8763C83.9705 86.3075 84.3497 85.7545 84.9343 85.6597L96.7056 83.6688C97.2745 83.574 97.8275 83.9532 97.9223 84.5378L99.9131 96.3092C100.008 96.878 99.6287 97.431 99.0441 97.5258L87.2728 99.5166C87.2254 99.5008 87.1622 99.5166 87.099 99.5166ZM86.3247 87.5557L87.968 97.2414L97.6537 95.5981L96.0104 85.9125L86.3247 87.5557Z" fill="#949494"/>
<path d="M203.689 185.645C203.183 185.645 202.741 185.282 202.646 184.76L200.655 172.989C200.56 172.42 200.94 171.867 201.524 171.772L213.295 169.782C213.864 169.687 214.417 170.066 214.512 170.651L216.503 182.422C216.598 182.991 216.219 183.544 215.634 183.639L203.863 185.629C203.799 185.645 203.752 185.645 203.689 185.645ZM202.915 173.684L204.558 183.37L214.243 181.727L212.6 172.041L202.915 173.684Z" fill="#949494"/>
<path d="M88.0927 168.849C87.6818 168.849 87.3026 168.612 87.1288 168.217L78.5176 148.688C78.2806 148.151 78.5176 147.534 79.0548 147.297C79.592 147.06 80.2082 147.297 80.4452 147.835L89.0565 167.364C89.2935 167.901 89.0565 168.517 88.5193 168.754C88.3771 168.818 88.2349 168.849 88.0927 168.849Z" fill="#949494"/>
<path d="M194.35 194.193H191.031V197.512H194.35V194.193Z" fill="#949494"/>
<path d="M203.166 127.989H199.848V131.308H203.166V127.989Z" fill="#949494"/>
<path d="M93.3832 133.915H90.918V136.38H93.3832V133.915Z" fill="#949494"/>
<path d="M119.961 107.18H117.496V109.645H119.961V107.18Z" fill="#949494"/>
<path d="M86.6457 181.644C87.0472 179.927 85.9814 178.21 84.265 177.809C82.5486 177.407 80.8317 178.473 80.4302 180.19C80.0286 181.906 81.0945 183.623 82.8109 184.024C84.5272 184.426 86.2441 183.36 86.6457 181.644Z" fill="#949494"/>
<path d="M111.454 74.0407C111.856 72.3244 110.79 70.6075 109.074 70.2059C107.357 69.8044 105.64 70.8702 105.239 72.5866C104.837 74.303 105.903 76.0199 107.619 76.4214C109.336 76.823 111.053 75.7571 111.454 74.0407Z" fill="#949494"/>
<path d="M221.223 197.432C222.986 197.432 224.415 196.003 224.415 194.241C224.415 192.478 222.986 191.049 221.223 191.049C219.46 191.049 218.031 192.478 218.031 194.241C218.031 196.003 219.46 197.432 221.223 197.432Z" fill="#949494"/>
<path d="M239.427 93.8765C240.614 93.8765 241.576 92.9143 241.576 91.7273C241.576 90.5404 240.614 89.5781 239.427 89.5781C238.24 89.5781 237.277 90.5404 237.277 91.7273C237.277 92.9143 238.24 93.8765 239.427 93.8765Z" fill="#949494"/>
<path d="M95.5978 123.503C95.2976 123.503 94.9974 123.376 94.792 123.123C94.4128 122.681 94.476 122.017 94.9184 121.638L106.231 112.189C106.674 111.81 107.338 111.873 107.717 112.316C108.096 112.758 108.033 113.422 107.59 113.801L96.2772 123.25C96.0876 123.424 95.8348 123.503 95.5978 123.503Z" fill="#949494"/>
<path d="M210.733 149.762C210.559 149.762 210.385 149.714 210.211 149.62C209.706 149.335 209.516 148.687 209.801 148.182L223.816 123.186C224.1 122.68 224.748 122.49 225.253 122.775C225.759 123.059 225.949 123.707 225.664 124.213L211.649 149.225C211.46 149.572 211.096 149.762 210.733 149.762Z" fill="#949494"/>
<path d="M201.762 101.997C201.43 101.997 201.098 101.839 200.908 101.555C200.687 101.255 200.656 100.844 200.814 100.512L205.143 90.9529C205.285 90.6211 205.601 90.3999 205.965 90.3367C206.328 90.2893 206.676 90.4315 206.913 90.7001L214.054 99.1691C214.307 99.4693 214.37 99.8801 214.228 100.244C214.086 100.607 213.738 100.86 213.343 100.891L201.872 101.966C201.825 101.997 201.793 101.997 201.762 101.997ZM206.36 93.3387L203.468 99.7063L211.115 98.9795L206.36 93.3387Z" fill="#949494"/>
<path d="M206.472 213.754L204.276 218.953C204.055 219.474 204.465 220.059 205.034 219.995L210.185 219.537C210.754 219.49 211.054 218.858 210.754 218.384L207.799 213.644C207.483 213.138 206.709 213.201 206.472 213.754Z" fill="#949494"/>
<path d="M126.621 79.123L114.953 84.9712L115.902 86.864L127.57 81.0158L126.621 79.123Z" fill="#949494"/>
<path d="M193.261 82.3419C192.882 82.3419 192.519 82.1365 192.329 81.7888L185.503 69.2433C185.219 68.7377 185.408 68.0899 185.93 67.8054C186.435 67.521 187.083 67.7106 187.368 68.2321L194.193 80.7776C194.478 81.2832 194.288 81.931 193.767 82.2155C193.593 82.2945 193.419 82.3419 193.261 82.3419Z" fill="#949494"/>
</g>
<path d="M197.255 141.477V172.701C197.255 176.733 193.222 180.58 189.746 183.16C186.61 185.477 184.787 189.154 184.787 193.048C184.787 208.883 184.756 233 184.756 233H135.982L138.701 184.411L127.16 141.477H197.255Z" fill="#FF8C8C"/>
<path d="M105.017 110.424C108.864 106.113 116.218 102.158 122.012 102.05C122.042 101.046 121.162 98.8982 119.323 98.4347C119.014 98.3574 118.69 98.342 118.381 98.3574C112.556 98.8364 107.273 100.721 103.797 105.171C102.298 107.272 104.152 109.713 105.017 110.424Z" fill="#1A1A1A"/>
<path d="M216.155 110.424C212.308 106.113 204.955 102.158 199.161 102.05C199.13 101.046 200.011 98.8982 201.849 98.4347C202.158 98.3574 202.483 98.342 202.792 98.3574C208.616 98.8364 213.9 100.721 217.376 105.171C218.89 107.272 217.036 109.713 216.155 110.424Z" fill="#1A1A1A"/>
<path d="M226.187 163.817L223.715 125.41C223.715 125.194 223.731 124.962 223.731 124.745C223.731 123.031 223.561 121.362 223.221 119.755L223.205 119.616L223.19 119.632C220.826 108.57 211.016 100.273 199.243 100.273C199.12 100.273 198.996 100.273 198.888 100.273H120.204V100.304C108.987 100.845 99.7484 108.941 97.4619 119.616C97.1066 121.269 96.9212 122.984 96.9212 124.745C96.9212 125.024 96.9212 125.286 96.9366 125.549L94.4801 163.817C93.7694 171.882 100.119 178.834 108.23 178.834C112.216 178.834 116.001 177.104 118.628 174.107C118.628 174.107 140.365 150.793 140.381 150.778H180.287C180.302 150.793 202.055 174.107 202.055 174.107C204.681 177.104 208.467 178.834 212.453 178.834C220.548 178.834 226.913 171.882 226.187 163.817Z" fill="#F2F2F2"/>
<path d="M153.388 142.88C155.067 138.829 153.143 134.183 149.091 132.505C145.039 130.826 140.393 132.75 138.715 136.802C137.036 140.854 138.961 145.5 143.013 147.178C147.064 148.857 151.71 146.932 153.388 142.88Z" fill="#F2F2F2"/>
<path d="M176.067 147.677C180.396 146.974 183.336 142.895 182.633 138.566C181.93 134.237 177.851 131.297 173.522 132C169.193 132.702 166.253 136.781 166.956 141.111C167.658 145.44 171.737 148.38 176.067 147.677Z" fill="#F2F2F2"/>
<path d="M212.451 178.834C213.872 178.834 215.232 178.618 216.514 178.232L196.739 157.761C192.428 153.296 186.48 150.778 180.285 150.778C180.316 150.824 202.054 174.107 202.054 174.107C204.68 177.104 208.465 178.834 212.451 178.834Z" fill="#CCCCCC"/>
<path d="M104.09 178.201C105.388 178.618 106.794 178.834 108.23 178.834C112.216 178.834 116.001 177.104 118.628 174.107C118.628 174.107 138.789 152.478 140.288 150.871L140.334 150.716C134.124 150.716 128.191 153.235 123.881 157.699L104.09 178.201Z" fill="#CCCCCC"/>
<path d="M146.038 145.787C149.323 145.787 151.986 143.124 151.986 139.839C151.986 136.554 149.323 133.891 146.038 133.891C142.753 133.891 140.09 136.554 140.09 139.839C140.09 143.124 142.753 145.787 146.038 145.787Z" fill="#1A1A1A"/>
<path d="M146.038 145.788C149.328 145.788 151.986 143.13 151.986 139.84C151.986 139.438 151.939 139.036 151.862 138.65C148.123 140.906 144.338 141.879 140.398 141.74C141.202 144.088 143.427 145.788 146.038 145.788Z" fill="#231F20"/>
<path d="M174.784 145.787C178.069 145.787 180.732 143.124 180.732 139.839C180.732 136.554 178.069 133.891 174.784 133.891C171.499 133.891 168.836 136.554 168.836 139.839C168.836 143.124 171.499 145.787 174.784 145.787Z" fill="#1A1A1A"/>
<path d="M174.787 145.788C178.078 145.788 180.736 143.131 180.736 139.84C180.736 139.438 180.689 139.037 180.612 138.65C176.873 140.906 173.088 141.879 169.148 141.74C169.952 144.089 172.177 145.788 174.787 145.788Z" fill="#231F20"/>
<path d="M202.111 124.217C204.943 123.548 206.696 120.711 206.027 117.879C205.359 115.048 202.521 113.294 199.69 113.963C196.858 114.631 195.105 117.469 195.773 120.3C196.442 123.132 199.279 124.885 202.111 124.217Z" fill="#BCBEC0"/>
<path d="M205.782 137.915C206.896 135.227 205.619 132.145 202.931 131.032C200.243 129.918 197.161 131.195 196.047 133.883C194.934 136.571 196.21 139.653 198.899 140.767C201.587 141.88 204.669 140.604 205.782 137.915Z" fill="#BCBEC0"/>
<path d="M210.517 132.619C213.349 131.95 215.102 129.113 214.434 126.281C213.765 123.449 210.927 121.696 208.096 122.365C205.264 123.033 203.511 125.871 204.179 128.702C204.848 131.534 207.686 133.287 210.517 132.619Z" fill="#BCBEC0"/>
<path d="M193.716 132.622C196.548 131.954 198.301 129.116 197.633 126.284C196.964 123.453 194.127 121.699 191.295 122.368C188.463 123.037 186.71 125.874 187.379 128.706C188.047 131.537 190.885 133.291 193.716 132.622Z" fill="#BCBEC0"/>
<path d="M159.292 121.083H157.283C156.619 121.083 156.094 121.624 156.094 122.273C156.094 122.937 156.634 123.463 157.283 123.463H159.292C159.956 123.463 160.481 122.922 160.481 122.273C160.497 121.609 159.956 121.083 159.292 121.083Z" fill="#BCBEC0"/>
<path d="M165.921 121.083H163.912C163.248 121.083 162.723 121.624 162.723 122.273C162.723 122.937 163.263 123.463 163.912 123.463H165.921C166.585 123.463 167.11 122.922 167.11 122.273C167.11 121.609 166.585 121.083 165.921 121.083Z" fill="#BCBEC0"/>
<path d="M166.225 106.53H157.388C156.523 106.53 155.812 107.241 155.812 108.106V110.763C155.812 111.629 156.523 112.339 157.388 112.339H166.225C167.091 112.339 167.801 111.629 167.801 110.763V108.106C167.801 107.241 167.106 106.53 166.225 106.53Z" fill="#1A1A1A"/>
<path d="M131.097 124.885H125.844V119.632C125.844 117.376 124.005 115.538 121.75 115.538C119.494 115.538 117.656 117.376 117.656 119.632V124.885H112.403C110.147 124.885 108.309 126.723 108.309 128.979C108.309 131.234 110.147 133.073 112.403 133.073H117.656V138.326C117.656 140.581 119.494 142.42 121.75 142.42C124.005 142.42 125.844 140.581 125.844 138.326V133.073H131.097C133.352 133.073 135.191 131.234 135.191 128.979C135.191 126.723 133.352 124.885 131.097 124.885Z" fill="#BCBEC0"/>
<path d="M131.097 123.277H125.844V118.024C125.844 115.769 124.005 113.93 121.75 113.93C119.494 113.93 117.656 115.769 117.656 118.024V123.277H112.403C110.147 123.277 108.309 125.116 108.309 127.371C108.309 129.627 110.147 131.465 112.403 131.465H117.656V136.718C117.656 138.974 119.494 140.812 121.75 140.812C124.005 140.812 125.844 138.974 125.844 136.718V131.465H131.097C133.352 131.465 135.191 129.627 135.191 127.371C135.191 125.116 133.352 123.277 131.097 123.277Z" fill="#1A1A1A"/>
<path d="M205.79 119.741C206.903 117.053 205.627 113.971 202.939 112.858C200.251 111.744 197.169 113.021 196.055 115.709C194.942 118.397 196.218 121.479 198.906 122.592C201.595 123.706 204.676 122.429 205.79 119.741Z" fill="#1A1A1A"/>
<path d="M205.786 136.538C206.9 133.85 205.623 130.768 202.935 129.654C200.247 128.541 197.165 129.818 196.051 132.506C194.938 135.194 196.214 138.276 198.903 139.389C201.591 140.503 204.673 139.226 205.786 136.538Z" fill="#1A1A1A"/>
<path d="M213.035 129.844C215.092 127.786 215.092 124.451 213.035 122.393C210.978 120.336 207.642 120.336 205.585 122.393C203.527 124.451 203.527 127.786 205.585 129.844C207.642 131.901 210.978 131.901 213.035 129.844Z" fill="#1A1A1A"/>
<path d="M196.226 129.851C198.284 127.794 198.284 124.458 196.226 122.401C194.169 120.343 190.833 120.343 188.776 122.401C186.719 124.458 186.719 127.794 188.776 129.851C190.833 131.909 194.169 131.909 196.226 129.851Z" fill="#1A1A1A"/>
<path d="M166.231 112.339C167.096 112.339 167.806 111.629 167.806 110.763V108.106C167.806 107.365 167.281 106.731 166.586 106.577L158.336 112.339H166.231Z" fill="#231F20"/>
<path d="M155.882 114.1C151.309 114.1 147.602 110.392 147.602 105.819V91.2809C147.602 86.7079 151.309 83 155.882 83C160.456 83 164.163 86.7079 164.163 91.2809V105.819C164.163 110.392 160.456 114.1 155.882 114.1Z" fill="#FFA8A8"/>
<path d="M139.304 108.678C134.731 108.678 131.023 104.97 131.023 100.397V91.2971C131.023 86.724 134.731 83.0161 139.304 83.0161C143.877 83.0161 147.585 86.724 147.585 91.2971V100.397C147.585 104.97 143.877 108.678 139.304 108.678Z" fill="#FFA8A8"/>
<path d="M172.461 114.101C167.888 114.101 164.18 110.393 164.18 105.82V96.7199C164.18 92.1468 167.888 88.439 172.461 88.439C177.034 88.439 180.742 92.1468 180.742 96.7199V105.82C180.742 110.393 177.034 114.101 172.461 114.101Z" fill="#FFA8A8"/>
<path d="M189.023 112.756C184.45 112.756 180.742 109.048 180.742 104.475V100.798C180.742 96.225 184.45 92.5171 189.023 92.5171C193.596 92.5171 197.304 96.225 197.304 100.798V104.46C197.32 109.033 193.612 112.756 189.023 112.756Z" fill="#FFA8A8"/>
<g opacity="0.6">
<path opacity="0.6" d="M164.16 99.5003C164.16 94.9273 167.868 91.2194 172.441 91.2194C177.014 91.2194 180.722 94.9273 180.722 99.5003V96.7194C180.722 92.1464 177.014 88.4385 172.441 88.4385C167.868 88.4385 164.16 92.1464 164.16 96.7194V99.5003Z" fill="#FFEDED"/>
</g>
<g opacity="0.6">
<path opacity="0.6" d="M139.304 85.7819C143.877 85.7819 147.585 89.4898 147.585 94.0628C147.585 89.4898 151.293 85.7819 155.866 85.7819C160.439 85.7819 164.147 89.4898 164.147 94.0628V91.2819C164.147 86.7089 160.439 83.001 155.866 83.001C151.293 83.001 147.585 86.7089 147.585 91.2819C147.585 86.7089 143.877 83.001 139.304 83.001C134.731 83.001 131.023 86.7089 131.023 91.2819V94.0628C131.008 89.4898 134.731 85.7819 139.304 85.7819Z" fill="#FFEDED"/>
</g>
<g opacity="0.6">
<path opacity="0.6" d="M189.023 92.502C184.45 92.502 180.742 96.2098 180.742 100.783V103.564C180.742 98.9908 184.45 95.2829 189.023 95.2829C193.596 95.2829 197.304 98.9908 197.304 103.564V100.783C197.32 96.2098 193.612 92.502 189.023 92.502Z" fill="#FFEDED"/>
</g>
<path d="M142.691 103.81C140.698 103.532 137.238 103.532 135.26 103.81C134.472 103.919 133.746 103.393 133.746 102.713V100.195C133.746 98.8047 144.205 98.8047 144.205 100.195V102.713C144.19 103.393 143.479 103.919 142.691 103.81Z" fill="#FFC4C4"/>
<path d="M159.672 108.847C157.679 108.569 154.218 108.569 152.241 108.847C151.453 108.955 150.727 108.43 150.727 107.75V105.232C150.727 103.841 161.186 103.841 161.186 105.232V107.75C161.186 108.43 160.46 108.955 159.672 108.847Z" fill="#FFC4C4"/>
<path d="M176.105 108.847C174.112 108.569 170.652 108.569 168.674 108.847C167.886 108.955 167.16 108.43 167.16 107.75V105.232C167.16 103.841 177.619 103.841 177.619 105.232V107.75C177.619 108.43 176.893 108.955 176.105 108.847Z" fill="#FFC4C4"/>
<path d="M192.543 107.209C190.55 106.931 187.089 106.931 185.112 107.209C184.324 107.317 183.598 106.792 183.598 106.112V103.609C183.598 102.219 194.057 102.219 194.057 103.609V106.112C194.057 106.792 193.331 107.317 192.543 107.209Z" fill="#FFC4C4"/>
<path d="M153.377 151.365C158.476 151.365 162.601 147.24 162.601 142.141C162.601 137.043 158.476 132.918 153.377 132.918H133.447C127.453 132.918 121.783 135.822 118.292 140.705C117.859 141.307 117.457 141.94 117.102 142.589C113.981 148.29 114.336 155.243 117.828 160.712L129.446 178.865C133.154 184.674 134.946 191.487 134.575 198.362L133.926 232.984H167.004C167.004 229.307 167.545 192.8 167.545 183.252C167.545 170.414 159.681 162.612 152.605 159.754C132.783 151.735 153.377 151.365 153.377 151.365Z" fill="#FFA8A8"/>
<path d="M153.378 132.917H149.16V134.447C149.16 137.66 151.756 140.256 154.969 140.256H162.416C161.535 136.054 157.827 132.917 153.378 132.917Z" fill="#FFC4C4"/>
<g opacity="0.6">
<path opacity="0.6" d="M161.919 166.706C161.363 166.01 160.76 165.377 160.157 164.774C159.957 164.573 159.74 164.373 159.54 164.187C158.813 163.523 158.056 162.905 157.284 162.364C156.959 162.132 156.62 161.901 156.295 161.684C155.847 161.406 155.399 161.128 154.951 160.881C154.843 160.819 154.735 160.757 154.611 160.696C153.947 160.34 153.267 160.031 152.603 159.753C144.893 156.632 143.287 154.67 144.214 153.434C144.214 153.434 144.198 153.434 144.198 153.419C141.726 154.531 140.336 157.745 152.603 163.137C159.462 166.149 167.249 173.503 167.542 185.925C167.542 185.863 167.542 185.817 167.542 185.755C167.542 185.708 167.542 185.662 167.542 185.616C167.542 185.554 167.542 185.508 167.542 185.446C167.542 185.369 167.542 185.307 167.542 185.245C167.542 185.214 167.542 185.168 167.542 185.137C167.542 185.06 167.542 184.982 167.542 184.905C167.542 184.874 167.542 184.828 167.542 184.797C167.542 184.72 167.542 184.642 167.542 184.565C167.542 184.519 167.542 184.457 167.542 184.411C167.542 184.333 167.542 184.272 167.542 184.194C167.542 184.163 167.542 184.133 167.542 184.102C167.542 184.04 167.542 183.978 167.542 183.916C167.542 183.87 167.542 183.824 167.542 183.777C167.542 183.731 167.542 183.685 167.542 183.638C167.542 183.592 167.542 183.546 167.542 183.515C167.542 183.453 167.542 183.406 167.542 183.345C167.542 183.314 167.542 183.283 167.542 183.267C167.542 176.64 165.457 171.371 162.459 167.416C162.29 167.169 162.104 166.937 161.919 166.706Z" fill="#FFEDED"/>
</g>
<g opacity="0.6">
<path opacity="0.6" d="M134.586 198.3C134.586 198.331 134.586 198.362 134.586 198.378L133.938 233H133.999L134.586 201.776C134.648 200.618 134.648 199.444 134.586 198.3Z" fill="#FFEDED"/>
</g>
<g opacity="0.6">
<path opacity="0.6" d="M117.115 145.988C117.47 145.339 117.872 144.706 118.304 144.103C121.796 139.221 127.451 136.317 133.46 136.317H153.39C157.902 136.317 161.656 139.561 162.459 143.841C162.567 143.285 162.614 142.728 162.614 142.141C162.614 137.043 158.489 132.918 153.39 132.918H133.46C127.466 132.918 121.796 135.822 118.304 140.705C117.872 141.307 117.47 141.94 117.115 142.589C115.4 145.726 114.736 149.233 115.06 152.678C115.292 150.36 115.956 148.089 117.115 145.988Z" fill="#FFEDED"/>
</g>
<path d="M184.786 217.551H133.772C132.536 217.551 131.547 216.546 131.547 215.326V209.579C131.547 208.343 132.551 207.354 133.772 207.354H184.786C186.022 207.354 187.011 208.358 187.011 209.579V215.326C187.011 216.546 186.006 217.551 184.786 217.551Z" fill="#333A62"/>
<path d="M166.312 213.842C167.08 213.842 167.703 213.22 167.703 212.452C167.703 211.684 167.08 211.062 166.312 211.062C165.544 211.062 164.922 211.684 164.922 212.452C164.922 213.22 165.544 213.842 166.312 213.842Z" fill="#7DADFF"/>
<path d="M161.828 213.842C162.596 213.842 163.218 213.22 163.218 212.452C163.218 211.684 162.596 211.062 161.828 211.062C161.06 211.062 160.438 211.684 160.438 212.452C160.438 213.22 161.06 213.842 161.828 213.842Z" fill="#7DADFF"/>
<path d="M157.347 213.842C158.115 213.842 158.738 213.22 158.738 212.452C158.738 211.684 158.115 211.062 157.347 211.062C156.58 211.062 155.957 211.684 155.957 212.452C155.957 213.22 156.58 213.842 157.347 213.842Z" fill="#7DADFF"/>
<path d="M184.784 207.354H170.941V217.55H184.784C186.02 217.55 187.009 216.546 187.009 215.325V209.578C187.009 208.358 186.005 207.354 184.784 207.354Z" fill="#1D202E"/>
<defs>
<linearGradient id="paint0_linear" x1="6.53803" y1="328.816" x2="387.069" y2="125.573" gradientUnits="userSpaceOnUse">
<stop offset="0.02" stop-color="#00E47D"/>
<stop offset="0.67" stop-color="#DBEA7C"/>
<stop offset="1" stop-color="#FF8641"/>
</linearGradient>
</defs>
</svg>
