<svg width="857" height="447" viewBox="0 0 857 447" fill="none" xmlns="http://www.w3.org/2000/svg">
<path d="M0.5 447H857V0H233.218L0.5 447Z" fill="url(#paint0_linear)"/>
<path d="M352.389 402.747C345.521 402.747 339.938 397.163 339.938 390.295C339.938 383.427 345.521 377.843 352.389 377.843C359.257 377.843 364.841 383.427 364.841 390.295C364.841 397.163 359.257 402.747 352.389 402.747ZM352.389 381.815C347.731 381.815 343.909 385.607 343.909 390.295C343.909 394.983 347.701 398.775 352.389 398.775C357.047 398.775 360.87 394.983 360.87 390.295C360.87 385.607 357.047 381.815 352.389 381.815Z" fill="white"/>
<path d="M380.425 354.552C371.318 354.552 363.883 347.147 363.883 338.009C363.883 328.902 371.288 321.467 380.425 321.467C389.533 321.467 396.968 328.872 396.968 338.009C396.968 347.117 389.563 354.552 380.425 354.552ZM380.425 325.468C373.498 325.468 367.884 331.082 367.884 338.009C367.884 344.937 373.498 350.551 380.425 350.551C387.353 350.551 392.967 344.937 392.967 338.009C392.967 331.082 387.353 325.468 380.425 325.468Z" fill="white"/>
<path d="M550.632 155.085C541.525 155.085 534.09 147.68 534.09 138.543C534.09 129.405 541.495 122 550.632 122C559.77 122 567.175 129.405 567.175 138.543C567.175 147.68 559.77 155.085 550.632 155.085ZM550.632 126.001C543.705 126.001 538.091 131.615 538.091 138.543C538.091 145.47 543.705 151.084 550.632 151.084C557.56 151.084 563.174 145.47 563.174 138.543C563.174 131.615 557.56 126.001 550.632 126.001Z" fill="white"/>
<path d="M312.284 196.68C311.866 196.68 311.478 196.561 311.119 196.322C310.701 196.024 310.403 195.546 310.313 195.038L306.551 172.792C306.372 171.717 307.088 170.672 308.193 170.493L330.439 166.731C331.514 166.551 332.559 167.268 332.738 168.373L336.501 190.619C336.68 191.694 335.963 192.739 334.858 192.918L312.612 196.68C312.523 196.651 312.403 196.68 312.284 196.68ZM310.821 174.076L313.926 192.381L332.231 189.275L329.125 170.971L310.821 174.076Z" fill="white"/>
<path d="M532.624 359.45C531.668 359.45 530.832 358.763 530.653 357.777L526.891 335.531C526.712 334.456 527.428 333.411 528.533 333.232L550.779 329.47C551.854 329.291 552.899 330.007 553.078 331.112L556.841 353.358C557.02 354.433 556.303 355.478 555.198 355.657L532.952 359.42C532.833 359.45 532.743 359.45 532.624 359.45ZM531.161 336.845L534.266 355.15L552.571 352.044L549.465 333.74L531.161 336.845Z" fill="white"/>
<path d="M314.167 327.708C313.391 327.708 312.674 327.26 312.346 326.513L296.072 289.606C295.624 288.591 296.072 287.426 297.087 286.978C298.102 286.53 299.267 286.978 299.715 287.993L315.989 324.901C316.437 325.916 315.989 327.081 314.974 327.528C314.705 327.648 314.436 327.708 314.167 327.708Z" fill="white"/>
<path d="M514.982 375.604H508.711V381.875H514.982V375.604Z" fill="white"/>
<path d="M531.638 250.489H525.367V256.759H531.638V250.489Z" fill="white"/>
<path d="M324.17 261.687H319.512V266.345H324.17V261.687Z" fill="white"/>
<path d="M374.396 211.163H369.738V215.821H374.396V211.163Z" fill="white"/>
<path d="M311.433 351.887C312.192 348.643 310.177 345.399 306.934 344.64C303.69 343.881 300.445 345.895 299.687 349.139C298.928 352.383 300.942 355.627 304.186 356.386C307.429 357.145 310.674 355.131 311.433 351.887Z" fill="white"/>
<path d="M358.316 148.535C359.074 145.291 357.06 142.046 353.817 141.287C350.573 140.529 347.328 142.543 346.569 145.787C345.81 149.03 347.825 152.275 351.068 153.034C354.312 153.793 357.557 151.778 358.316 148.535Z" fill="white"/>
<path d="M565.766 381.725C569.097 381.725 571.798 379.024 571.798 375.693C571.798 372.362 569.097 369.661 565.766 369.661C562.435 369.661 559.734 372.362 559.734 375.693C559.734 379.024 562.435 381.725 565.766 381.725Z" fill="white"/>
<path d="M600.166 186.02C602.409 186.02 604.228 184.202 604.228 181.959C604.228 179.717 602.409 177.898 600.166 177.898C597.924 177.898 596.105 179.717 596.105 181.959C596.105 184.202 597.924 186.02 600.166 186.02Z" fill="white"/>
<path d="M328.353 242.009C327.785 242.009 327.218 241.77 326.83 241.293C326.113 240.457 326.233 239.202 327.069 238.486L348.449 220.629C349.285 219.913 350.539 220.032 351.256 220.868C351.972 221.704 351.853 222.958 351.017 223.675L329.637 241.531C329.278 241.86 328.801 242.009 328.353 242.009Z" fill="white"/>
<path d="M545.938 291.636C545.61 291.636 545.281 291.547 544.953 291.368C543.997 290.83 543.639 289.606 544.176 288.65L570.663 241.411C571.2 240.456 572.424 240.097 573.38 240.635C574.335 241.172 574.694 242.397 574.156 243.352L547.67 290.621C547.312 291.278 546.625 291.636 545.938 291.636Z" fill="white"/>
<path d="M528.982 201.369C528.355 201.369 527.728 201.07 527.37 200.533C526.952 199.965 526.892 199.189 527.191 198.562L535.372 180.497C535.641 179.869 536.238 179.451 536.925 179.332C537.612 179.242 538.269 179.511 538.717 180.019L552.213 196.024C552.691 196.591 552.811 197.368 552.542 198.054C552.273 198.741 551.616 199.219 550.87 199.279L529.191 201.309C529.102 201.369 529.042 201.369 528.982 201.369ZM537.671 185.005L532.207 197.039L546.659 195.666L537.671 185.005Z" fill="white"/>
<path d="M537.883 412.571L533.732 422.395C533.314 423.38 534.091 424.485 535.166 424.366L544.9 423.5C545.975 423.41 546.542 422.216 545.975 421.32L540.391 412.362C539.794 411.406 538.331 411.526 537.883 412.571Z" fill="white"/>
<path d="M386.98 158.139L364.93 169.191L366.723 172.769L388.773 161.716L386.98 158.139Z" fill="white"/>
<path d="M512.919 164.223C512.202 164.223 511.515 163.834 511.157 163.178L498.257 139.468C497.72 138.513 498.078 137.289 499.064 136.751C500.019 136.214 501.243 136.572 501.781 137.557L514.681 161.266C515.218 162.222 514.86 163.446 513.874 163.984C513.546 164.133 513.217 164.223 512.919 164.223Z" fill="white"/>
<path d="M526.746 270.108V330.456C526.746 338.249 518.952 345.684 512.234 350.671C506.172 355.15 502.649 362.257 502.649 369.782C502.649 400.389 502.589 447 502.589 447H408.32L413.575 353.09L391.27 270.108H526.746Z" fill="#FF8C8C"/>
<path d="M348.477 210.089C355.912 201.758 370.125 194.113 381.323 193.904C381.383 191.963 379.681 187.813 376.127 186.917C375.53 186.768 374.903 186.738 374.306 186.768C363.048 187.693 352.836 191.336 346.118 199.936C343.221 203.997 346.804 208.715 348.477 210.089Z" fill="#1A1A1A"/>
<path d="M563.285 210.089C555.85 201.758 541.637 194.113 530.439 193.904C530.379 191.963 532.081 187.813 535.635 186.917C536.232 186.768 536.859 186.738 537.456 186.768C548.714 187.693 558.926 191.336 565.644 199.936C568.571 203.997 564.987 208.715 563.285 210.089Z" fill="#1A1A1A"/>
<path d="M582.668 313.286L577.891 239.053C577.891 238.635 577.92 238.188 577.92 237.769C577.92 234.455 577.592 231.23 576.935 228.125L576.905 227.856L576.875 227.886C572.307 206.506 553.345 190.471 530.592 190.471C530.353 190.471 530.114 190.471 529.905 190.471H377.826V190.53C356.148 191.576 338.291 207.222 333.872 227.856C333.185 231.051 332.827 234.365 332.827 237.769C332.827 238.307 332.827 238.815 332.857 239.322L328.109 313.286C326.735 328.873 339.008 342.31 354.685 342.31C362.389 342.31 369.704 338.966 374.781 333.173C374.781 333.173 416.794 288.114 416.824 288.084H493.953C493.983 288.114 536.026 333.173 536.026 333.173C541.103 338.966 548.418 342.31 556.122 342.31C571.769 342.31 584.072 328.873 582.668 313.286Z" fill="#F2F2F2"/>
<path d="M441.965 272.82C445.209 264.989 441.49 256.01 433.658 252.766C425.827 249.522 416.848 253.241 413.604 261.073C410.36 268.904 414.079 277.883 421.911 281.127C429.742 284.371 438.721 280.652 441.965 272.82Z" fill="#F2F2F2"/>
<path d="M485.79 282.091C494.158 280.733 499.84 272.849 498.482 264.482C497.124 256.115 489.24 250.433 480.873 251.791C472.506 253.149 466.823 261.033 468.181 269.4C469.539 277.767 477.423 283.449 485.79 282.091Z" fill="#F2F2F2"/>
<path d="M556.122 342.31C558.869 342.31 561.497 341.892 563.976 341.146L525.754 301.581C517.423 292.951 505.927 288.084 493.953 288.084C494.013 288.174 536.026 333.173 536.026 333.173C541.103 338.966 548.418 342.31 556.122 342.31Z" fill="#CCCCCC"/>
<path d="M346.684 341.086C349.192 341.893 351.909 342.311 354.686 342.311C362.39 342.311 369.706 338.966 374.782 333.173C374.782 333.173 413.75 291.369 416.646 288.263L416.736 287.965C404.732 287.965 393.266 292.832 384.935 301.462L346.684 341.086Z" fill="#CCCCCC"/>
<path d="M427.754 278.438C434.103 278.438 439.25 273.291 439.25 266.942C439.25 260.593 434.103 255.446 427.754 255.446C421.405 255.446 416.258 260.593 416.258 266.942C416.258 273.291 421.405 278.438 427.754 278.438Z" fill="#1A1A1A"/>
<path d="M427.754 278.44C434.115 278.44 439.251 273.304 439.251 266.943C439.251 266.167 439.161 265.391 439.012 264.644C431.786 269.004 424.47 270.885 416.855 270.616C418.408 275.155 422.708 278.44 427.754 278.44Z" fill="#231F20"/>
<path d="M483.32 278.438C489.67 278.438 494.817 273.291 494.817 266.942C494.817 260.593 489.67 255.446 483.32 255.446C476.971 255.446 471.824 260.593 471.824 266.942C471.824 273.291 476.971 278.438 483.32 278.438Z" fill="#1A1A1A"/>
<path d="M483.325 278.44C489.685 278.44 494.821 273.304 494.821 266.943C494.821 266.167 494.731 265.391 494.582 264.644C487.356 269.004 480.04 270.885 472.426 270.616C473.979 275.155 478.278 278.44 483.325 278.44Z" fill="#231F20"/>
<path d="M536.14 236.748C541.613 235.455 545.002 229.971 543.71 224.498C542.417 219.025 536.933 215.636 531.46 216.929C525.987 218.221 522.598 223.705 523.891 229.178C525.183 234.651 530.667 238.04 536.14 236.748Z" fill="#BCBEC0"/>
<path d="M543.223 263.224C545.376 258.029 542.908 252.072 537.713 249.92C532.517 247.768 526.561 250.235 524.409 255.431C522.256 260.627 524.724 266.583 529.919 268.735C535.115 270.887 541.071 268.42 543.223 263.224Z" fill="#BCBEC0"/>
<path d="M552.386 252.987C557.859 251.695 561.248 246.211 559.956 240.738C558.663 235.265 553.179 231.876 547.706 233.168C542.233 234.461 538.844 239.945 540.137 245.418C541.429 250.891 546.913 254.28 552.386 252.987Z" fill="#BCBEC0"/>
<path d="M519.91 252.994C525.382 251.701 528.771 246.217 527.479 240.744C526.187 235.271 520.703 231.882 515.23 233.175C509.757 234.467 506.368 239.951 507.66 245.424C508.953 250.897 514.437 254.286 519.91 252.994Z" fill="#BCBEC0"/>
<path d="M453.376 230.692H449.495C448.211 230.692 447.195 231.737 447.195 232.991C447.195 234.275 448.24 235.29 449.495 235.29H453.376C454.66 235.29 455.676 234.245 455.676 232.991C455.706 231.707 454.66 230.692 453.376 230.692Z" fill="#BCBEC0"/>
<path d="M466.185 230.692H462.303C461.019 230.692 460.004 231.737 460.004 232.991C460.004 234.275 461.049 235.29 462.303 235.29H466.185C467.469 235.29 468.484 234.245 468.484 232.991C468.484 231.707 467.469 230.692 466.185 230.692Z" fill="#BCBEC0"/>
<path d="M466.778 202.563H449.698C448.026 202.563 446.652 203.937 446.652 205.609V210.745C446.652 212.417 448.026 213.791 449.698 213.791H466.778C468.45 213.791 469.824 212.417 469.824 210.745V205.609C469.824 203.937 468.48 202.563 466.778 202.563Z" fill="#1A1A1A"/>
<path d="M398.88 238.039H388.727V227.886C388.727 223.527 385.174 219.973 380.814 219.973C376.455 219.973 372.901 223.527 372.901 227.886V238.039H362.749C358.389 238.039 354.836 241.592 354.836 245.952C354.836 250.311 358.389 253.865 362.749 253.865H372.901V264.017C372.901 268.377 376.455 271.93 380.814 271.93C385.174 271.93 388.727 268.377 388.727 264.017V253.865H398.88C403.24 253.865 406.793 250.311 406.793 245.952C406.793 241.592 403.24 238.039 398.88 238.039Z" fill="#BCBEC0"/>
<path d="M398.88 234.932H388.727V224.78C388.727 220.42 385.174 216.867 380.814 216.867C376.455 216.867 372.901 220.42 372.901 224.78V234.932H362.749C358.389 234.932 354.836 238.486 354.836 242.845C354.836 247.205 358.389 250.758 362.749 250.758H372.901V260.911C372.901 265.27 376.455 268.824 380.814 268.824C385.174 268.824 388.727 265.27 388.727 260.911V250.758H398.88C403.24 250.758 406.793 247.205 406.793 242.845C406.793 238.486 403.24 234.932 398.88 234.932Z" fill="#1A1A1A"/>
<path d="M543.243 228.098C545.395 222.902 542.928 216.945 537.732 214.793C532.537 212.641 526.58 215.108 524.428 220.304C522.276 225.5 524.743 231.456 529.939 233.608C535.134 235.76 541.091 233.293 543.243 228.098Z" fill="#1A1A1A"/>
<path d="M543.231 260.562C545.383 255.366 542.916 249.41 537.721 247.258C532.525 245.105 526.568 247.573 524.416 252.768C522.264 257.964 524.731 263.92 529.927 266.073C535.123 268.225 541.079 265.757 543.231 260.562Z" fill="#1A1A1A"/>
<path d="M557.244 247.623C561.221 243.647 561.221 237.2 557.244 233.223C553.268 229.247 546.821 229.247 542.844 233.223C538.868 237.2 538.868 243.647 542.844 247.623C546.821 251.6 553.268 251.6 557.244 247.623Z" fill="#1A1A1A"/>
<path d="M524.76 247.638C528.736 243.662 528.736 237.214 524.76 233.238C520.784 229.262 514.337 229.262 510.36 233.238C506.384 237.214 506.384 243.662 510.36 247.638C514.337 251.614 520.784 251.614 524.76 247.638Z" fill="#1A1A1A"/>
<path d="M466.782 213.791C468.454 213.791 469.828 212.418 469.828 210.745V205.609C469.828 204.176 468.813 202.952 467.469 202.653L451.523 213.791H466.782Z" fill="#231F20"/>
<path d="M446.782 217.194C437.944 217.194 430.777 210.028 430.777 201.189V173.091C430.777 164.252 437.944 157.085 446.782 157.085C455.621 157.085 462.788 164.252 462.788 173.091V201.189C462.788 210.028 455.621 217.194 446.782 217.194Z" fill="#FFA8A8"/>
<path d="M414.732 206.714C405.893 206.714 398.727 199.547 398.727 190.709V173.121C398.727 164.282 405.893 157.116 414.732 157.116C423.57 157.116 430.737 164.282 430.737 173.121V190.709C430.737 199.547 423.57 206.714 414.732 206.714Z" fill="#FFA8A8"/>
<path d="M478.822 217.195C469.983 217.195 462.816 210.028 462.816 201.19V183.602C462.816 174.763 469.983 167.597 478.822 167.597C487.66 167.597 494.827 174.763 494.827 183.602V201.19C494.827 210.028 487.66 217.195 478.822 217.195Z" fill="#FFA8A8"/>
<path d="M510.833 214.597C501.995 214.597 494.828 207.431 494.828 198.592V191.485C494.828 182.646 501.995 175.48 510.833 175.48C519.672 175.48 526.838 182.646 526.838 191.485V198.562C526.868 207.401 519.702 214.597 510.833 214.597Z" fill="#FFA8A8"/>
<g opacity="0.6">
<path opacity="0.6" d="M462.777 188.977C462.777 180.138 469.944 172.972 478.782 172.972C487.621 172.972 494.788 180.138 494.788 188.977V183.602C494.788 174.763 487.621 167.597 478.782 167.597C469.944 167.597 462.777 174.763 462.777 183.602V188.977Z" fill="#FFEDED"/>
</g>
<g opacity="0.6">
<path opacity="0.6" d="M414.732 162.462C423.57 162.462 430.737 169.628 430.737 178.467C430.737 169.628 437.903 162.462 446.742 162.462C455.581 162.462 462.747 169.628 462.747 178.467V173.092C462.747 164.253 455.581 157.087 446.742 157.087C437.903 157.087 430.737 164.253 430.737 173.092C430.737 164.253 423.57 157.087 414.732 157.087C405.893 157.087 398.727 164.253 398.727 173.092V178.467C398.697 169.628 405.893 162.462 414.732 162.462Z" fill="#FFEDED"/>
</g>
<g opacity="0.6">
<path opacity="0.6" d="M510.825 175.45C501.987 175.45 494.82 182.616 494.82 191.455V196.83C494.82 187.991 501.987 180.825 510.825 180.825C519.664 180.825 526.831 187.991 526.831 196.83V191.455C526.86 182.616 519.694 175.45 510.825 175.45Z" fill="#FFEDED"/>
</g>
<path d="M421.277 197.308C417.425 196.77 410.737 196.77 406.915 197.308C405.392 197.517 403.988 196.501 403.988 195.188V190.32C403.988 187.633 424.204 187.633 424.204 190.32V195.188C424.174 196.501 422.8 197.517 421.277 197.308Z" fill="#FFC4C4"/>
<path d="M454.098 207.042C450.246 206.504 443.557 206.504 439.735 207.042C438.212 207.251 436.809 206.236 436.809 204.922V200.055C436.809 197.367 457.024 197.367 457.024 200.055V204.922C457.024 206.236 455.621 207.251 454.098 207.042Z" fill="#FFC4C4"/>
<path d="M485.863 207.042C482.011 206.504 475.323 206.504 471.501 207.042C469.978 207.251 468.574 206.236 468.574 204.922V200.055C468.574 197.367 488.79 197.367 488.79 200.055V204.922C488.79 206.236 487.386 207.251 485.863 207.042Z" fill="#FFC4C4"/>
<path d="M517.633 203.876C513.781 203.339 507.092 203.339 503.27 203.876C501.747 204.085 500.344 203.07 500.344 201.756V196.919C500.344 194.231 520.559 194.231 520.559 196.919V201.756C520.559 203.07 519.156 204.085 517.633 203.876Z" fill="#FFC4C4"/>
<path d="M441.938 289.218C451.792 289.218 459.765 281.245 459.765 271.392C459.765 261.538 451.792 253.565 441.938 253.565H403.418C391.832 253.565 380.874 259.179 374.125 268.615C373.289 269.779 372.513 271.003 371.826 272.257C365.794 283.276 366.481 296.713 373.229 307.284L395.684 342.37C402.851 353.597 406.315 366.765 405.598 380.053L404.344 446.97H468.275C468.275 439.863 469.32 369.304 469.32 350.85C469.32 326.036 454.121 310.956 440.445 305.432C402.134 289.935 441.938 289.218 441.938 289.218Z" fill="#FFA8A8"/>
<path d="M441.937 253.564H433.785V256.521C433.785 262.732 438.802 267.748 445.013 267.748H459.405C457.703 259.626 450.537 253.564 441.937 253.564Z" fill="#FFC4C4"/>
<g opacity="0.6">
<path opacity="0.6" d="M458.448 318.869C457.373 317.526 456.209 316.301 455.044 315.137C454.656 314.749 454.238 314.36 453.85 314.002C452.446 312.718 450.983 311.524 449.49 310.479C448.863 310.031 448.206 309.583 447.579 309.165C446.713 308.627 445.847 308.09 444.981 307.612C444.772 307.493 444.563 307.373 444.324 307.254C443.04 306.567 441.727 305.97 440.443 305.432C425.542 299.4 422.437 295.608 424.228 293.219C424.228 293.219 424.199 293.219 424.199 293.189C419.421 295.339 416.733 301.55 440.443 311.972C453.701 317.794 468.75 332.008 469.317 356.016C469.317 355.896 469.317 355.807 469.317 355.687C469.317 355.598 469.317 355.508 469.317 355.418C469.317 355.299 469.317 355.209 469.317 355.09C469.317 354.941 469.317 354.821 469.317 354.702C469.317 354.642 469.317 354.552 469.317 354.493C469.317 354.343 469.317 354.194 469.317 354.045C469.317 353.985 469.317 353.896 469.317 353.836C469.317 353.686 469.317 353.537 469.317 353.388C469.317 353.298 469.317 353.179 469.317 353.089C469.317 352.94 469.317 352.821 469.317 352.671C469.317 352.612 469.317 352.552 469.317 352.492C469.317 352.373 469.317 352.253 469.317 352.134C469.317 352.044 469.317 351.955 469.317 351.865C469.317 351.775 469.317 351.686 469.317 351.596C469.317 351.507 469.317 351.417 469.317 351.357C469.317 351.238 469.317 351.148 469.317 351.029C469.317 350.969 469.317 350.909 469.317 350.88C469.317 338.07 465.286 327.887 459.493 320.243C459.165 319.765 458.807 319.317 458.448 318.869Z" fill="#FFEDED"/>
</g>
<g opacity="0.6">
<path opacity="0.6" d="M405.625 379.934C405.625 379.993 405.625 380.053 405.625 380.083L404.371 447H404.491L405.625 386.652C405.745 384.413 405.745 382.143 405.625 379.934Z" fill="#FFEDED"/>
</g>
<g opacity="0.6">
<path opacity="0.6" d="M371.852 278.827C372.539 277.573 373.315 276.348 374.151 275.184C380.899 265.748 391.828 260.134 403.444 260.134H441.964C450.683 260.134 457.939 266.405 459.492 274.676C459.701 273.601 459.79 272.526 459.79 271.392C459.79 261.538 451.818 253.565 441.964 253.565H403.444C391.858 253.565 380.899 259.179 374.151 268.615C373.315 269.779 372.539 271.003 371.852 272.257C368.537 278.319 367.253 285.097 367.88 291.756C368.328 287.277 369.612 282.888 371.852 278.827Z" fill="#FFEDED"/>
</g>
<path d="M502.653 417.14H404.054C401.665 417.14 399.754 415.199 399.754 412.84V401.732C399.754 399.343 401.695 397.432 404.054 397.432H502.653C505.041 397.432 506.952 399.373 506.952 401.732V412.84C506.952 415.199 505.012 417.14 502.653 417.14Z" fill="#333A62"/>
<path d="M466.941 409.972C468.426 409.972 469.629 408.769 469.629 407.285C469.629 405.801 468.426 404.598 466.941 404.598C465.457 404.598 464.254 405.801 464.254 407.285C464.254 408.769 465.457 409.972 466.941 409.972Z" fill="#7DADFF"/>
<path d="M458.281 409.973C459.765 409.973 460.969 408.77 460.969 407.286C460.969 405.801 459.765 404.598 458.281 404.598C456.797 404.598 455.594 405.801 455.594 407.286C455.594 408.77 456.797 409.973 458.281 409.973Z" fill="#7DADFF"/>
<path d="M449.621 409.973C451.105 409.973 452.308 408.77 452.308 407.286C452.308 405.801 451.105 404.598 449.621 404.598C448.137 404.598 446.934 405.801 446.934 407.286C446.934 408.77 448.137 409.973 449.621 409.973Z" fill="#7DADFF"/>
<path d="M502.653 397.431H475.898V417.139H502.653C505.042 417.139 506.953 415.198 506.953 412.839V401.731C506.953 399.372 505.012 397.431 502.653 397.431Z" fill="#1D202E"/>
<defs>
<linearGradient id="paint0_linear" x1="17.9994" y1="627.997" x2="856.998" y2="-0.00299435" gradientUnits="userSpaceOnUse">
<stop offset="0.02" stop-color="#00E47D"/>
<stop offset="0.67" stop-color="#DBEA7C"/>
<stop offset="1" stop-color="#FF8641"/>
</linearGradient>
</defs>
</svg>
