<svg width="570" height="599" viewBox="0 0 570 599" fill="none" xmlns="http://www.w3.org/2000/svg">
<path fill-rule="evenodd" clip-rule="evenodd" d="M391.845 0L88.184 -0.0449219L6.60399 0H0V0.000858899H5.04419L6.60399 0H391.845ZM569.5 0.000661194H487.073L397.651 0.000858899L391.845 0H569.5V0.000661194ZM0 152.5V598.903H569.5C468.545 557.719 419.699 451.404 373.496 350.844C338.487 274.645 304.995 201.75 251.5 163C197.222 135.526 148.446 142.337 86.5 163C47.5342 175.998 23.979 166.498 0 152.5Z" fill="white"/>
<path d="M193.919 90.2734V118.766C193.919 122.446 190.212 125.956 187.017 128.31C184.134 130.425 182.458 133.781 182.458 137.334C182.458 151.784 182.43 173.792 182.43 173.792H137.594L140.094 129.453L129.484 90.2734H193.919Z" fill="#FF8C8C"/>
<path d="M109.64 62.0246C113.159 58.0774 119.887 54.4555 125.188 54.3567C125.216 53.4376 124.41 51.4706 122.728 51.0467C122.445 50.9756 122.149 50.9615 121.866 50.9756C116.537 51.4142 111.704 53.1406 108.524 57.2147C107.153 59.1385 108.849 61.3742 109.64 62.0246Z" fill="#1A1A1A"/>
<path d="M210.687 62.0246C207.169 58.0774 200.445 54.4555 195.147 54.3567C195.118 53.4376 195.924 51.4706 197.605 51.0467C197.888 50.9756 198.185 50.9615 198.467 50.9756C203.793 51.4142 208.624 53.1406 211.803 57.2147C213.187 59.1385 211.492 61.3742 210.687 62.0246Z" fill="#1A1A1A"/>
<path d="M225.003 112.21C225.713 105.586 224.53 101.327 223.11 94.4664L217.853 75.8015C217.853 75.6034 217.867 75.3913 217.867 75.1933C217.867 73.6249 217.712 72.0996 217.401 70.6298L217.387 70.5022L217.373 70.5171C215.21 60.4001 206.238 52.8125 195.47 52.8125C195.356 52.8125 195.243 52.8125 195.145 52.8125H123.176V52.8415C112.917 53.3353 104.467 60.739 102.375 70.5022C102.05 72.0143 101.881 73.5827 101.881 75.1933C101.881 75.4477 101.881 75.688 101.895 75.9282C100.216 89.6651 98.8501 97.4035 99.648 110.927C98.998 118.301 104.806 124.66 112.224 124.66C115.87 124.66 119.333 123.078 121.735 120.336C121.735 120.336 141.617 99.0149 141.631 99.0009H178.131C178.145 99.0149 198.041 120.336 198.041 120.336C200.443 123.078 203.906 124.66 207.552 124.66C214.838 124.733 223.812 123.33 225.003 112.21Z" fill="#F2F2F2"/>
<path d="M153.468 91.8624C155.024 88.103 153.24 83.7941 149.484 82.2367C145.728 80.6794 141.421 82.4645 139.865 86.2238C138.309 89.9831 140.093 94.2921 143.85 95.8495C147.606 97.4068 151.912 95.6217 153.468 91.8624Z" fill="#F2F2F2"/>
<path d="M174.235 96.3162C178.249 95.6639 180.975 91.8796 180.323 87.8625C179.672 83.8462 175.889 81.1185 171.876 81.77C167.862 82.4223 165.136 86.2066 165.788 90.2237C166.439 94.24 170.221 96.9676 174.235 96.3162Z" fill="#F2F2F2"/>
<path d="M207.384 124.663C208.684 124.663 209.928 124.464 211.101 124.11L193.012 105.291C189.07 101.186 183.629 98.8711 177.963 98.8711C177.991 98.9136 197.874 120.317 197.874 120.317C200.276 123.073 203.738 124.663 207.384 124.663Z" fill="#CCCCCC"/>
<path d="M108.619 124.082C109.806 124.465 111.091 124.663 112.404 124.663C116.049 124.663 119.51 123.076 121.911 120.327C121.911 120.327 140.344 100.487 141.715 99.0132L141.757 98.8711C136.079 98.8711 130.655 101.181 126.713 105.276L108.619 124.082Z" fill="#CCCCCC"/>
<path d="M146.668 94.5715C149.717 94.5715 152.191 92.0974 152.191 89.0441C152.191 85.9917 149.717 83.5176 146.668 83.5176C143.617 83.5176 141.145 85.9917 141.145 89.0441C141.145 92.0974 143.617 94.5715 146.668 94.5715Z" fill="#1A1A1A"/>
<path d="M146.833 94.5716C149.796 94.5716 152.188 92.0561 152.188 88.9421C152.188 88.5623 152.147 88.1816 152.077 87.8164C148.711 89.9512 145.303 90.8721 141.756 90.7409C142.48 92.9632 144.483 94.5716 146.833 94.5716Z" fill="#231F20"/>
<path d="M197.738 73.5603C200.211 72.937 201.743 70.2915 201.159 67.6512C200.575 65.0108 198.097 63.3764 195.623 63.9998C193.15 64.6231 191.618 67.2686 192.202 69.9089C192.786 72.5484 195.265 74.1837 197.738 73.5603Z" fill="#BCBEC0"/>
<path d="M200.932 86.624C201.904 84.1182 200.79 81.2451 198.441 80.2071C196.094 79.1692 193.402 80.3592 192.43 82.8649C191.457 85.3715 192.572 88.2447 194.919 89.2826C197.268 90.3205 199.959 89.1306 200.932 86.624Z" fill="#BCBEC0"/>
<path d="M206.33 81.5428C208.803 80.9194 210.335 78.274 209.751 75.6336C209.167 72.9932 206.688 71.3588 204.215 71.9822C201.741 72.6055 200.21 75.251 200.794 77.8913C201.378 80.5309 203.857 82.1661 206.33 81.5428Z" fill="#BCBEC0"/>
<path d="M189.525 82.156C192.164 81.5326 193.798 78.8872 193.174 76.2468C192.552 73.6073 189.908 71.9721 187.27 72.5954C184.632 73.2188 182.998 75.8651 183.621 78.5046C184.244 81.1449 186.887 82.7793 189.525 82.156Z" fill="#BCBEC0"/>
<path d="M159.001 71.8496H157.035C156.385 71.8496 155.871 72.4081 155.871 73.078C155.871 73.7647 156.4 74.3064 157.035 74.3064H159.001C159.652 74.3064 160.166 73.7488 160.166 73.078C160.181 72.3922 159.652 71.8496 159.001 71.8496Z" fill="#BCBEC0"/>
<path d="M165.138 71.8496H163.172C162.522 71.8496 162.008 72.4081 162.008 73.078C162.008 73.7647 162.537 74.3064 163.172 74.3064H165.138C165.789 74.3064 166.303 73.7488 166.303 73.078C166.303 72.3922 165.789 71.8496 165.138 71.8496Z" fill="#BCBEC0"/>
<path d="M133.111 74.2505H128.314V69.4499C128.314 67.3895 126.635 65.709 124.576 65.709C122.517 65.709 120.838 67.3895 120.838 69.4499V74.2505H116.041C113.982 74.2505 112.303 75.9302 112.303 77.9915C112.303 80.0528 113.982 81.7325 116.041 81.7325H120.838V86.5322C120.838 88.5935 122.517 90.2732 124.576 90.2732C126.635 90.2732 128.314 88.5935 128.314 86.5322V81.7325H133.111C135.171 81.7325 136.849 80.0528 136.849 77.9915C136.849 75.9302 135.171 74.2505 133.111 74.2505Z" fill="#BCBEC0"/>
<path d="M185.754 94.3124C174.105 83.0956 169.221 85.5974 169.221 85.5974C169.221 85.5974 169.221 85.5974 169.206 85.5834C168.782 85.7416 168.417 85.9429 168.16 86.1873C168.13 86.2163 168.099 86.2444 168.069 86.2875C166.264 88.0139 169.433 91.2497 171.254 92.9604C178.246 99.5182 194.505 114.763 201.33 121.119C206.624 126.052 212.009 128.885 217.378 129.575L221.337 125.864L221.534 120.832C221.093 120.903 220.638 120.946 220.154 120.961C220.093 120.961 219.941 120.17 219.88 120.184C216.149 121.421 212.115 118.847 207.822 114.849L185.754 94.3124Z" fill="#FF8641"/>
<path d="M196.789 48.4012C193.842 49.0332 190.727 50.0962 187.368 51.59C177.809 55.8854 163.532 67.9654 144.934 87.5156C132.764 100.3 122.594 112.294 120.456 114.822C120.319 114.995 120.166 115.139 119.998 115.296C115.784 119.031 111.661 120.97 108.042 120.913C104.484 120.855 102.286 118.93 101.98 118.643L101.782 118.457C99.7203 116.574 98.3002 109.651 101.079 96.2924C103.202 86.1073 107.493 74.2284 111.493 67.4192C119.097 54.506 124.503 56.3446 136.23 60.7831C138.475 61.6304 138.062 56.7757 138.23 55.1241L122.441 47.8984C121.632 48.0134 120.853 48.1713 120.075 48.3724C113.615 50.053 108.302 54.765 103.354 63.1819C98.8652 70.8093 94.2842 83.4363 91.948 94.597C88.8177 109.622 89.9172 119.735 95.2157 124.662C96.0403 125.481 99.8882 128.942 106.21 129.574C110.76 129.186 120.777 127.276 129.359 118.399C133.115 114.003 141.819 103.948 151.927 93.3186C174.038 70.0911 185.597 62.1045 191.384 59.5046C197.523 56.7467 202.882 56.3736 205.631 58.3992C207.112 59.4906 209.601 58.3412 211.204 59.7777L213.556 57.9681L196.789 48.4012Z" fill="#AF42AE"/>
<path d="M136.127 72.0074H131.785V67.9662C131.785 65.7016 129.815 63.8672 127.382 63.8672H127.29C124.857 63.8672 122.887 65.7016 122.887 67.9662V72.0074H118.546C116.113 72.0074 114.143 73.8418 114.143 76.1064V76.1922C114.143 78.4568 116.113 80.2912 118.546 80.2912H122.887V84.3332C122.887 86.5969 124.857 88.4314 127.29 88.4314H127.382C129.815 88.4314 131.785 86.5969 131.785 84.3332V80.2912H136.127C138.56 80.2912 140.53 78.4568 140.53 76.1922V76.1064C140.53 73.8567 138.56 72.0074 136.127 72.0074Z" fill="#FF8641"/>
<path d="M199.055 72.1364C201.403 71.2282 202.518 68.7144 201.545 66.5215C200.573 64.3286 197.881 63.2872 195.533 64.1954C193.185 65.1036 192.071 67.6175 193.043 69.8104C194.015 72.0033 196.707 73.0447 199.055 72.1364Z" fill="#AF42AE"/>
<path d="M201.836 85.0784C202.243 82.9023 200.539 80.8523 198.031 80.4995C195.523 80.146 193.158 81.6236 192.752 83.7997C192.344 85.975 194.048 88.025 196.557 88.3786C199.065 88.7313 201.429 87.2537 201.836 85.0784Z" fill="#AF42AE"/>
<path d="M188.702 80.4471C191.244 80.4471 193.305 78.5225 193.305 76.1479C193.305 73.7742 191.244 71.8496 188.702 71.8496C186.16 71.8496 184.1 73.7742 184.1 76.1479C184.1 78.5225 186.16 80.4471 188.702 80.4471Z" fill="#AF42AE"/>
<path d="M205.886 80.4471C208.428 80.4471 210.488 78.5225 210.488 76.1479C210.488 73.7742 208.428 71.8496 205.886 71.8496C203.344 71.8496 201.283 73.7742 201.283 76.1479C201.283 78.5225 203.344 80.4471 205.886 80.4471Z" fill="#AF42AE"/>
<path d="M232.503 94.0652C229.789 82.2686 224.864 70.5873 221.174 63.6021C216.814 55.3491 211.446 50.4662 204.783 48.6802C198.761 47.067 191.808 48.0897 183.544 51.8204C173.999 56.1266 159.743 68.2401 141.172 87.8425C129.02 100.661 118.865 112.689 116.73 115.223C116.593 115.397 116.441 115.54 116.273 115.699C112.065 119.444 107.948 121.388 104.334 121.331C100.782 121.273 98.5863 119.343 98.2813 119.055L98.0831 118.867C96.0247 116.981 94.6066 110.038 97.3817 96.643C99.5011 86.4312 103.786 74.5201 107.78 67.6925C115.373 54.7443 121.762 54.7874 133.213 59.7855C139.464 62.5077 145.289 64.0053 149.665 64.8259C150.61 64.9993 151.57 64.7255 152.257 64.0916C153.309 63.1267 154.33 62.1759 155.352 61.269C157.09 59.7133 156.175 56.948 153.812 56.5879C153.781 56.5879 153.751 56.5729 153.72 56.5729C149.817 55.9971 143.748 54.6721 137.132 51.7914C128.562 48.0465 122.143 47.067 116.349 48.5794C109.9 50.2646 104.594 54.989 99.6535 63.4295C95.1708 71.0918 90.5814 83.7521 88.2638 94.9438C85.1382 110.009 86.2359 120.149 91.5267 125.09C92.4111 125.969 96.7565 129.886 103.892 130.102C110.342 130.289 116.852 127.423 123.226 121.575C123.378 121.431 123.515 121.287 123.638 121.143C123.744 121.014 134.707 107.849 148.14 93.6761C170.233 70.3716 181.76 62.3634 187.554 59.7565C193.684 56.9911 198.486 56.1266 202.237 57.1346C206.247 58.2149 209.724 61.6142 212.85 67.5199C216.142 73.7418 220.884 84.9045 223.416 95.9229C225.977 107.086 225.611 115.511 222.409 119.069C222.394 119.084 222.378 119.098 222.364 119.112L222.409 119.069C222.12 119.343 219.939 121.331 216.402 121.388C216.341 121.388 216.28 121.388 216.219 121.388C212.544 121.388 208.321 119.27 204.006 115.266C197.129 108.872 180.662 93.5035 173.694 86.9929C171.925 85.3368 169.074 85.3509 167.321 87.0219C167.291 87.0509 167.26 87.0791 167.214 87.1223C165.399 88.8514 165.415 91.6309 167.244 93.345C174.273 99.9129 190.619 115.18 197.48 121.546C203.655 127.279 209.952 130.188 216.203 130.188C216.432 130.188 216.661 130.188 216.875 130.174C224.468 129.915 228.89 125.421 229.362 124.902L229.393 124.873C234.805 118.997 235.857 108.626 232.503 94.0652Z" fill="url(#paint0_linear)"/>
<path d="M155.872 65.7086C151.806 65.7086 148.508 62.2673 148.508 58.0231V44.531C148.508 40.2869 151.806 36.8457 155.872 36.8457C159.939 36.8457 163.236 40.2869 163.236 44.531V58.0231C163.236 62.2673 159.939 65.7086 155.872 65.7086Z" fill="#FFA8A8"/>
<path d="M140.837 60.7958C136.601 60.7958 133.166 57.3351 133.166 53.067V44.5742C133.166 40.3062 136.601 36.8457 140.837 36.8457C145.073 36.8457 148.508 40.3062 148.508 44.5742V53.067C148.508 57.3351 145.073 60.7958 140.837 60.7958Z" fill="#FFA8A8"/>
<path d="M170.907 65.7098C166.672 65.7098 163.236 62.2491 163.236 57.981V49.4883C163.236 45.2203 166.672 41.7598 170.907 41.7598C175.143 41.7598 178.578 45.2203 178.578 49.4883V57.981C178.578 62.2491 175.143 65.7098 170.907 65.7098Z" fill="#FFA8A8"/>
<path d="M186.249 64.4798C182.013 64.4798 178.578 61.1044 178.578 56.9415V53.595C178.578 49.4319 182.013 46.0566 186.249 46.0566C190.485 46.0566 193.92 49.4319 193.92 53.595V56.9274C193.934 61.0904 190.499 64.4798 186.249 64.4798Z" fill="#FFA8A8"/>
<g opacity="0.6">
<path opacity="0.6" d="M163.402 52.1489C163.402 47.976 166.79 44.5924 170.969 44.5924C175.147 44.5924 178.535 47.976 178.535 52.1489V49.6114C178.535 45.4383 175.147 42.0547 170.969 42.0547C166.79 42.0547 163.402 45.4383 163.402 49.6114V52.1489Z" fill="#FFEDED"/>
</g>
<g opacity="0.6">
<path opacity="0.6" d="M140.688 39.6275C144.866 39.6275 148.254 43.0112 148.254 47.1843C148.254 43.0112 151.643 39.6275 155.82 39.6275C159.999 39.6275 163.387 43.0112 163.387 47.1843V44.6466C163.387 40.4735 159.999 37.0898 155.82 37.0898C151.643 37.0898 148.254 40.4735 148.254 44.6466C148.254 40.4735 144.866 37.0898 140.688 37.0898C136.51 37.0898 133.121 40.4735 133.121 44.6466V47.1843C133.107 43.0112 136.51 39.6275 140.688 39.6275Z" fill="#FFEDED"/>
</g>
<g opacity="0.6">
<path opacity="0.6" d="M186.119 45.7617C181.941 45.7617 178.553 49.1453 178.553 53.3185V55.8565C178.553 51.6832 181.941 48.2994 186.119 48.2994C190.298 48.2994 193.686 51.6832 193.686 55.8565V53.3185C193.7 49.1453 190.312 45.7617 186.119 45.7617Z" fill="#FFEDED"/>
</g>
<path d="M144.019 55.8705C142.148 55.6145 138.899 55.6145 137.042 55.8705C136.303 55.9697 135.621 55.4862 135.621 54.861V52.5436C135.621 51.2641 145.44 51.2641 145.44 52.5436V54.861C145.425 55.4862 144.758 55.9697 144.019 55.8705Z" fill="#FFC4C4"/>
<path d="M159.36 60.7824C157.489 60.5264 154.241 60.5264 152.385 60.7824C151.645 60.8824 150.963 60.3989 150.963 59.7736V57.4559C150.963 56.1762 160.782 56.1762 160.782 57.4559V59.7736C160.782 60.3989 160.1 60.8824 159.36 60.7824Z" fill="#FFC4C4"/>
<path d="M174.175 60.7824C172.421 60.5264 169.376 60.5264 167.636 60.7824C166.942 60.8824 166.303 60.3989 166.303 59.7736V57.4559C166.303 56.1762 175.508 56.1762 175.508 57.4559V59.7736C175.508 60.3989 174.869 60.8824 174.175 60.7824Z" fill="#FFC4C4"/>
<path d="M189.431 58.9405C187.56 58.6837 184.311 58.6837 182.454 58.9405C181.715 59.0409 181.033 58.5558 181.033 57.9284V55.6173C181.033 54.3333 190.852 54.3333 190.852 55.6173V57.9284C190.852 58.5558 190.17 59.0409 189.431 58.9405Z" fill="#FFC4C4"/>
<path d="M153.407 99.1565C158.049 99.1565 161.805 95.3847 161.805 90.7224C161.805 86.0609 158.049 82.2891 153.407 82.2891H135.263C129.806 82.2891 124.643 84.9449 121.464 89.4089C121.071 89.9599 120.705 90.539 120.381 91.1321C117.541 96.3454 117.864 102.703 121.042 107.704L131.62 124.303C134.995 129.615 136.627 135.845 136.289 142.132L135.699 173.791H165.813C165.813 170.428 166.305 137.046 166.305 128.315C166.305 116.576 159.146 109.441 152.704 106.827C134.658 99.496 153.407 99.1565 153.407 99.1565Z" fill="#FFA8A8"/>
<path d="M153.642 82.9023H149.736V84.1823C149.736 86.8719 152.139 89.0444 155.114 89.0444H162.01C161.194 85.5275 157.761 82.9023 153.642 82.9023Z" fill="#FFC4C4"/>
<g opacity="0.6">
<path opacity="0.6" d="M161.359 113.474C160.851 112.839 160.301 112.261 159.75 111.712C159.566 111.528 159.369 111.345 159.185 111.176C158.522 110.57 157.83 110.005 157.125 109.513C156.828 109.301 156.517 109.089 156.221 108.892C155.812 108.638 155.402 108.384 154.993 108.158C154.894 108.102 154.795 108.046 154.682 107.99C154.076 107.666 153.454 107.383 152.847 107.13C145.803 104.282 144.335 102.491 145.182 101.364C145.182 101.364 145.168 101.364 145.168 101.35C142.909 102.364 141.639 105.297 152.847 110.217C159.115 112.967 166.23 119.677 166.497 131.012C166.497 130.956 166.497 130.914 166.497 130.858C166.497 130.815 166.497 130.772 166.497 130.73C166.497 130.674 166.497 130.632 166.497 130.576C166.497 130.505 166.497 130.448 166.497 130.392C166.497 130.364 166.497 130.322 166.497 130.293C166.497 130.223 166.497 130.152 166.497 130.082C166.497 130.054 166.497 130.011 166.497 129.983C166.497 129.913 166.497 129.842 166.497 129.771C166.497 129.729 166.497 129.673 166.497 129.631C166.497 129.56 166.497 129.503 166.497 129.433C166.497 129.405 166.497 129.377 166.497 129.349C166.497 129.293 166.497 129.236 166.497 129.179C166.497 129.137 166.497 129.095 166.497 129.053C166.497 129.011 166.497 128.968 166.497 128.926C166.497 128.883 166.497 128.841 166.497 128.813C166.497 128.757 166.497 128.714 166.497 128.658C166.497 128.63 166.497 128.601 166.497 128.587C166.497 122.539 164.592 117.732 161.854 114.122C161.698 113.897 161.529 113.685 161.359 113.474Z" fill="#FFEDED"/>
</g>
<g opacity="0.6">
<path opacity="0.6" d="M136.388 142.303C136.388 142.331 136.388 142.359 136.388 142.373L135.795 173.968H135.851L136.388 145.475C136.445 144.417 136.445 143.346 136.388 142.303Z" fill="#FFEDED"/>
</g>
<g opacity="0.6">
<path opacity="0.6" d="M120.423 94.5657C120.748 93.9738 121.114 93.3959 121.51 92.8453C124.701 88.391 129.867 85.7397 135.358 85.7397H153.568C157.69 85.7397 161.12 88.701 161.855 92.6064C161.953 92.0988 161.995 91.5912 161.995 91.0555C161.995 86.4027 158.227 82.6387 153.568 82.6387H135.358C129.881 82.6387 124.701 85.2891 121.51 89.7443C121.114 90.2941 120.748 90.8719 120.423 91.4639C118.856 94.326 118.249 97.5262 118.545 100.67C118.757 98.5554 119.364 96.4829 120.423 94.5657Z" fill="#FFEDED"/>
</g>
<path d="M182.082 159.667H135.798C134.677 159.667 133.779 158.76 133.779 157.657V152.464C133.779 151.348 134.691 150.455 135.798 150.455H182.082C183.202 150.455 184.1 151.362 184.1 152.464V157.657C184.1 158.76 183.188 159.667 182.082 159.667Z" fill="#333A62"/>
<path d="M165.381 156.595C166.228 156.595 166.916 156.046 166.916 155.367C166.916 154.689 166.228 154.139 165.381 154.139C164.534 154.139 163.848 154.689 163.848 155.367C163.848 156.046 164.534 156.595 165.381 156.595Z" fill="#7DADFF"/>
<path d="M161.395 156.595C162.073 156.595 162.623 156.046 162.623 155.367C162.623 154.689 162.073 154.139 161.395 154.139C160.717 154.139 160.168 154.689 160.168 155.367C160.168 156.046 160.717 156.595 161.395 156.595Z" fill="#7DADFF"/>
<path d="M157.098 156.595C157.776 156.595 158.326 156.046 158.326 155.367C158.326 154.689 157.776 154.139 157.098 154.139C156.421 154.139 155.871 154.689 155.871 155.367C155.871 156.046 156.421 156.595 157.098 156.595Z" fill="#7DADFF"/>
<rect x="132.883" y="151.975" width="53.9527" height="21.9965" fill="white"/>
<path fill-rule="evenodd" clip-rule="evenodd" d="M241.324 168.338C189.833 141.477 132.319 159.385 83.9283 175.001C50.4892 185.791 22.4362 186.308 0 179.541L0.0119257 150.305C24.0244 165.514 53.6254 170.409 88.1838 158.556C136.619 141.945 191.335 130.489 241.323 153.984C298.738 180.97 339.957 264.456 378.668 337.944C486.9 543.411 486.573 551.41 570 598.999H495.565C382.165 433.929 329.836 214.511 241.324 168.338Z" fill="#EAEAEA"/>
<defs>
<linearGradient id="paint0_linear" x1="86.5273" y1="89.0439" x2="234.42" y2="89.0439" gradientUnits="userSpaceOnUse">
<stop offset="0.02" stop-color="#00E47D"/>
<stop offset="0.67" stop-color="#DBEA7C"/>
<stop offset="1" stop-color="#FF8641"/>
</linearGradient>
</defs>
</svg>
