<svg width="1000" height="478" viewBox="0 0 1000 478" fill="none" xmlns="http://www.w3.org/2000/svg">
<path fill-rule="evenodd" clip-rule="evenodd" d="M410.469 -1C380.815 64.6988 386.995 142.292 411.227 195.244C485.684 357.947 850.083 390.208 850.083 293.01C850.821 286.74 849.17 280.748 847.3 273.965C842.76 257.491 836.934 236.353 860.929 195.244C908.807 113.217 887.148 57.9778 853.777 -1H1000V478H0V-1H410.469Z" fill="white"/>
<g filter="url(#filter0_i)">
<path fill-rule="evenodd" clip-rule="evenodd" d="M437.633 -30.2305C400.176 38.6081 406.961 122.143 431.539 180.448C500.078 343.035 835.514 375.273 835.514 278.145C836.193 271.879 834.673 265.891 832.952 259.113C828.773 242.65 823.41 221.528 845.498 180.448C893.8 90.6108 864.324 35.1959 828.824 -30.2305H836.799C838.12 -27.9698 839.438 -25.7211 840.75 -23.4828C880.603 44.5124 914.828 102.905 860.93 195.246C836.935 236.355 842.761 257.493 847.301 273.967C849.17 280.75 850.822 286.742 850.084 293.012C850.084 390.21 485.685 357.949 411.228 195.246C383.283 134.18 379.346 40.3425 426.689 -30.2305H437.633Z" fill="#F9F9F9"/>
</g>
<path d="M683.251 198.443V242.775C683.251 248.501 677.515 253.963 672.571 257.626C668.11 260.916 665.517 266.137 665.517 271.665C665.517 292.305 665.48 327.725 665.474 327.725C665.468 327.725 665.468 327.725 665.468 327.725L665.457 327.722L597.249 311.086L599.966 259.403L583.551 198.443H683.251Z" fill="#FF8C8C"/>
<path d="M665.457 327.722L597.249 311.086C607.232 314.414 632.687 322.487 665.457 327.722Z" fill="#FF8C8C"/>
<path d="M552.059 154.35C557.531 148.23 567.991 142.615 576.231 142.461C576.275 141.035 575.023 137.986 572.408 137.328C571.968 137.219 571.507 137.197 571.067 137.219C562.783 137.899 555.267 140.575 550.323 146.892C548.191 149.875 550.828 153.341 552.059 154.35Z" fill="#1A1A1A"/>
<path d="M710.142 154.35C704.67 148.23 694.21 142.615 685.97 142.461C685.926 141.035 687.178 137.986 689.793 137.328C690.233 137.219 690.694 137.197 691.134 137.219C699.418 137.899 706.934 140.575 711.878 146.892C714.032 149.875 711.395 153.341 710.142 154.35Z" fill="#1A1A1A"/>
<path d="M732.012 232.156C733.115 221.872 731.276 215.26 729.068 204.609L720.892 175.631C720.892 175.324 720.914 174.995 720.914 174.688C720.914 172.253 720.672 169.884 720.189 167.602L720.167 167.405L720.145 167.427C716.783 151.721 702.829 139.941 686.084 139.941C685.908 139.941 685.732 139.941 685.579 139.941H573.661V139.985C557.707 140.753 544.566 152.247 541.314 167.405C540.809 169.752 540.545 172.187 540.545 174.688C540.545 175.082 540.545 175.455 540.567 175.828C537.956 197.155 535.832 209.168 537.073 230.163C536.062 241.613 545.094 251.484 556.63 251.484C562.3 251.484 567.684 249.028 571.419 244.772C571.419 244.772 602.338 211.671 602.36 211.649H659.121C659.143 211.671 690.084 244.772 690.084 244.772C693.819 249.028 699.203 251.484 704.873 251.484C716.204 251.598 730.159 249.42 732.012 232.156Z" fill="#F2F2F2"/>
<path d="M620.862 200.434C623.249 194.681 620.512 188.085 614.749 185.702C608.985 183.319 602.378 186.051 599.991 191.804C597.603 197.557 600.34 204.153 606.103 206.536C611.867 208.919 618.474 206.187 620.862 200.434Z" fill="#F2F2F2"/>
<path d="M653.122 207.246C659.279 206.248 663.461 200.457 662.462 194.31C661.462 188.163 655.66 183.989 649.503 184.987C643.345 185.984 639.164 191.776 640.163 197.922C641.162 204.069 646.964 208.243 653.122 207.246Z" fill="#F2F2F2"/>
<path d="M704.873 251.482C706.894 251.482 708.828 251.175 710.652 250.626L682.524 221.561C676.393 215.222 667.933 211.646 659.121 211.646C659.165 211.712 690.084 244.769 690.084 244.769C693.819 249.025 699.203 251.482 704.873 251.482Z" fill="#CCCCCC"/>
<path d="M550.744 250.582C552.59 251.174 554.59 251.482 556.633 251.482C562.303 251.482 567.687 249.025 571.422 244.769C571.422 244.769 600.1 214.059 602.231 211.778L602.297 211.559C593.463 211.559 585.025 215.134 578.894 221.474L550.744 250.582Z" fill="#CCCCCC"/>
<path d="M610.404 204.562C615.076 204.562 618.864 200.781 618.864 196.117C618.864 191.453 615.076 187.672 610.404 187.672C605.731 187.672 601.943 191.453 601.943 196.117C601.943 200.781 605.731 204.562 610.404 204.562Z" fill="#1A1A1A"/>
<path d="M610.404 204.562C615.084 204.562 618.864 200.789 618.864 196.117C618.864 195.546 618.798 194.976 618.688 194.428C613.37 197.63 607.986 199.012 602.383 198.815C603.526 202.149 606.69 204.562 610.404 204.562Z" fill="#231F20"/>
<path d="M689.762 172.034C693.79 171.084 696.284 167.056 695.333 163.035C694.382 159.015 690.346 156.525 686.318 157.474C682.29 158.424 679.796 162.453 680.747 166.473C681.698 170.493 685.734 172.983 689.762 172.034Z" fill="#BCBEC0"/>
<path d="M695.003 192.633C696.587 188.816 694.771 184.44 690.948 182.859C687.124 181.278 682.741 183.091 681.157 186.908C679.573 190.724 681.389 195.1 685.212 196.681C689.036 198.262 693.419 196.45 695.003 192.633Z" fill="#BCBEC0"/>
<path d="M703.012 184.522C707.04 183.573 709.534 179.544 708.583 175.523C707.632 171.503 703.596 169.013 699.568 169.963C695.54 170.912 693.046 174.941 693.997 178.961C694.948 182.982 698.984 185.471 703.012 184.522Z" fill="#BCBEC0"/>
<path d="M676.516 185.135C680.543 184.186 683.037 180.157 682.086 176.137C681.135 172.116 677.099 169.627 673.072 170.576C669.044 171.525 666.55 175.554 667.501 179.575C668.452 183.595 672.488 186.085 676.516 185.135Z" fill="#BCBEC0"/>
<path d="M629.264 169.484H626.407C625.462 169.484 624.715 170.252 624.715 171.173C624.715 172.117 625.484 172.862 626.407 172.862H629.264C630.209 172.862 630.956 172.095 630.956 171.173C630.978 170.23 630.209 169.484 629.264 169.484Z" fill="#BCBEC0"/>
<path d="M638.685 169.484H635.829C634.884 169.484 634.137 170.252 634.137 171.173C634.137 172.117 634.906 172.862 635.829 172.862H638.685C639.63 172.862 640.378 172.095 640.378 171.173C640.378 170.23 639.63 169.484 638.685 169.484Z" fill="#BCBEC0"/>
<path d="M589.155 173.435H581.684V165.977C581.684 162.774 579.069 160.164 575.86 160.164C572.652 160.164 570.037 162.774 570.037 165.977V173.435H562.566C559.357 173.435 556.742 176.045 556.742 179.248C556.742 182.451 559.357 185.061 562.566 185.061H570.037V192.519C570.037 195.722 572.652 198.332 575.86 198.332C579.069 198.332 581.684 195.722 581.684 192.519V185.061H589.155C592.363 185.061 594.978 182.451 594.978 179.248C594.978 176.045 592.363 173.435 589.155 173.435Z" fill="#BCBEC0"/>
<path d="M670.838 204.851C652.6 187.434 644.953 191.319 644.953 191.319C644.953 191.319 644.953 191.319 644.929 191.297C644.264 191.542 643.694 191.855 643.291 192.235C643.243 192.279 643.196 192.324 643.148 192.391C640.322 195.07 645.285 200.095 648.135 202.752C659.083 212.934 684.54 236.603 695.227 246.473C703.514 254.132 711.945 258.531 720.351 259.603L726.55 253.842L726.858 246.026C726.17 246.138 725.457 246.205 724.697 246.227C724.602 246.227 724.365 244.999 724.27 245.022C718.428 246.942 712.111 242.945 705.391 236.737L670.838 204.851Z" fill="#FF8641"/>
<path d="M688.148 133.373C683.565 134.356 678.72 136.008 673.496 138.33C658.63 145.007 636.426 163.786 607.501 194.177C588.574 214.05 572.758 232.695 569.434 236.625C569.22 236.893 568.983 237.117 568.721 237.362C562.167 243.168 555.755 246.182 550.127 246.093C544.594 246.004 541.174 243.012 540.699 242.565L540.391 242.275C537.185 239.35 534.976 228.587 539.298 207.82C542.599 191.988 549.272 173.522 555.494 162.938C567.32 142.863 575.727 145.722 593.965 152.621C597.456 153.939 596.815 146.391 597.076 143.824L572.521 132.592C571.262 132.77 570.051 133.016 568.84 133.329C558.795 135.941 550.531 143.265 542.837 156.35C535.855 168.207 528.731 187.835 525.097 205.185C520.229 228.542 521.939 244.262 530.179 251.921C531.461 253.194 537.446 258.575 547.277 259.558C554.354 258.955 569.933 255.985 583.279 242.185C589.121 235.353 602.657 219.722 618.378 203.198C652.764 167.091 670.741 154.676 679.741 150.634C689.288 146.347 697.623 145.766 701.898 148.915C704.201 150.612 708.072 148.825 710.566 151.058L714.223 148.245L688.148 133.373Z" fill="#AF42AE"/>
<path d="M593.351 169.968H586.654V163.671C586.654 160.143 583.614 157.285 579.862 157.285H579.72C575.968 157.285 572.928 160.143 572.928 163.671V169.968H566.231C562.479 169.968 559.439 172.827 559.439 176.355V176.489C559.439 180.017 562.479 182.875 566.231 182.875H572.928V189.172C572.928 192.7 575.968 195.558 579.72 195.558H579.862C583.614 195.558 586.654 192.7 586.654 189.172V182.875H593.351C597.103 182.875 600.143 180.017 600.143 176.489V176.355C600.143 172.849 597.103 169.968 593.351 169.968Z" fill="#FF8641"/>
<path d="M691.577 169.876C695.091 168.507 696.76 164.719 695.304 161.415C693.849 158.111 689.82 156.542 686.306 157.91C682.792 159.279 681.123 163.067 682.579 166.371C684.035 169.676 688.063 171.245 691.577 169.876Z" fill="#AF42AE"/>
<path d="M695.723 190.036C696.332 186.506 693.782 183.18 690.028 182.607C686.274 182.034 682.736 184.431 682.127 187.961C681.517 191.492 684.067 194.818 687.821 195.391C691.576 195.964 695.113 193.566 695.723 190.036Z" fill="#AF42AE"/>
<path d="M675.584 182.918C679.388 182.918 682.471 180.019 682.471 176.442C682.471 172.866 679.388 169.967 675.584 169.967C671.781 169.967 668.697 172.866 668.697 176.442C668.697 180.019 671.781 182.918 675.584 182.918Z" fill="#AF42AE"/>
<path d="M702.301 182.918C706.104 182.918 709.188 180.019 709.188 176.442C709.188 172.866 706.104 169.967 702.301 169.967C698.497 169.967 695.414 172.866 695.414 176.442C695.414 180.019 698.497 182.918 702.301 182.918Z" fill="#AF42AE"/>
<path d="M743.741 203.821C739.514 185.533 731.844 167.423 726.097 156.593C719.305 143.799 710.946 136.229 700.568 133.46C691.188 130.959 680.359 132.545 667.488 138.328C652.622 145.004 630.418 163.784 601.493 194.174C582.567 214.047 566.751 232.693 563.426 236.623C563.212 236.891 562.975 237.114 562.714 237.36C556.159 243.165 549.747 246.18 544.119 246.09C538.586 246.001 535.166 243.009 534.691 242.562L534.383 242.272C531.177 239.347 528.968 228.584 533.29 207.818C536.591 191.986 543.264 173.519 549.486 162.935C561.312 142.861 571.263 142.928 589.097 150.676C598.834 154.896 607.905 157.219 614.721 158.492C616.193 158.759 617.689 158.335 618.758 157.353C620.396 155.857 621.987 154.383 623.579 152.976C626.286 150.565 624.861 146.277 621.18 145.719C621.133 145.719 621.085 145.697 621.038 145.697C614.958 144.803 605.507 142.749 595.2 138.283C581.854 132.478 571.856 130.959 562.832 133.304C552.787 135.916 544.523 143.24 536.829 156.326C529.847 168.205 522.699 187.833 519.089 205.183C514.221 228.539 515.931 244.259 524.171 251.918C525.549 253.281 532.317 259.354 543.431 259.689C553.476 259.979 563.616 255.536 573.542 246.47C573.78 246.247 573.994 246.023 574.184 245.8C574.35 245.599 591.424 225.19 612.346 203.218C646.756 167.088 664.709 154.673 673.733 150.631C683.28 146.344 690.76 145.004 696.602 146.568C702.848 148.242 708.262 153.512 713.131 162.667C718.26 172.314 725.646 189.619 729.588 206.701C733.577 224.006 733.007 237.069 728.02 242.585C727.997 242.607 727.973 242.629 727.949 242.652L728.02 242.585C727.569 243.009 724.173 246.09 718.664 246.18C718.569 246.18 718.474 246.18 718.379 246.18C712.656 246.18 706.078 242.897 699.357 236.69C688.647 226.775 663 202.95 652.147 192.857C649.392 190.289 644.951 190.311 642.22 192.901C642.173 192.946 642.125 192.991 642.054 193.058C639.228 195.737 639.252 200.047 642.102 202.704C653.049 212.886 678.507 236.556 689.193 246.425C698.811 255.313 708.619 259.823 718.355 259.823C718.711 259.823 719.067 259.823 719.4 259.801C731.226 259.399 738.113 252.432 738.849 251.628L738.897 251.584C747.327 242.473 748.966 226.396 743.741 203.821Z" fill="url(#paint0_linear)"/>
<path d="M624.398 159.571C617.893 159.571 612.619 154.306 612.619 147.813V127.172C612.619 120.679 617.893 115.414 624.398 115.414C630.902 115.414 636.176 120.679 636.176 127.172V147.813C636.176 154.306 630.902 159.571 624.398 159.571Z" fill="#FFA8A8"/>
<path d="M600.818 151.871C594.313 151.871 589.039 146.606 589.039 140.113V127.193C589.039 120.7 594.313 115.436 600.818 115.436C607.322 115.436 612.596 120.7 612.596 127.193V140.113C612.596 146.606 607.322 151.871 600.818 151.871Z" fill="#FFA8A8"/>
<path d="M647.98 159.57C641.475 159.57 636.201 154.305 636.201 147.812V134.892C636.201 128.399 641.475 123.135 647.98 123.135C654.484 123.135 659.758 128.399 659.758 134.892V147.812C659.758 154.305 654.484 159.57 647.98 159.57Z" fill="#FFA8A8"/>
<path d="M671.536 157.663C665.032 157.663 659.758 152.399 659.758 145.906V140.685C659.758 134.192 665.032 128.928 671.536 128.928C678.041 128.928 683.315 134.192 683.315 140.685V145.884C683.337 152.377 678.063 157.663 671.536 157.663Z" fill="#FFA8A8"/>
<g opacity="0.6">
<path opacity="0.6" d="M636.174 138.843C636.174 132.35 641.448 127.085 647.952 127.085C654.457 127.085 659.731 132.35 659.731 138.843V134.894C659.731 128.401 654.457 123.137 647.952 123.137C641.448 123.137 636.174 128.401 636.174 134.894V138.843Z" fill="#FFEDED"/>
</g>
<g opacity="0.6">
<path opacity="0.6" d="M600.818 119.364C607.322 119.364 612.596 124.629 612.596 131.122C612.596 124.629 617.87 119.364 624.375 119.364C630.879 119.364 636.153 124.629 636.153 131.122V127.174C636.153 120.681 630.879 115.416 624.375 115.416C617.87 115.416 612.596 120.681 612.596 127.174C612.596 120.681 607.322 115.416 600.818 115.416C594.313 115.416 589.039 120.681 589.039 127.174V131.122C589.017 124.629 594.313 119.364 600.818 119.364Z" fill="#FFEDED"/>
</g>
<g opacity="0.6">
<path opacity="0.6" d="M671.534 128.906C665.03 128.906 659.756 134.171 659.756 140.664V144.612C659.756 138.119 665.03 132.855 671.534 132.855C678.039 132.855 683.313 138.119 683.313 144.612V140.664C683.335 134.171 678.061 128.906 671.534 128.906Z" fill="#FFEDED"/>
</g>
<path d="M605.639 144.961C602.805 144.566 597.882 144.566 595.07 144.961C593.949 145.115 592.916 144.369 592.916 143.404V139.828C592.916 137.854 607.793 137.854 607.793 139.828V143.404C607.771 144.369 606.76 145.115 605.639 144.961Z" fill="#FFC4C4"/>
<path d="M629.792 152.114C626.957 151.719 622.035 151.719 619.222 152.114C618.101 152.267 617.068 151.521 617.068 150.556V146.981C617.068 145.006 631.945 145.006 631.945 146.981V150.556C631.945 151.521 630.913 152.267 629.792 152.114Z" fill="#FFC4C4"/>
<path d="M653.165 152.114C650.33 151.719 645.408 151.719 642.595 152.114C641.474 152.267 640.441 151.521 640.441 150.556V146.981C640.441 145.006 655.318 145.006 655.318 146.981V150.556C655.318 151.521 654.286 152.267 653.165 152.114Z" fill="#FFC4C4"/>
<path d="M676.546 149.787C673.711 149.392 668.789 149.392 665.976 149.787C664.855 149.941 663.822 149.195 663.822 148.23V144.676C663.822 142.702 678.699 142.702 678.699 144.676V148.23C678.699 149.195 677.666 149.941 676.546 149.787Z" fill="#FFC4C4"/>
<path d="M621.02 212.173C628.265 212.173 634.126 206.3 634.126 199.041C634.126 191.782 628.265 185.908 621.02 185.908H592.702C584.184 185.908 576.128 190.044 571.167 196.995C570.552 197.853 569.981 198.755 569.476 199.679C565.042 207.796 565.547 217.695 570.508 225.482L587.016 251.329C592.285 259.601 594.831 269.301 594.304 279.09L593.728 309.894C612.224 316.076 623.538 319.071 640.51 322.971C640.469 326.45 640.51 322.028 640.51 322.971C640.696 307.136 641.151 268.722 641.151 257.577C641.151 239.297 629.977 228.188 619.923 224.118C591.758 212.701 621.02 212.173 621.02 212.173Z" fill="#FFA8A8"/>
<path d="M620.841 186.287H614.842V188.459C614.842 193.021 618.534 196.707 623.104 196.707H633.696C632.444 190.74 627.17 186.287 620.841 186.287Z" fill="#FFC4C4"/>
<g opacity="0.6">
<path opacity="0.6" d="M632.994 234.261C632.203 233.274 631.346 232.375 630.489 231.519C630.204 231.234 629.896 230.949 629.61 230.686C628.577 229.742 627.501 228.865 626.402 228.097C625.94 227.768 625.457 227.439 624.995 227.132C624.358 226.737 623.721 226.342 623.084 225.991C622.93 225.904 622.776 225.816 622.6 225.728C621.655 225.224 620.688 224.785 619.744 224.39C608.778 219.959 606.493 217.173 607.811 215.418C607.811 215.418 607.789 215.418 607.789 215.396C604.273 216.976 602.296 221.538 619.744 229.194C629.5 233.471 640.576 243.913 640.993 261.549C640.993 261.461 640.993 261.396 640.993 261.308C640.993 261.242 640.993 261.176 640.993 261.11C640.993 261.023 640.993 260.957 640.993 260.869C640.993 260.76 640.993 260.672 640.993 260.584C640.993 260.54 640.993 260.474 640.993 260.43C640.993 260.321 640.993 260.211 640.993 260.101C640.993 260.058 640.993 259.992 640.993 259.948C640.993 259.838 640.993 259.729 640.993 259.619C640.993 259.553 640.993 259.465 640.993 259.399C640.993 259.29 640.993 259.202 640.993 259.092C640.993 259.049 640.993 259.005 640.993 258.961C640.993 258.873 640.993 258.785 640.993 258.698C640.993 258.632 640.993 258.566 640.993 258.5C640.993 258.434 640.993 258.368 640.993 258.303C640.993 258.237 640.993 258.171 640.993 258.127C640.993 258.039 640.993 257.974 640.993 257.886C640.993 257.842 640.993 257.798 640.993 257.776C640.993 248.366 638.027 240.886 633.763 235.27C633.522 234.919 633.258 234.59 632.994 234.261Z" fill="#FFEDED"/>
</g>
<g opacity="0.6">
<path opacity="0.6" d="M594.118 279.121C594.118 279.165 594.118 279.209 594.118 279.231L593.588 309.753H593.676L594.118 284.057C594.206 282.411 594.206 280.744 594.118 279.121Z" fill="#FFEDED"/>
</g>
<g opacity="0.6">
<path opacity="0.6" d="M569.264 204.847C569.77 203.925 570.341 203.026 570.956 202.17C575.923 195.239 583.966 191.115 592.514 191.115H620.861C627.278 191.115 632.618 195.721 633.76 201.798C633.914 201.008 633.98 200.218 633.98 199.385C633.98 192.146 628.113 186.289 620.861 186.289H592.514C583.987 186.289 575.923 190.413 570.956 197.345C570.341 198.2 569.77 199.099 569.264 200.021C566.825 204.474 565.88 209.453 566.342 214.345C566.671 211.054 567.616 207.83 569.264 204.847Z" fill="#FFEDED"/>
</g>
<path d="M665.518 306.452H592.957C591.199 306.452 589.793 305.026 589.793 303.293V295.133C589.793 293.378 591.221 291.975 592.957 291.975H665.518C667.276 291.975 668.683 293.4 668.683 295.133V303.293C668.683 305.026 667.254 306.452 665.518 306.452Z" fill="#333A62"/>
<path d="M639.239 301.187C640.332 301.187 641.217 300.303 641.217 299.212C641.217 298.122 640.332 297.238 639.239 297.238C638.147 297.238 637.262 298.122 637.262 299.212C637.262 300.303 638.147 301.187 639.239 301.187Z" fill="#7DADFF"/>
<path d="M632.863 301.187C633.955 301.187 634.84 300.303 634.84 299.212C634.84 298.122 633.955 297.238 632.863 297.238C631.77 297.238 630.885 298.122 630.885 299.212C630.885 300.303 631.77 301.187 632.863 301.187Z" fill="#7DADFF"/>
<path d="M626.491 301.187C627.584 301.187 628.469 300.303 628.469 299.212C628.469 298.122 627.584 297.238 626.491 297.238C625.399 297.238 624.514 298.122 624.514 299.212C624.514 300.303 625.399 301.187 626.491 301.187Z" fill="#7DADFF"/>
<path d="M665.521 291.975H645.832V306.452H665.521C667.279 306.452 668.686 305.026 668.686 303.293V295.133C668.686 293.4 667.257 291.975 665.521 291.975Z" fill="#1D202E"/>
<defs>
<filter id="filter0_i" x="390.559" y="-30.2305" width="498.184" height="381.923" filterUnits="userSpaceOnUse" color-interpolation-filters="sRGB">
<feFlood flood-opacity="0" result="BackgroundImageFix"/>
<feBlend mode="normal" in="SourceGraphic" in2="BackgroundImageFix" result="shape"/>
<feColorMatrix in="SourceAlpha" type="matrix" values="0 0 0 0 0 0 0 0 0 0 0 0 0 0 0 0 0 0 127 0" result="hardAlpha"/>
<feOffset dy="4"/>
<feGaussianBlur stdDeviation="3"/>
<feComposite in2="hardAlpha" operator="arithmetic" k2="-1" k3="1"/>
<feColorMatrix type="matrix" values="0 0 0 0 0.101961 0 0 0 0 0.101961 0 0 0 0 0.101961 0 0 0 0.3 0"/>
<feBlend mode="normal" in2="shape" result="effect1_innerShadow"/>
</filter>
<linearGradient id="paint0_linear" x1="516.385" y1="196.036" x2="746.728" y2="196.036" gradientUnits="userSpaceOnUse">
<stop offset="0.02" stop-color="#00E47D"/>
<stop offset="0.67" stop-color="#DBEA7C"/>
<stop offset="1" stop-color="#FF8641"/>
</linearGradient>
</defs>
</svg>
