<svg width="1440" height="467" viewBox="0 0 1440 467" fill="none" xmlns="http://www.w3.org/2000/svg">
<g clip-path="url(#clip0)">
<rect width="1440" height="467" fill="white"/>
<path d="M1187.23 93.7613C1076.15 -151.807 455.073 -134.543 594.203 93.7613C664.026 208.336 544.623 340.923 612.237 457.372C614.153 460.672 616.083 463.88 618.029 467H1197.63C1260.1 348.405 1244.94 221.342 1187.23 93.7613Z" fill="#1A1A1A"/>
<path d="M696.566 98.8938C764.18 213.553 648.554 346.239 714.029 462.774C714.83 464.2 715.634 465.609 716.44 467.001H1283.61C1340.94 349.868 1289.76 234.837 1270.84 98.8938C1265.38 59.7297 1263.5 35.501 1260 0.000923157C1260 -160.499 579.608 -99.4409 696.566 98.8938Z" fill="url(#paint0_linear)"/>
<path d="M895.98 424.787C889.418 424.787 884.082 419.461 884.082 412.91C884.082 406.359 889.418 401.033 895.98 401.033C902.543 401.033 907.878 406.359 907.878 412.91C907.878 419.461 902.543 424.787 895.98 424.787ZM895.98 404.821C891.529 404.821 887.877 408.439 887.877 412.91C887.877 417.382 891.501 420.999 895.98 420.999C900.431 420.999 904.084 417.382 904.084 412.91C904.084 408.439 900.431 404.821 895.98 404.821Z" fill="white"/>
<path d="M922.772 378.818C914.07 378.818 906.965 371.754 906.965 363.039C906.965 354.352 914.041 347.26 922.772 347.26C931.475 347.26 938.579 354.323 938.579 363.039C938.579 371.726 931.503 378.818 922.772 378.818ZM922.772 351.076C916.152 351.076 910.788 356.431 910.788 363.039C910.788 369.647 916.152 375.001 922.772 375.001C929.392 375.001 934.756 369.647 934.756 363.039C934.756 356.431 929.392 351.076 922.772 351.076Z" fill="white"/>
<path d="M1085.41 188.558C1076.71 188.558 1069.6 181.495 1069.6 172.779C1069.6 164.064 1076.68 157 1085.41 157C1094.14 157 1101.22 164.064 1101.22 172.779C1101.22 181.495 1094.14 188.558 1085.41 188.558ZM1085.41 160.817C1078.79 160.817 1073.42 166.171 1073.42 172.779C1073.42 179.387 1078.79 184.742 1085.41 184.742C1092.03 184.742 1097.39 179.387 1097.39 172.779C1097.39 166.171 1092.03 160.817 1085.41 160.817Z" fill="white"/>
<path d="M857.661 228.234C857.261 228.234 856.89 228.12 856.548 227.893C856.149 227.608 855.863 227.152 855.778 226.668L852.182 205.449C852.011 204.423 852.696 203.426 853.752 203.256L875.009 199.667C876.036 199.496 877.035 200.179 877.206 201.233L880.801 222.452C880.972 223.478 880.287 224.475 879.232 224.646L857.975 228.234C857.889 228.206 857.775 228.234 857.661 228.234ZM856.263 206.673L859.23 224.133L876.721 221.171L873.753 203.711L856.263 206.673Z" fill="white"/>
<path d="M1068.2 383.489C1067.29 383.489 1066.49 382.834 1066.32 381.894L1062.73 360.675C1062.55 359.65 1063.24 358.653 1064.29 358.482L1085.55 354.893C1086.58 354.722 1087.58 355.406 1087.75 356.46L1091.34 377.679C1091.52 378.704 1090.83 379.701 1089.77 379.872L1068.52 383.461C1068.4 383.489 1068.32 383.489 1068.2 383.489ZM1066.81 361.928L1069.77 379.388L1087.26 376.426L1084.3 358.966L1066.81 361.928Z" fill="white"/>
<path d="M859.457 353.212C858.715 353.212 858.03 352.785 857.716 352.073L842.166 316.869C841.738 315.901 842.166 314.79 843.136 314.363C844.106 313.936 845.219 314.363 845.647 315.331L861.197 350.535C861.625 351.503 861.197 352.614 860.227 353.041C859.97 353.155 859.714 353.212 859.457 353.212Z" fill="white"/>
<path d="M1051.34 398.898H1045.35V404.88H1051.34V398.898Z" fill="white"/>
<path d="M1067.26 279.559H1061.27V285.54H1067.26V279.559Z" fill="white"/>
<path d="M869.018 290.238H864.566V294.682H869.018V290.238Z" fill="white"/>
<path d="M917.006 242.047H912.555V246.49H917.006V242.047Z" fill="white"/>
<path d="M856.846 376.277C857.571 373.183 855.646 370.088 852.547 369.364C849.447 368.64 846.347 370.562 845.622 373.656C844.896 376.75 846.821 379.845 849.921 380.568C853.02 381.292 856.121 379.371 856.846 376.277Z" fill="white"/>
<path d="M901.639 182.31C902.364 179.216 900.439 176.121 897.34 175.398C894.24 174.674 891.14 176.595 890.415 179.689C889.689 182.783 891.614 185.878 894.714 186.602C897.813 187.325 900.913 185.404 901.639 182.31Z" fill="white"/>
<path d="M1099.87 404.737C1103.05 404.737 1105.63 402.161 1105.63 398.984C1105.63 395.806 1103.05 393.23 1099.87 393.23C1096.69 393.23 1094.11 395.806 1094.11 398.984C1094.11 402.161 1096.69 404.737 1099.87 404.737Z" fill="white"/>
<path d="M1132.74 218.065C1134.89 218.065 1136.62 216.331 1136.62 214.192C1136.62 212.053 1134.89 210.318 1132.74 210.318C1130.6 210.318 1128.86 212.053 1128.86 214.192C1128.86 216.331 1130.6 218.065 1132.74 218.065Z" fill="white"/>
<path d="M873.014 271.471C872.472 271.471 871.93 271.243 871.559 270.787C870.874 269.99 870.988 268.794 871.787 268.11L892.217 251.078C893.016 250.394 894.214 250.508 894.899 251.306C895.584 252.103 895.47 253.299 894.671 253.983L874.241 271.015C873.899 271.329 873.442 271.471 873.014 271.471Z" fill="white"/>
<path d="M1080.93 318.806C1080.61 318.806 1080.3 318.721 1079.99 318.55C1079.07 318.037 1078.73 316.87 1079.24 315.958L1104.55 270.9C1105.07 269.988 1106.24 269.646 1107.15 270.159C1108.06 270.672 1108.4 271.839 1107.89 272.751L1082.58 317.838C1082.24 318.465 1081.58 318.806 1080.93 318.806Z" fill="white"/>
<path d="M1064.73 232.706C1064.13 232.706 1063.53 232.421 1063.19 231.908C1062.79 231.367 1062.73 230.627 1063.01 230.029L1070.83 212.797C1071.09 212.199 1071.66 211.8 1072.32 211.686C1072.97 211.601 1073.6 211.857 1074.03 212.341L1086.92 227.608C1087.38 228.149 1087.5 228.889 1087.24 229.544C1086.98 230.2 1086.35 230.655 1085.64 230.712L1064.93 232.649C1064.84 232.706 1064.78 232.706 1064.73 232.706ZM1073.03 217.098L1067.81 228.576L1081.62 227.266L1073.03 217.098Z" fill="white"/>
<path d="M1073.22 434.16L1069.26 443.531C1068.86 444.47 1069.6 445.524 1070.63 445.41L1079.93 444.584C1080.96 444.499 1081.5 443.36 1080.96 442.505L1075.62 433.961C1075.05 433.049 1073.65 433.163 1073.22 434.16Z" fill="white"/>
<path d="M929.035 191.472L907.965 202.014L909.678 205.426L930.748 194.884L929.035 191.472Z" fill="white"/>
<path d="M1049.37 197.274C1048.69 197.274 1048.03 196.903 1047.69 196.277L1035.36 173.662C1034.85 172.751 1035.19 171.583 1036.13 171.07C1037.05 170.557 1038.22 170.899 1038.73 171.839L1051.06 194.454C1051.57 195.365 1051.23 196.533 1050.29 197.046C1049.97 197.188 1049.66 197.274 1049.37 197.274Z" fill="white"/>
<path d="M1056.66 298.271V355.834C1056.66 363.268 1049.22 370.36 1042.8 375.116C1037.01 379.388 1033.64 386.167 1033.64 393.345C1033.64 422.539 1033.58 466.999 1033.58 466.999H943.503L948.525 377.423L927.211 298.271H1056.66" fill="#FF8C8C"/>
<path d="M886.323 241.022C893.428 233.076 907.009 225.784 917.709 225.585C917.766 223.733 916.14 219.774 912.745 218.92C912.174 218.778 911.575 218.749 911.004 218.778C900.247 219.66 890.489 223.135 884.069 231.338C881.301 235.212 884.725 239.712 886.323 241.022Z" fill="#1A1A1A"/>
<path d="M1091.58 241.022C1084.48 233.076 1070.9 225.784 1060.2 225.585C1060.14 223.733 1061.77 219.774 1065.16 218.92C1065.73 218.778 1066.33 218.749 1066.9 218.778C1077.66 219.66 1087.42 223.135 1093.84 231.338C1096.63 235.212 1093.21 239.712 1091.58 241.022Z" fill="#1A1A1A"/>
<path d="M1119.98 342.046C1121.41 328.692 1119.02 320.107 1116.16 306.277L1105.54 268.651C1105.54 268.252 1105.57 267.825 1105.57 267.426C1105.57 264.265 1105.26 261.189 1104.63 258.226L1104.6 257.97L1104.57 257.999C1100.21 237.605 1082.09 222.311 1060.34 222.311C1060.12 222.311 1059.89 222.311 1059.69 222.311H914.37V222.368C893.655 223.364 876.593 238.289 872.37 257.97C871.714 261.018 871.371 264.179 871.371 267.426C871.371 267.939 871.371 268.423 871.4 268.907C868.009 296.599 865.252 312.197 866.863 339.457C865.55 354.325 877.278 367.142 892.257 367.142C899.619 367.142 906.609 363.952 911.46 358.426C911.46 358.426 951.606 315.447 951.634 315.418H1025.33C1025.36 315.447 1065.54 358.426 1065.54 358.426C1070.39 363.952 1077.38 367.142 1084.74 367.142C1099.45 367.289 1117.57 364.461 1119.98 342.046Z" fill="#F2F2F2"/>
<path d="M975.658 300.859C978.757 293.389 975.204 284.825 967.72 281.731C960.237 278.637 951.658 282.184 948.558 289.654C945.458 297.124 949.012 305.688 956.495 308.782C963.979 311.877 972.558 308.329 975.658 300.859Z" fill="#F2F2F2"/>
<path d="M1017.54 309.701C1025.54 308.406 1030.97 300.886 1029.67 292.905C1028.37 284.924 1020.84 279.504 1012.84 280.799C1004.85 282.095 999.419 289.614 1000.72 297.595C1002.01 305.577 1009.55 310.996 1017.54 309.701Z" fill="#F2F2F2"/>
<path d="M1084.74 367.141C1087.37 367.141 1089.88 366.743 1092.25 366.031L1055.72 328.292C1047.76 320.061 1036.78 315.418 1025.34 315.418C1025.39 315.503 1065.54 358.426 1065.54 358.426C1070.39 363.951 1077.38 367.141 1084.74 367.141Z" fill="#CCCCCC"/>
<path d="M884.613 365.972C887.01 366.741 889.607 367.14 892.26 367.14C899.622 367.14 906.612 363.95 911.463 358.425C911.463 358.425 948.698 318.55 951.466 315.588L951.552 315.303C940.081 315.303 929.125 319.945 921.164 328.177L884.613 365.972Z" fill="#CCCCCC"/>
<path d="M962.079 306.216C968.146 306.216 973.064 301.307 973.064 295.251C973.064 289.195 968.146 284.285 962.079 284.285C956.012 284.285 951.094 289.195 951.094 295.251C951.094 301.307 956.012 306.216 962.079 306.216Z" fill="#1A1A1A"/>
<path d="M962.079 306.217C968.156 306.217 973.064 301.318 973.064 295.252C973.064 294.511 972.978 293.771 972.835 293.059C965.931 297.217 958.94 299.011 951.664 298.755C953.148 303.084 957.257 306.217 962.079 306.217Z" fill="#231F20"/>
<path d="M1065.12 263.981C1070.35 262.748 1073.59 257.517 1072.35 252.297C1071.12 247.077 1065.88 243.844 1060.65 245.077C1055.42 246.309 1052.18 251.54 1053.42 256.761C1054.65 261.981 1059.89 265.214 1065.12 263.981Z" fill="#BCBEC0"/>
<path d="M1071.92 290.728C1073.98 285.772 1071.62 280.091 1066.66 278.038C1061.69 275.985 1056 278.339 1053.95 283.294C1051.89 288.25 1054.25 293.932 1059.21 295.985C1064.18 298.037 1069.87 295.684 1071.92 290.728Z" fill="#BCBEC0"/>
<path d="M1082.32 280.196C1087.55 278.963 1090.79 273.732 1089.56 268.512C1088.32 263.291 1083.08 260.059 1077.85 261.292C1072.62 262.524 1069.38 267.755 1070.62 272.976C1071.85 278.196 1077.09 281.428 1082.32 280.196Z" fill="#BCBEC0"/>
<path d="M1047.92 280.993C1053.15 279.76 1056.39 274.529 1055.15 269.309C1053.92 264.088 1048.68 260.856 1043.45 262.088C1038.22 263.321 1034.98 268.552 1036.22 273.772C1037.45 278.993 1042.69 282.225 1047.92 280.993Z" fill="#BCBEC0"/>
<path d="M986.566 260.674H982.857C981.63 260.674 980.66 261.671 980.66 262.867C980.66 264.092 981.659 265.06 982.857 265.06H986.566C987.793 265.06 988.764 264.063 988.764 262.867C988.792 261.642 987.793 260.674 986.566 260.674Z" fill="#BCBEC0"/>
<path d="M998.801 260.674H995.092C993.865 260.674 992.895 261.671 992.895 262.867C992.895 264.092 993.893 265.06 995.092 265.06H998.801C1000.03 265.06 1001 264.063 1001 262.867C1001 261.642 1000.03 260.674 998.801 260.674Z" fill="#BCBEC0"/>
<path d="M934.488 265.8H924.787V256.116C924.787 251.958 921.392 248.568 917.226 248.568C913.06 248.568 909.665 251.958 909.665 256.116V265.8H899.964C895.798 265.8 892.402 269.189 892.402 273.348C892.402 277.506 895.798 280.896 899.964 280.896H909.665V290.579C909.665 294.738 913.06 298.127 917.226 298.127C921.392 298.127 924.787 294.738 924.787 290.579V280.896H934.488C938.654 280.896 942.05 277.506 942.05 273.348C942.05 269.189 938.654 265.8 934.488 265.8Z" fill="#BCBEC0"/>
<path d="M1040.55 306.591C1016.86 283.976 1006.94 289.021 1006.94 289.021C1006.94 289.021 1006.94 289.021 1006.91 288.992C1006.04 289.311 1005.3 289.717 1004.78 290.21C1004.72 290.268 1004.65 290.326 1004.59 290.413C1000.92 293.892 1007.37 300.416 1011.07 303.866C1025.28 317.087 1058.34 347.82 1072.21 360.635C1082.97 370.58 1093.92 376.292 1104.84 377.683L1112.88 370.203L1113.28 360.055C1112.39 360.2 1111.47 360.287 1110.48 360.316C1110.36 360.316 1110.05 358.722 1109.92 358.751C1102.34 361.244 1094.14 356.054 1085.41 347.994L1040.55 306.591Z" fill="#FF8641"/>
<path d="M1063.02 213.78C1057.07 215.056 1050.78 217.202 1044 220.217C1024.7 228.886 995.865 253.27 958.309 292.73C933.734 318.534 913.198 342.744 908.881 347.846C908.603 348.194 908.295 348.484 907.956 348.803C899.445 356.342 891.12 360.256 883.812 360.14C876.628 360.024 872.188 356.139 871.571 355.559L871.17 355.182C867.007 351.384 864.14 337.409 869.752 310.445C874.038 289.888 882.702 265.911 890.781 252.168C906.137 226.103 917.052 229.814 940.733 238.773C945.266 240.483 944.433 230.684 944.772 227.349L912.889 212.766C911.255 212.998 909.683 213.317 908.11 213.722C895.067 217.115 884.336 226.625 874.346 243.615C865.281 259.01 856.03 284.496 851.312 307.024C844.991 337.351 847.211 357.762 857.911 367.707C859.576 369.36 867.347 376.347 880.112 377.623C889.301 376.84 909.528 372.984 926.857 355.066C934.443 346.194 952.019 325.898 972.431 304.443C1017.08 257.561 1040.42 241.44 1052.11 236.192C1064.5 230.626 1075.33 229.872 1080.88 233.96C1083.87 236.163 1088.89 233.844 1092.13 236.743L1096.88 233.09L1063.02 213.78Z" fill="#AF42AE"/>
<path d="M939.934 261.298H931.239V253.122C931.239 248.541 927.292 244.83 922.42 244.83H922.235C917.363 244.83 913.416 248.541 913.416 253.122V261.298H904.721C899.849 261.298 895.902 265.01 895.902 269.591V269.765C895.902 274.345 899.849 278.057 904.721 278.057H913.416V286.233C913.416 290.814 917.363 294.525 922.235 294.525H922.42C927.292 294.525 931.239 290.814 931.239 286.233V278.057H939.934C944.806 278.057 948.753 274.345 948.753 269.765V269.591C948.753 265.039 944.806 261.298 939.934 261.298Z" fill="#FF8641"/>
<path d="M1067.48 261.18C1072.04 259.403 1074.21 254.484 1072.32 250.194C1070.43 245.904 1065.2 243.866 1060.63 245.644C1056.07 247.421 1053.9 252.339 1055.79 256.63C1057.68 260.92 1062.91 262.957 1067.48 261.18Z" fill="#AF42AE"/>
<path d="M1072.86 287.357C1073.65 282.773 1070.34 278.454 1065.47 277.711C1060.59 276.967 1056 280.079 1055.21 284.663C1054.41 289.247 1057.73 293.566 1062.6 294.31C1067.48 295.054 1072.07 291.941 1072.86 287.357Z" fill="#AF42AE"/>
<path d="M1046.71 278.115C1051.65 278.115 1055.65 274.351 1055.65 269.707C1055.65 265.063 1051.65 261.299 1046.71 261.299C1041.77 261.299 1037.77 265.063 1037.77 269.707C1037.77 274.351 1041.77 278.115 1046.71 278.115Z" fill="#AF42AE"/>
<path d="M1081.4 278.115C1086.34 278.115 1090.34 274.351 1090.34 269.707C1090.34 265.063 1086.34 261.299 1081.4 261.299C1076.46 261.299 1072.46 265.063 1072.46 269.707C1072.46 274.351 1076.46 278.115 1081.4 278.115Z" fill="#AF42AE"/>
<path d="M1135.21 305.255C1129.72 281.509 1119.76 257.995 1112.3 243.933C1103.48 227.32 1092.63 217.491 1079.15 213.896C1066.97 210.649 1052.91 212.707 1036.2 220.217C1016.9 228.886 988.065 253.269 950.508 292.729C925.933 318.534 905.397 342.743 901.08 347.846C900.803 348.194 900.494 348.484 900.155 348.803C891.645 356.341 883.319 360.255 876.011 360.139C868.827 360.023 864.387 356.138 863.77 355.558L863.369 355.181C859.207 351.383 856.339 337.408 861.951 310.444C866.237 289.888 874.901 265.91 882.98 252.167C898.336 226.102 911.255 226.189 934.412 236.25C947.055 241.73 958.833 244.745 967.683 246.398C969.595 246.746 971.537 246.195 972.925 244.919C975.052 242.976 977.118 241.063 979.184 239.236C982.699 236.105 980.849 230.538 976.07 229.813C976.008 229.813 975.947 229.784 975.885 229.784C967.991 228.625 955.719 225.957 942.337 220.159C925.008 212.62 912.026 210.649 900.309 213.693C887.266 217.085 876.536 226.595 866.545 243.585C857.48 259.01 848.199 284.495 843.512 307.023C837.191 337.35 839.411 357.762 850.11 367.707C851.899 369.475 860.687 377.361 875.117 377.796C888.16 378.173 901.327 372.404 914.216 360.632C914.524 360.342 914.801 360.052 915.048 359.762C915.264 359.501 937.434 333.001 964.599 304.472C1009.28 257.56 1032.59 241.44 1044.31 236.192C1056.7 230.625 1066.42 228.886 1074 230.915C1082.11 233.09 1089.14 239.932 1095.46 251.82C1102.12 264.345 1111.71 286.815 1116.83 308.995C1122.01 331.465 1121.27 348.426 1114.8 355.587C1114.76 355.616 1114.73 355.645 1114.7 355.674L1114.8 355.587C1114.21 356.138 1109.8 360.139 1102.65 360.255C1102.52 360.255 1102.4 360.255 1102.28 360.255C1094.85 360.255 1086.3 355.993 1077.58 347.933C1063.67 335.06 1030.37 304.124 1016.28 291.019C1012.7 287.684 1006.94 287.713 1003.39 291.077C1003.33 291.135 1003.27 291.193 1003.17 291.28C999.504 294.759 999.535 300.355 1003.24 303.805C1017.45 317.026 1050.5 347.759 1064.38 360.574C1076.87 372.114 1089.6 377.97 1102.25 377.97C1102.71 377.97 1103.17 377.97 1103.6 377.941C1118.96 377.419 1127.9 368.373 1128.86 367.33L1128.92 367.272C1139.86 355.442 1141.99 334.567 1135.21 305.255Z" fill="url(#paint1_linear)"/>
<path d="M980.247 247.799C971.801 247.799 964.953 240.964 964.953 232.533V205.731C964.953 197.301 971.801 190.465 980.247 190.465C988.692 190.465 995.54 197.301 995.54 205.731V232.533C995.54 240.964 988.692 247.799 980.247 247.799Z" fill="#FFA8A8"/>
<path d="M949.63 237.803C941.184 237.803 934.336 230.967 934.336 222.536V205.761C934.336 197.33 941.184 190.494 949.63 190.494C958.075 190.494 964.923 197.33 964.923 205.761V222.536C964.923 230.967 958.075 237.803 949.63 237.803Z" fill="#FFA8A8"/>
<path d="M1010.87 247.799C1002.42 247.799 995.574 240.963 995.574 232.533V215.757C995.574 207.326 1002.42 200.49 1010.87 200.49C1019.31 200.49 1026.16 207.326 1026.16 215.757V232.533C1026.16 240.963 1019.31 247.799 1010.87 247.799Z" fill="#FFA8A8"/>
<path d="M1041.45 245.321C1033.01 245.321 1026.16 238.486 1026.16 230.055V223.276C1026.16 214.845 1033.01 208.01 1041.45 208.01C1049.9 208.01 1056.75 214.845 1056.75 223.276V230.026C1056.78 238.457 1049.93 245.321 1041.45 245.321Z" fill="#FFA8A8"/>
<g opacity="0.6">
<path opacity="0.6" d="M995.539 220.885C995.539 212.455 1002.39 205.619 1010.83 205.619C1019.28 205.619 1026.13 212.455 1026.13 220.885V215.759C1026.13 207.328 1019.28 200.492 1010.83 200.492C1002.39 200.492 995.539 207.328 995.539 215.759V220.885Z" fill="#FFEDED"/>
</g>
<g opacity="0.6">
<path opacity="0.6" d="M949.63 195.594C958.075 195.594 964.923 202.429 964.923 210.86C964.923 202.429 971.771 195.594 980.217 195.594C988.663 195.594 995.511 202.429 995.511 210.86V205.733C995.511 197.302 988.663 190.467 980.217 190.467C971.771 190.467 964.923 197.302 964.923 205.733C964.923 197.302 958.075 190.467 949.63 190.467C941.184 190.467 934.336 197.302 934.336 205.733V210.86C934.307 202.429 941.184 195.594 949.63 195.594Z" fill="#FFEDED"/>
</g>
<g opacity="0.6">
<path opacity="0.6" d="M1041.45 207.982C1033.01 207.982 1026.16 214.818 1026.16 223.249V228.376C1026.16 219.945 1033.01 213.109 1041.45 213.109C1049.9 213.109 1056.75 219.945 1056.75 228.376V223.249C1056.78 214.818 1049.93 207.982 1041.45 207.982Z" fill="#FFEDED"/>
</g>
<path d="M955.892 228.831C952.211 228.319 945.82 228.319 942.167 228.831C940.712 229.031 939.371 228.062 939.371 226.809V222.167C939.371 219.603 958.688 219.603 958.688 222.167V226.809C958.659 228.062 957.347 229.031 955.892 228.831Z" fill="#FFC4C4"/>
<path d="M987.251 238.117C983.57 237.604 977.179 237.604 973.527 238.117C972.072 238.316 970.73 237.348 970.73 236.094V231.452C970.73 228.888 990.047 228.888 990.047 231.452V236.094C990.047 237.348 988.706 238.316 987.251 238.117Z" fill="#FFC4C4"/>
<path d="M1017.6 238.117C1013.92 237.604 1007.53 237.604 1003.87 238.117C1002.42 238.316 1001.08 237.348 1001.08 236.094V231.452C1001.08 228.888 1020.39 228.888 1020.39 231.452V236.094C1020.39 237.348 1019.05 238.316 1017.6 238.117Z" fill="#FFC4C4"/>
<path d="M1047.96 235.096C1044.28 234.583 1037.89 234.583 1034.23 235.096C1032.78 235.295 1031.44 234.327 1031.44 233.074V228.46C1031.44 225.896 1050.75 225.896 1050.75 228.46V233.074C1050.75 234.327 1049.41 235.295 1047.96 235.096Z" fill="#FFC4C4"/>
<path d="M975.862 316.102C985.268 316.102 992.879 308.476 992.879 299.05C992.879 289.624 985.268 281.998 975.862 281.998H939.092C928.033 281.998 917.572 287.368 911.13 296.394C910.332 297.508 909.591 298.679 908.936 299.878C903.178 310.418 903.833 323.271 910.275 333.382L931.71 366.943C938.551 377.683 941.857 390.279 941.173 402.989L939.976 466.998H1001C1001 460.2 1002 392.707 1002 375.055C1002 351.319 987.492 336.895 974.437 331.611C937.867 316.787 975.862 316.102 975.862 316.102Z" fill="#FFA8A8"/>
<path d="M975.631 282.49H967.842V285.31C967.842 291.234 972.635 296.019 978.57 296.019H992.323C990.697 288.272 983.849 282.49 975.631 282.49Z" fill="#FFC4C4"/>
<g opacity="0.6">
<path opacity="0.6" d="M991.408 344.782C990.381 343.5 989.268 342.332 988.155 341.221C987.784 340.851 987.385 340.481 987.014 340.139C985.673 338.914 984.275 337.775 982.848 336.778C982.249 336.351 981.621 335.924 981.022 335.525C980.194 335.012 979.367 334.5 978.54 334.044C978.34 333.93 978.14 333.816 977.912 333.702C976.685 333.047 975.43 332.477 974.203 331.965C959.965 326.211 956.997 322.594 958.709 320.316C958.709 320.316 958.681 320.316 958.681 320.287C954.115 322.338 951.547 328.262 974.203 338.202C986.871 343.756 1001.25 357.314 1001.79 380.213C1001.79 380.1 1001.79 380.014 1001.79 379.9C1001.79 379.815 1001.79 379.729 1001.79 379.644C1001.79 379.53 1001.79 379.444 1001.79 379.33C1001.79 379.188 1001.79 379.074 1001.79 378.96C1001.79 378.903 1001.79 378.818 1001.79 378.761C1001.79 378.618 1001.79 378.476 1001.79 378.334C1001.79 378.277 1001.79 378.191 1001.79 378.134C1001.79 377.992 1001.79 377.849 1001.79 377.707C1001.79 377.622 1001.79 377.508 1001.79 377.422C1001.79 377.28 1001.79 377.166 1001.79 377.023C1001.79 376.966 1001.79 376.91 1001.79 376.853C1001.79 376.739 1001.79 376.625 1001.79 376.511C1001.79 376.425 1001.79 376.34 1001.79 376.254C1001.79 376.169 1001.79 376.084 1001.79 375.998C1001.79 375.913 1001.79 375.827 1001.79 375.77C1001.79 375.656 1001.79 375.571 1001.79 375.457C1001.79 375.4 1001.79 375.343 1001.79 375.315C1001.79 363.096 997.942 353.383 992.407 346.092C992.093 345.636 991.75 345.209 991.408 344.782Z" fill="#FFEDED"/>
</g>
<g opacity="0.6">
<path opacity="0.6" d="M940.933 403.029C940.933 403.086 940.933 403.143 940.933 403.172L939.734 467H939.849L940.933 409.438C941.047 407.302 941.047 405.137 940.933 403.029Z" fill="#FFEDED"/>
</g>
<g opacity="0.6">
<path opacity="0.6" d="M908.661 306.588C909.317 305.392 910.059 304.224 910.858 303.113C917.306 294.113 927.749 288.758 938.848 288.758H975.656C983.987 288.758 990.921 294.739 992.405 302.629C992.604 301.604 992.69 300.578 992.69 299.496C992.69 290.097 985.072 282.492 975.656 282.492H938.848C927.778 282.492 917.306 287.847 910.858 296.847C910.059 297.958 909.317 299.126 908.661 300.322C905.493 306.104 904.267 312.569 904.866 318.921C905.294 314.648 906.521 310.462 908.661 306.588Z" fill="#FFEDED"/>
</g>
<path d="M1033.64 438.517H939.425C937.143 438.517 935.316 436.666 935.316 434.416V423.82C935.316 421.542 937.171 419.719 939.425 419.719H1033.64C1035.92 419.719 1037.75 421.57 1037.75 423.82V434.416C1037.75 436.666 1035.89 438.517 1033.64 438.517Z" fill="#333A62"/>
<path d="M999.517 431.681C1000.94 431.681 1002.09 430.534 1002.09 429.118C1002.09 427.702 1000.94 426.555 999.517 426.555C998.099 426.555 996.949 427.702 996.949 429.118C996.949 430.534 998.099 431.681 999.517 431.681Z" fill="#7DADFF"/>
<path d="M991.24 431.681C992.658 431.681 993.808 430.534 993.808 429.118C993.808 427.702 992.658 426.555 991.24 426.555C989.822 426.555 988.672 427.702 988.672 429.118C988.672 430.534 989.822 431.681 991.24 431.681Z" fill="#7DADFF"/>
<path d="M982.966 431.681C984.385 431.681 985.534 430.534 985.534 429.118C985.534 427.702 984.385 426.555 982.966 426.555C981.548 426.555 980.398 427.702 980.398 429.118C980.398 430.534 981.548 431.681 982.966 431.681Z" fill="#7DADFF"/>
<path d="M1033.64 419.719H1008.08V438.517H1033.64C1035.93 438.517 1037.75 436.666 1037.75 434.416V423.82C1037.75 421.57 1035.9 419.719 1033.64 419.719Z" fill="#1D202E"/>
</g>
<defs>
<linearGradient id="paint0_linear" x1="695.856" y1="696.75" x2="1500.77" y2="345.48" gradientUnits="userSpaceOnUse">
<stop offset="0.02" stop-color="#00E47D"/>
<stop offset="0.67" stop-color="#DBEA7C"/>
<stop offset="1" stop-color="#FF8641"/>
</linearGradient>
<linearGradient id="paint1_linear" x1="840" y1="295.147" x2="1139.09" y2="295.147" gradientUnits="userSpaceOnUse">
<stop offset="0.02" stop-color="#00E47D"/>
<stop offset="0.67" stop-color="#DBEA7C"/>
<stop offset="1" stop-color="#FF8641"/>
</linearGradient>
<clipPath id="clip0">
<rect width="1440" height="467" fill="white"/>
</clipPath>
</defs>
</svg>
