<svg width="1440" height="447" viewBox="0 0 1440 447" fill="none" xmlns="http://www.w3.org/2000/svg">
<path d="M1440 0H0V447H1440V0Z" fill="white"/>
<path d="M583.5 447H1440V0H816.218L583.5 447Z" fill="url(#paint0_linear)"/>
<path d="M935.389 402.747C928.521 402.747 922.938 397.163 922.938 390.295C922.938 383.427 928.521 377.843 935.389 377.843C942.257 377.843 947.841 383.427 947.841 390.295C947.841 397.163 942.257 402.747 935.389 402.747ZM935.389 381.815C930.731 381.815 926.909 385.607 926.909 390.295C926.909 394.983 930.701 398.775 935.389 398.775C940.047 398.775 943.87 394.983 943.87 390.295C943.87 385.607 940.047 381.815 935.389 381.815Z" fill="white"/>
<path d="M963.425 354.552C954.318 354.552 946.883 347.147 946.883 338.009C946.883 328.902 954.288 321.467 963.425 321.467C972.533 321.467 979.968 328.872 979.968 338.009C979.968 347.117 972.563 354.552 963.425 354.552ZM963.425 325.468C956.498 325.468 950.884 331.082 950.884 338.009C950.884 344.937 956.498 350.551 963.425 350.551C970.353 350.551 975.967 344.937 975.967 338.009C975.967 331.082 970.353 325.468 963.425 325.468Z" fill="white"/>
<path d="M1133.63 155.085C1124.53 155.085 1117.09 147.68 1117.09 138.543C1117.09 129.405 1124.5 122 1133.63 122C1142.77 122 1150.18 129.405 1150.18 138.543C1150.18 147.68 1142.77 155.085 1133.63 155.085ZM1133.63 126.001C1126.7 126.001 1121.09 131.615 1121.09 138.543C1121.09 145.47 1126.7 151.084 1133.63 151.084C1140.56 151.084 1146.17 145.47 1146.17 138.543C1146.17 131.615 1140.56 126.001 1133.63 126.001Z" fill="white"/>
<path d="M895.284 196.68C894.866 196.68 894.478 196.561 894.119 196.322C893.701 196.024 893.403 195.546 893.313 195.038L889.551 172.792C889.372 171.717 890.088 170.672 891.193 170.493L913.439 166.731C914.514 166.551 915.559 167.268 915.738 168.373L919.501 190.619C919.68 191.694 918.963 192.739 917.858 192.918L895.612 196.68C895.523 196.651 895.403 196.68 895.284 196.68ZM893.821 174.076L896.926 192.381L915.231 189.275L912.125 170.971L893.821 174.076Z" fill="white"/>
<path d="M1115.62 359.45C1114.67 359.45 1113.83 358.763 1113.65 357.777L1109.89 335.531C1109.71 334.456 1110.43 333.411 1111.53 333.232L1133.78 329.47C1134.85 329.291 1135.9 330.007 1136.08 331.112L1139.84 353.358C1140.02 354.433 1139.3 355.478 1138.2 355.657L1115.95 359.42C1115.83 359.45 1115.74 359.45 1115.62 359.45ZM1114.16 336.845L1117.27 355.15L1135.57 352.044L1132.47 333.74L1114.16 336.845Z" fill="white"/>
<path d="M897.167 327.708C896.391 327.708 895.674 327.26 895.346 326.513L879.072 289.606C878.624 288.591 879.072 287.426 880.087 286.978C881.102 286.53 882.267 286.978 882.715 287.993L898.989 324.901C899.437 325.916 898.989 327.081 897.974 327.528C897.705 327.648 897.436 327.708 897.167 327.708Z" fill="white"/>
<path d="M1097.98 375.604H1091.71V381.875H1097.98V375.604Z" fill="white"/>
<path d="M1114.64 250.489H1108.37V256.759H1114.64V250.489Z" fill="white"/>
<path d="M907.17 261.687H902.512V266.345H907.17V261.687Z" fill="white"/>
<path d="M957.396 211.163H952.738V215.821H957.396V211.163Z" fill="white"/>
<path d="M894.433 351.887C895.192 348.643 893.177 345.399 889.934 344.64C886.69 343.881 883.445 345.895 882.687 349.139C881.928 352.383 883.942 355.627 887.186 356.386C890.429 357.145 893.674 355.131 894.433 351.887Z" fill="white"/>
<path d="M941.316 148.535C942.074 145.291 940.06 142.046 936.817 141.287C933.573 140.529 930.328 142.543 929.569 145.787C928.81 149.03 930.825 152.275 934.068 153.034C937.312 153.793 940.557 151.778 941.316 148.535Z" fill="white"/>
<path d="M1148.77 381.725C1152.1 381.725 1154.8 379.024 1154.8 375.693C1154.8 372.362 1152.1 369.661 1148.77 369.661C1145.43 369.661 1142.73 372.362 1142.73 375.693C1142.73 379.024 1145.43 381.725 1148.77 381.725Z" fill="white"/>
<path d="M1183.17 186.02C1185.41 186.02 1187.23 184.202 1187.23 181.959C1187.23 179.717 1185.41 177.898 1183.17 177.898C1180.92 177.898 1179.11 179.717 1179.11 181.959C1179.11 184.202 1180.92 186.02 1183.17 186.02Z" fill="white"/>
<path d="M911.353 242.009C910.785 242.009 910.218 241.77 909.83 241.293C909.113 240.457 909.233 239.202 910.069 238.486L931.449 220.629C932.285 219.913 933.539 220.032 934.256 220.868C934.972 221.704 934.853 222.958 934.017 223.675L912.637 241.531C912.278 241.86 911.801 242.009 911.353 242.009Z" fill="white"/>
<path d="M1128.94 291.636C1128.61 291.636 1128.28 291.547 1127.95 291.368C1127 290.83 1126.64 289.606 1127.18 288.65L1153.66 241.411C1154.2 240.456 1155.42 240.097 1156.38 240.635C1157.34 241.172 1157.69 242.397 1157.16 243.352L1130.67 290.621C1130.31 291.278 1129.62 291.636 1128.94 291.636Z" fill="white"/>
<path d="M1111.98 201.369C1111.36 201.369 1110.73 201.07 1110.37 200.533C1109.95 199.965 1109.89 199.189 1110.19 198.562L1118.37 180.497C1118.64 179.869 1119.24 179.451 1119.92 179.332C1120.61 179.242 1121.27 179.511 1121.72 180.019L1135.21 196.024C1135.69 196.591 1135.81 197.368 1135.54 198.054C1135.27 198.741 1134.62 199.219 1133.87 199.279L1112.19 201.309C1112.1 201.369 1112.04 201.369 1111.98 201.369ZM1120.67 185.005L1115.21 197.039L1129.66 195.666L1120.67 185.005Z" fill="white"/>
<path d="M1120.88 412.571L1116.73 422.395C1116.31 423.38 1117.09 424.485 1118.17 424.366L1127.9 423.5C1128.97 423.41 1129.54 422.216 1128.97 421.32L1123.39 412.362C1122.79 411.406 1121.33 411.526 1120.88 412.571Z" fill="white"/>
<path d="M969.98 158.139L947.93 169.191L949.723 172.769L971.773 161.716L969.98 158.139Z" fill="white"/>
<path d="M1095.92 164.223C1095.2 164.223 1094.52 163.834 1094.16 163.178L1081.26 139.468C1080.72 138.513 1081.08 137.289 1082.06 136.751C1083.02 136.214 1084.24 136.572 1084.78 137.557L1097.68 161.266C1098.22 162.222 1097.86 163.446 1096.87 163.984C1096.55 164.133 1096.22 164.223 1095.92 164.223Z" fill="white"/>
<path d="M1109.75 270.108V330.456C1109.75 338.249 1101.95 345.684 1095.23 350.671C1089.17 355.15 1085.65 362.257 1085.65 369.782C1085.65 400.389 1085.59 447 1085.59 447H991.32L996.575 353.09L974.27 270.108H1109.75Z" fill="#FF8C8C"/>
<path d="M931.477 210.089C938.912 201.758 953.125 194.113 964.323 193.904C964.383 191.963 962.681 187.813 959.127 186.917C958.53 186.768 957.903 186.738 957.306 186.768C946.048 187.693 935.836 191.336 929.118 199.936C926.221 203.997 929.804 208.715 931.477 210.089Z" fill="#1A1A1A"/>
<path d="M1146.29 210.089C1138.85 201.758 1124.64 194.113 1113.44 193.904C1113.38 191.963 1115.08 187.813 1118.63 186.917C1119.23 186.768 1119.86 186.738 1120.46 186.768C1131.71 187.693 1141.93 191.336 1148.64 199.936C1151.57 203.997 1147.99 208.715 1146.29 210.089Z" fill="#1A1A1A"/>
<path d="M1165.67 313.286L1160.89 239.053C1160.89 238.635 1160.92 238.188 1160.92 237.769C1160.92 234.455 1160.59 231.23 1159.93 228.125L1159.91 227.856L1159.88 227.886C1155.31 206.506 1136.35 190.471 1113.59 190.471C1113.35 190.471 1113.11 190.471 1112.9 190.471H960.826V190.53C939.148 191.576 921.291 207.222 916.872 227.856C916.185 231.051 915.827 234.365 915.827 237.769C915.827 238.307 915.827 238.815 915.857 239.322L911.109 313.286C909.735 328.873 922.008 342.31 937.685 342.31C945.389 342.31 952.704 338.966 957.781 333.173C957.781 333.173 999.794 288.114 999.824 288.084H1076.95C1076.98 288.114 1119.03 333.173 1119.03 333.173C1124.1 338.966 1131.42 342.31 1139.12 342.31C1154.77 342.31 1167.07 328.873 1165.67 313.286Z" fill="#F2F2F2"/>
<path d="M1024.96 272.82C1028.21 264.989 1024.49 256.01 1016.66 252.766C1008.83 249.522 999.848 253.241 996.604 261.073C993.36 268.904 997.079 277.883 1004.91 281.127C1012.74 284.371 1021.72 280.652 1024.96 272.82Z" fill="#F2F2F2"/>
<path d="M1068.79 282.091C1077.16 280.733 1082.84 272.849 1081.48 264.482C1080.12 256.115 1072.24 250.433 1063.87 251.791C1055.51 253.149 1049.82 261.033 1051.18 269.4C1052.54 277.767 1060.42 283.449 1068.79 282.091Z" fill="#F2F2F2"/>
<path d="M1139.12 342.31C1141.87 342.31 1144.5 341.892 1146.98 341.146L1108.75 301.581C1100.42 292.951 1088.93 288.084 1076.95 288.084C1077.01 288.174 1119.03 333.173 1119.03 333.173C1124.1 338.966 1131.42 342.31 1139.12 342.31Z" fill="#CCCCCC"/>
<path d="M929.684 341.086C932.192 341.893 934.909 342.311 937.686 342.311C945.39 342.311 952.706 338.966 957.782 333.173C957.782 333.173 996.75 291.369 999.646 288.263L999.736 287.965C987.732 287.965 976.266 292.832 967.935 301.462L929.684 341.086Z" fill="#CCCCCC"/>
<path d="M1010.75 278.438C1017.1 278.438 1022.25 273.291 1022.25 266.942C1022.25 260.593 1017.1 255.446 1010.75 255.446C1004.4 255.446 999.258 260.593 999.258 266.942C999.258 273.291 1004.4 278.438 1010.75 278.438Z" fill="#1A1A1A"/>
<path d="M1010.75 278.44C1017.11 278.44 1022.25 273.304 1022.25 266.943C1022.25 266.167 1022.16 265.391 1022.01 264.644C1014.79 269.004 1007.47 270.885 999.855 270.616C1001.41 275.155 1005.71 278.44 1010.75 278.44Z" fill="#231F20"/>
<path d="M1066.32 278.438C1072.67 278.438 1077.82 273.291 1077.82 266.942C1077.82 260.593 1072.67 255.446 1066.32 255.446C1059.97 255.446 1054.82 260.593 1054.82 266.942C1054.82 273.291 1059.97 278.438 1066.32 278.438Z" fill="#1A1A1A"/>
<path d="M1066.32 278.44C1072.69 278.44 1077.82 273.304 1077.82 266.943C1077.82 266.167 1077.73 265.391 1077.58 264.644C1070.36 269.004 1063.04 270.885 1055.43 270.616C1056.98 275.155 1061.28 278.44 1066.32 278.44Z" fill="#231F20"/>
<path d="M1119.14 236.748C1124.61 235.455 1128 229.971 1126.71 224.498C1125.42 219.025 1119.93 215.636 1114.46 216.929C1108.99 218.221 1105.6 223.705 1106.89 229.178C1108.18 234.651 1113.67 238.04 1119.14 236.748Z" fill="#BCBEC0"/>
<path d="M1126.22 263.224C1128.38 258.029 1125.91 252.072 1120.71 249.92C1115.52 247.768 1109.56 250.235 1107.41 255.431C1105.26 260.627 1107.72 266.583 1112.92 268.735C1118.11 270.887 1124.07 268.42 1126.22 263.224Z" fill="#BCBEC0"/>
<path d="M1135.39 252.987C1140.86 251.695 1144.25 246.211 1142.96 240.738C1141.66 235.265 1136.18 231.876 1130.71 233.168C1125.23 234.461 1121.84 239.945 1123.14 245.418C1124.43 250.891 1129.91 254.28 1135.39 252.987Z" fill="#BCBEC0"/>
<path d="M1102.91 252.994C1108.38 251.701 1111.77 246.217 1110.48 240.744C1109.19 235.271 1103.7 231.882 1098.23 233.175C1092.76 234.467 1089.37 239.951 1090.66 245.424C1091.95 250.897 1097.44 254.286 1102.91 252.994Z" fill="#BCBEC0"/>
<path d="M1036.38 230.692H1032.49C1031.21 230.692 1030.2 231.737 1030.2 232.991C1030.2 234.275 1031.24 235.29 1032.49 235.29H1036.38C1037.66 235.29 1038.68 234.245 1038.68 232.991C1038.71 231.707 1037.66 230.692 1036.38 230.692Z" fill="#BCBEC0"/>
<path d="M1049.18 230.692H1045.3C1044.02 230.692 1043 231.737 1043 232.991C1043 234.275 1044.05 235.29 1045.3 235.29H1049.18C1050.47 235.29 1051.48 234.245 1051.48 232.991C1051.48 231.707 1050.47 230.692 1049.18 230.692Z" fill="#BCBEC0"/>
<path d="M1049.78 202.563H1032.7C1031.03 202.563 1029.65 203.937 1029.65 205.609V210.745C1029.65 212.417 1031.03 213.791 1032.7 213.791H1049.78C1051.45 213.791 1052.82 212.417 1052.82 210.745V205.609C1052.82 203.937 1051.48 202.563 1049.78 202.563Z" fill="#1A1A1A"/>
<path d="M981.88 238.039H971.727V227.886C971.727 223.527 968.174 219.973 963.814 219.973C959.455 219.973 955.901 223.527 955.901 227.886V238.039H945.749C941.389 238.039 937.836 241.592 937.836 245.952C937.836 250.311 941.389 253.865 945.749 253.865H955.901V264.017C955.901 268.377 959.455 271.93 963.814 271.93C968.174 271.93 971.727 268.377 971.727 264.017V253.865H981.88C986.24 253.865 989.793 250.311 989.793 245.952C989.793 241.592 986.24 238.039 981.88 238.039Z" fill="#BCBEC0"/>
<path d="M981.88 234.932H971.727V224.78C971.727 220.42 968.174 216.867 963.814 216.867C959.455 216.867 955.901 220.42 955.901 224.78V234.932H945.749C941.389 234.932 937.836 238.486 937.836 242.845C937.836 247.205 941.389 250.758 945.749 250.758H955.901V260.911C955.901 265.27 959.455 268.824 963.814 268.824C968.174 268.824 971.727 265.27 971.727 260.911V250.758H981.88C986.24 250.758 989.793 247.205 989.793 242.845C989.793 238.486 986.24 234.932 981.88 234.932Z" fill="#1A1A1A"/>
<path d="M1126.24 228.098C1128.4 222.902 1125.93 216.945 1120.73 214.793C1115.54 212.641 1109.58 215.108 1107.43 220.304C1105.28 225.5 1107.74 231.456 1112.94 233.608C1118.13 235.76 1124.09 233.293 1126.24 228.098Z" fill="#1A1A1A"/>
<path d="M1126.23 260.562C1128.38 255.366 1125.92 249.41 1120.72 247.258C1115.52 245.105 1109.57 247.573 1107.42 252.768C1105.26 257.964 1107.73 263.92 1112.93 266.073C1118.12 268.225 1124.08 265.757 1126.23 260.562Z" fill="#1A1A1A"/>
<path d="M1140.24 247.623C1144.22 243.647 1144.22 237.2 1140.24 233.223C1136.27 229.247 1129.82 229.247 1125.84 233.223C1121.87 237.2 1121.87 243.647 1125.84 247.623C1129.82 251.6 1136.27 251.6 1140.24 247.623Z" fill="#1A1A1A"/>
<path d="M1107.76 247.638C1111.74 243.662 1111.74 237.214 1107.76 233.238C1103.78 229.262 1097.34 229.262 1093.36 233.238C1089.38 237.214 1089.38 243.662 1093.36 247.638C1097.34 251.614 1103.78 251.614 1107.76 247.638Z" fill="#1A1A1A"/>
<path d="M1049.78 213.791C1051.45 213.791 1052.83 212.418 1052.83 210.745V205.609C1052.83 204.176 1051.81 202.952 1050.47 202.653L1034.52 213.791H1049.78Z" fill="#231F20"/>
<path d="M1029.78 217.194C1020.94 217.194 1013.78 210.028 1013.78 201.189V173.091C1013.78 164.252 1020.94 157.085 1029.78 157.085C1038.62 157.085 1045.79 164.252 1045.79 173.091V201.189C1045.79 210.028 1038.62 217.194 1029.78 217.194Z" fill="#FFA8A8"/>
<path d="M997.732 206.714C988.893 206.714 981.727 199.547 981.727 190.709V173.121C981.727 164.282 988.893 157.116 997.732 157.116C1006.57 157.116 1013.74 164.282 1013.74 173.121V190.709C1013.74 199.547 1006.57 206.714 997.732 206.714Z" fill="#FFA8A8"/>
<path d="M1061.82 217.195C1052.98 217.195 1045.82 210.028 1045.82 201.19V183.602C1045.82 174.763 1052.98 167.597 1061.82 167.597C1070.66 167.597 1077.83 174.763 1077.83 183.602V201.19C1077.83 210.028 1070.66 217.195 1061.82 217.195Z" fill="#FFA8A8"/>
<path d="M1093.83 214.597C1084.99 214.597 1077.83 207.431 1077.83 198.592V191.485C1077.83 182.646 1084.99 175.48 1093.83 175.48C1102.67 175.48 1109.84 182.646 1109.84 191.485V198.562C1109.87 207.401 1102.7 214.597 1093.83 214.597Z" fill="#FFA8A8"/>
<g opacity="0.6">
<path opacity="0.6" d="M1045.78 188.977C1045.78 180.138 1052.94 172.972 1061.78 172.972C1070.62 172.972 1077.79 180.138 1077.79 188.977V183.602C1077.79 174.763 1070.62 167.597 1061.78 167.597C1052.94 167.597 1045.78 174.763 1045.78 183.602V188.977Z" fill="#FFEDED"/>
</g>
<g opacity="0.6">
<path opacity="0.6" d="M997.732 162.462C1006.57 162.462 1013.74 169.628 1013.74 178.467C1013.74 169.628 1020.9 162.462 1029.74 162.462C1038.58 162.462 1045.75 169.628 1045.75 178.467V173.092C1045.75 164.253 1038.58 157.087 1029.74 157.087C1020.9 157.087 1013.74 164.253 1013.74 173.092C1013.74 164.253 1006.57 157.087 997.732 157.087C988.893 157.087 981.727 164.253 981.727 173.092V178.467C981.697 169.628 988.893 162.462 997.732 162.462Z" fill="#FFEDED"/>
</g>
<g opacity="0.6">
<path opacity="0.6" d="M1093.83 175.45C1084.99 175.45 1077.82 182.616 1077.82 191.455V196.83C1077.82 187.991 1084.99 180.825 1093.83 180.825C1102.66 180.825 1109.83 187.991 1109.83 196.83V191.455C1109.86 182.616 1102.69 175.45 1093.83 175.45Z" fill="#FFEDED"/>
</g>
<path d="M1004.28 197.308C1000.43 196.77 993.737 196.77 989.915 197.308C988.392 197.517 986.988 196.501 986.988 195.188V190.32C986.988 187.633 1007.2 187.633 1007.2 190.32V195.188C1007.17 196.501 1005.8 197.517 1004.28 197.308Z" fill="#FFC4C4"/>
<path d="M1037.1 207.042C1033.25 206.504 1026.56 206.504 1022.73 207.042C1021.21 207.251 1019.81 206.236 1019.81 204.922V200.055C1019.81 197.367 1040.02 197.367 1040.02 200.055V204.922C1040.02 206.236 1038.62 207.251 1037.1 207.042Z" fill="#FFC4C4"/>
<path d="M1068.86 207.042C1065.01 206.504 1058.32 206.504 1054.5 207.042C1052.98 207.251 1051.57 206.236 1051.57 204.922V200.055C1051.57 197.367 1071.79 197.367 1071.79 200.055V204.922C1071.79 206.236 1070.39 207.251 1068.86 207.042Z" fill="#FFC4C4"/>
<path d="M1100.63 203.876C1096.78 203.339 1090.09 203.339 1086.27 203.876C1084.75 204.085 1083.34 203.07 1083.34 201.756V196.919C1083.34 194.231 1103.56 194.231 1103.56 196.919V201.756C1103.56 203.07 1102.16 204.085 1100.63 203.876Z" fill="#FFC4C4"/>
<path d="M1024.94 289.218C1034.79 289.218 1042.76 281.245 1042.76 271.392C1042.76 261.538 1034.79 253.565 1024.94 253.565H986.418C974.832 253.565 963.874 259.179 957.125 268.615C956.289 269.779 955.513 271.003 954.826 272.257C948.794 283.276 949.481 296.713 956.229 307.284L978.684 342.37C985.851 353.597 989.315 366.765 988.598 380.053L987.344 446.97H1051.27C1051.27 439.863 1052.32 369.304 1052.32 350.85C1052.32 326.036 1037.12 310.956 1023.45 305.432C985.134 289.935 1024.94 289.218 1024.94 289.218Z" fill="#FFA8A8"/>
<path d="M1024.94 253.564H1016.79V256.521C1016.79 262.732 1021.8 267.748 1028.01 267.748H1042.41C1040.7 259.626 1033.54 253.564 1024.94 253.564Z" fill="#FFC4C4"/>
<g opacity="0.6">
<path opacity="0.6" d="M1041.45 318.869C1040.37 317.526 1039.21 316.301 1038.04 315.137C1037.66 314.749 1037.24 314.36 1036.85 314.002C1035.45 312.718 1033.98 311.524 1032.49 310.479C1031.86 310.031 1031.21 309.583 1030.58 309.165C1029.71 308.627 1028.85 308.09 1027.98 307.612C1027.77 307.493 1027.56 307.373 1027.32 307.254C1026.04 306.567 1024.73 305.97 1023.44 305.432C1008.54 299.4 1005.44 295.608 1007.23 293.219C1007.23 293.219 1007.2 293.219 1007.2 293.189C1002.42 295.339 999.733 301.55 1023.44 311.972C1036.7 317.794 1051.75 332.008 1052.32 356.016C1052.32 355.896 1052.32 355.807 1052.32 355.687C1052.32 355.598 1052.32 355.508 1052.32 355.418C1052.32 355.299 1052.32 355.209 1052.32 355.09C1052.32 354.941 1052.32 354.821 1052.32 354.702C1052.32 354.642 1052.32 354.552 1052.32 354.493C1052.32 354.343 1052.32 354.194 1052.32 354.045C1052.32 353.985 1052.32 353.896 1052.32 353.836C1052.32 353.686 1052.32 353.537 1052.32 353.388C1052.32 353.298 1052.32 353.179 1052.32 353.089C1052.32 352.94 1052.32 352.821 1052.32 352.671C1052.32 352.612 1052.32 352.552 1052.32 352.492C1052.32 352.373 1052.32 352.253 1052.32 352.134C1052.32 352.044 1052.32 351.955 1052.32 351.865C1052.32 351.775 1052.32 351.686 1052.32 351.596C1052.32 351.507 1052.32 351.417 1052.32 351.357C1052.32 351.238 1052.32 351.148 1052.32 351.029C1052.32 350.969 1052.32 350.909 1052.32 350.88C1052.32 338.07 1048.29 327.887 1042.49 320.243C1042.16 319.765 1041.81 319.317 1041.45 318.869Z" fill="#FFEDED"/>
</g>
<g opacity="0.6">
<path opacity="0.6" d="M988.625 379.934C988.625 379.993 988.625 380.053 988.625 380.083L987.371 447H987.491L988.625 386.652C988.745 384.413 988.745 382.143 988.625 379.934Z" fill="#FFEDED"/>
</g>
<g opacity="0.6">
<path opacity="0.6" d="M954.852 278.827C955.539 277.573 956.315 276.348 957.151 275.184C963.899 265.748 974.828 260.134 986.444 260.134H1024.96C1033.68 260.134 1040.94 266.405 1042.49 274.676C1042.7 273.601 1042.79 272.526 1042.79 271.392C1042.79 261.538 1034.82 253.565 1024.96 253.565H986.444C974.858 253.565 963.899 259.179 957.151 268.615C956.315 269.779 955.539 271.003 954.852 272.257C951.537 278.319 950.253 285.097 950.88 291.756C951.328 287.277 952.612 282.888 954.852 278.827Z" fill="#FFEDED"/>
</g>
<path d="M1085.65 417.14H987.054C984.665 417.14 982.754 415.199 982.754 412.84V401.732C982.754 399.343 984.695 397.432 987.054 397.432H1085.65C1088.04 397.432 1089.95 399.373 1089.95 401.732V412.84C1089.95 415.199 1088.01 417.14 1085.65 417.14Z" fill="#333A62"/>
<path d="M1049.94 409.972C1051.43 409.972 1052.63 408.769 1052.63 407.285C1052.63 405.801 1051.43 404.598 1049.94 404.598C1048.46 404.598 1047.25 405.801 1047.25 407.285C1047.25 408.769 1048.46 409.972 1049.94 409.972Z" fill="#7DADFF"/>
<path d="M1041.28 409.973C1042.77 409.973 1043.97 408.77 1043.97 407.286C1043.97 405.801 1042.77 404.598 1041.28 404.598C1039.8 404.598 1038.59 405.801 1038.59 407.286C1038.59 408.77 1039.8 409.973 1041.28 409.973Z" fill="#7DADFF"/>
<path d="M1032.62 409.973C1034.11 409.973 1035.31 408.77 1035.31 407.286C1035.31 405.801 1034.11 404.598 1032.62 404.598C1031.14 404.598 1029.93 405.801 1029.93 407.286C1029.93 408.77 1031.14 409.973 1032.62 409.973Z" fill="#7DADFF"/>
<path d="M1085.65 397.431H1058.9V417.139H1085.65C1088.04 417.139 1089.95 415.198 1089.95 412.839V401.731C1089.95 399.372 1088.01 397.431 1085.65 397.431Z" fill="#1D202E"/>
<defs>
<linearGradient id="paint0_linear" x1="600.999" y1="627.997" x2="1440" y2="-0.00299435" gradientUnits="userSpaceOnUse">
<stop offset="0.02" stop-color="#00E47D"/>
<stop offset="0.67" stop-color="#DBEA7C"/>
<stop offset="1" stop-color="#FF8641"/>
</linearGradient>
</defs>
</svg>
