<svg width="1440" height="557" viewBox="0 0 1440 557" fill="none" xmlns="http://www.w3.org/2000/svg">
<path fill-rule="evenodd" clip-rule="evenodd" d="M659.918 0C646.136 77.4494 659.082 156.753 685.169 217.705C789.721 461.996 1301.42 510.435 1301.42 364.497C1302.45 355.082 1300.13 346.085 1297.51 335.901C1291.13 311.166 1282.95 279.428 1316.65 217.705C1364.98 129.164 1362.26 62.8767 1339.39 0H1440V557H0V0H659.918ZM659.918 0C666.868 -39.0554 680.614 -77.6393 702.9 -113.161C703.714 -114.457 704.53 -115.738 705.349 -117.004H1281.23C1284.24 -111.504 1287.24 -106.061 1290.21 -100.664C1309.21 -66.1698 1327.17 -33.5711 1339.39 0H659.918Z" fill="white"/>
<g filter="url(#filter0_i)">
<path fill-rule="evenodd" clip-rule="evenodd" d="M696.622 -99C642.651 3.68452 653.045 127.188 689.519 213.711C792.499 458.002 1296.5 506.44 1296.5 360.502C1297.52 351.088 1295.24 342.091 1292.65 331.907C1286.37 307.172 1278.31 275.434 1311.5 213.711C1383.13 80.4889 1340.92 -2.353 1288.53 -99H1296.79C1300.01 -93.4957 1303.22 -88.0488 1306.4 -82.6484C1364.82 16.522 1414.01 100.036 1334.68 235.946C1298.63 297.713 1307.39 329.473 1314.21 354.226C1317.02 364.417 1319.5 373.421 1318.39 382.842C1318.39 528.883 770.871 480.411 658.999 235.946C617.011 144.193 606.837 10.8834 677.972 -95.1539C678.843 -96.4515 679.716 -97.7333 680.592 -99H696.622ZM696.622 -99C699.844 -105.13 703.295 -111.185 706.984 -117.155C707.785 -118.451 708.589 -119.732 709.396 -120.998H1276.62C1279.58 -115.498 1282.53 -110.055 1285.46 -104.658C1286.49 -102.767 1287.51 -100.881 1288.53 -99H696.622Z" fill="#F9F9F9"/>
</g>
<path d="M1067.72 240.752V307.362C1067.72 315.964 1059.1 324.171 1051.67 329.675C1044.97 334.619 1041.07 342.463 1041.07 350.768C1041.07 381.781 1041.02 435 1041.01 435C1041 435 1041 435 1041 435L1040.98 434.996L938.5 410L942.582 332.344L917.918 240.752H1067.72Z" fill="#FF8C8C"/>
<path d="M1040.98 434.996L938.5 410C953.5 415 991.746 427.129 1040.98 434.996Z" fill="#FF8C8C"/>
<path d="M870.603 174.502C878.825 165.307 894.541 156.869 906.923 156.639C906.989 154.496 905.107 149.915 901.178 148.926C900.517 148.761 899.824 148.729 899.164 148.761C886.716 149.783 875.424 153.804 867.995 163.296C864.792 167.779 868.754 172.986 870.603 174.502Z" fill="#1A1A1A"/>
<path d="M1108.13 174.502C1099.9 165.307 1084.19 156.869 1071.81 156.639C1071.74 154.496 1073.62 149.915 1077.55 148.926C1078.21 148.761 1078.91 148.729 1079.57 148.761C1092.01 149.783 1103.31 153.804 1110.73 163.296C1113.97 167.779 1110.01 172.986 1108.13 174.502Z" fill="#1A1A1A"/>
<path d="M1140.99 291.407C1142.64 275.954 1139.88 266.02 1136.56 250.015L1124.28 206.476C1124.28 206.014 1124.31 205.52 1124.31 205.058C1124.31 201.4 1123.95 197.84 1123.22 194.413L1123.19 194.116L1123.16 194.149C1118.1 170.55 1097.14 152.852 1071.98 152.852C1071.71 152.852 1071.45 152.852 1071.22 152.852H903.06V152.917C879.089 154.071 859.345 171.341 854.458 194.116C853.699 197.643 853.302 201.301 853.302 205.058C853.302 205.652 853.302 206.212 853.336 206.772C849.412 238.816 846.221 256.866 848.086 288.411C846.567 305.616 860.137 320.447 877.471 320.447C885.99 320.447 894.079 316.756 899.692 310.362C899.692 310.362 946.148 260.627 946.181 260.594H1031.47C1031.5 260.627 1077.99 310.362 1077.99 310.362C1083.6 316.756 1091.69 320.447 1100.21 320.447C1117.23 320.617 1138.2 317.345 1140.99 291.407Z" fill="#F2F2F2"/>
<path d="M973.981 243.745C977.568 235.1 973.456 225.19 964.796 221.61C956.137 218.029 946.209 222.134 942.622 230.778C939.035 239.422 943.147 249.332 951.807 252.913C960.466 256.494 970.394 252.389 973.981 243.745Z" fill="#F2F2F2"/>
<path d="M1022.45 253.977C1031.7 252.478 1037.98 243.776 1036.48 234.541C1034.98 225.305 1026.26 219.033 1017.01 220.532C1007.76 222.031 1001.48 230.733 1002.98 239.968C1004.48 249.204 1013.2 255.476 1022.45 253.977Z" fill="#F2F2F2"/>
<path d="M1100.21 320.445C1103.25 320.445 1106.15 319.984 1108.89 319.16L1066.63 275.489C1057.42 265.964 1044.71 260.592 1031.47 260.592C1031.53 260.691 1077.99 310.36 1077.99 310.36C1083.6 316.754 1091.69 320.445 1100.21 320.445Z" fill="#CCCCCC"/>
<path d="M868.625 319.093C871.398 319.983 874.403 320.444 877.474 320.444C885.992 320.444 894.082 316.753 899.695 310.359C899.695 310.359 942.783 264.216 945.985 260.789L946.084 260.459C932.811 260.459 920.133 265.831 910.921 275.356L868.625 319.093Z" fill="#CCCCCC"/>
<path d="M958.266 249.945C965.287 249.945 970.978 244.264 970.978 237.256C970.978 230.248 965.287 224.566 958.266 224.566C951.246 224.566 945.555 230.248 945.555 237.256C945.555 244.264 951.246 249.945 958.266 249.945Z" fill="#1A1A1A"/>
<path d="M958.266 249.946C965.299 249.946 970.978 244.277 970.978 237.257C970.978 236.4 970.879 235.543 970.714 234.719C962.724 239.531 954.634 241.607 946.215 241.311C947.932 246.32 952.686 249.946 958.266 249.946Z" fill="#231F20"/>
<path d="M1077.5 201.07C1083.56 199.644 1087.3 193.59 1085.87 187.55C1084.45 181.509 1078.38 177.768 1072.33 179.195C1066.28 180.621 1062.53 186.674 1063.96 192.715C1065.39 198.756 1071.45 202.497 1077.5 201.07Z" fill="#BCBEC0"/>
<path d="M1085.38 232.021C1087.76 226.287 1085.03 219.712 1079.29 217.337C1073.54 214.961 1066.95 217.684 1064.57 223.419C1062.19 229.154 1064.92 235.728 1070.67 238.104C1076.41 240.479 1083 237.756 1085.38 232.021Z" fill="#BCBEC0"/>
<path d="M1097.41 219.834C1103.46 218.407 1107.21 212.354 1105.78 206.313C1104.35 200.273 1098.29 196.532 1092.24 197.958C1086.19 199.385 1082.44 205.438 1083.87 211.479C1085.3 217.52 1091.36 221.26 1097.41 219.834Z" fill="#BCBEC0"/>
<path d="M1057.6 220.756C1063.65 219.329 1067.4 213.276 1065.97 207.235C1064.54 201.194 1058.48 197.454 1052.43 198.88C1046.38 200.307 1042.63 206.36 1044.06 212.401C1045.49 218.441 1051.55 222.182 1057.6 220.756Z" fill="#BCBEC0"/>
<path d="M986.604 197.244H982.312C980.892 197.244 979.77 198.398 979.77 199.782C979.77 201.199 980.925 202.32 982.312 202.32H986.604C988.024 202.32 989.147 201.166 989.147 199.782C989.18 198.365 988.024 197.244 986.604 197.244Z" fill="#BCBEC0"/>
<path d="M1000.76 197.244H996.468C995.048 197.244 993.926 198.398 993.926 199.782C993.926 201.199 995.081 202.32 996.468 202.32H1000.76C1002.18 202.32 1003.3 201.166 1003.3 199.782C1003.3 198.365 1002.18 197.244 1000.76 197.244Z" fill="#BCBEC0"/>
<path d="M926.34 203.176H915.114V191.97C915.114 187.158 911.185 183.236 906.364 183.236C901.543 183.236 897.614 187.158 897.614 191.97V203.176H886.388C881.568 203.176 877.639 207.099 877.639 211.91C877.639 216.722 881.568 220.645 886.388 220.645H897.614V231.851C897.614 236.663 901.543 240.585 906.364 240.585C911.185 240.585 915.114 236.663 915.114 231.851V220.645H926.34C931.16 220.645 935.089 216.722 935.089 211.91C935.089 207.099 931.16 203.176 926.34 203.176Z" fill="#BCBEC0"/>
<path d="M1049.07 250.38C1021.66 224.21 1010.18 230.048 1010.18 230.048C1010.18 230.048 1010.18 230.048 1010.14 230.014C1009.14 230.383 1008.28 230.853 1007.68 231.423C1007.61 231.491 1007.54 231.558 1007.46 231.658C1003.22 235.684 1010.67 243.233 1014.96 247.226C1031.41 262.525 1069.66 298.089 1085.71 312.918C1098.17 324.426 1110.83 331.035 1123.46 332.646L1132.78 323.99L1133.24 312.247C1132.21 312.415 1131.13 312.515 1129.99 312.549C1129.85 312.549 1129.49 310.704 1129.35 310.737C1120.57 313.622 1111.08 307.617 1100.98 298.29L1049.07 250.38Z" fill="#FF8641"/>
<path d="M1075.08 142.981C1068.19 144.457 1060.91 146.94 1053.06 150.429C1030.73 160.461 997.364 188.677 953.905 234.339C925.467 264.199 901.703 292.214 896.708 298.119C896.387 298.522 896.03 298.857 895.637 299.226C885.789 307.949 876.155 312.479 867.699 312.345C859.385 312.21 854.247 307.715 853.534 307.044L853.07 306.607C848.253 302.212 844.934 286.041 851.428 254.839C856.388 231.051 866.414 203.305 875.763 187.402C893.532 157.24 906.163 161.534 933.566 171.902C938.812 173.881 937.848 162.541 938.241 158.683L901.346 141.807C899.455 142.075 897.635 142.444 895.816 142.914C880.723 146.839 868.306 157.844 856.745 177.505C846.255 195.32 835.55 224.811 830.091 250.88C822.776 285.974 825.345 309.593 837.727 321.101C839.654 323.014 848.645 331.099 863.417 332.576C874.05 331.67 897.457 327.207 917.51 306.473C926.287 296.207 946.626 272.721 970.247 247.894C1021.91 193.642 1048.92 174.988 1062.45 168.916C1076.79 162.474 1089.31 161.602 1095.74 166.332C1099.2 168.882 1105.01 166.198 1108.76 169.553L1114.26 165.326L1075.08 142.981Z" fill="#AF42AE"/>
<path d="M932.642 197.967H922.58V188.506C922.58 183.205 918.013 178.91 912.375 178.91H912.161C906.524 178.91 901.956 183.205 901.956 188.506V197.967H891.894C886.257 197.967 881.689 202.261 881.689 207.562V207.764C881.689 213.065 886.257 217.359 891.894 217.359H901.956V226.82C901.956 232.121 906.524 236.416 912.161 236.416H912.375C918.013 236.416 922.58 232.121 922.58 226.82V217.359H932.642C938.28 217.359 942.847 213.065 942.847 207.764V207.562C942.847 202.295 938.28 197.967 932.642 197.967Z" fill="#FF8641"/>
<path d="M1080.23 197.829C1085.51 195.773 1088.02 190.081 1085.83 185.116C1083.64 180.152 1077.59 177.794 1072.31 179.851C1067.03 181.907 1064.52 187.599 1066.71 192.563C1068.9 197.528 1074.95 199.886 1080.23 197.829Z" fill="#AF42AE"/>
<path d="M1086.46 228.121C1087.37 222.816 1083.54 217.819 1077.9 216.958C1072.26 216.097 1066.95 219.699 1066.03 225.003C1065.12 230.307 1068.95 235.305 1074.59 236.166C1080.23 237.027 1085.54 233.425 1086.46 228.121Z" fill="#AF42AE"/>
<path d="M1056.2 217.426C1061.92 217.426 1066.55 213.07 1066.55 207.696C1066.55 202.323 1061.92 197.967 1056.2 197.967C1050.49 197.967 1045.85 202.323 1045.85 207.696C1045.85 213.07 1050.49 217.426 1056.2 217.426Z" fill="#AF42AE"/>
<path d="M1096.34 217.426C1102.06 217.426 1106.69 213.07 1106.69 207.696C1106.69 202.323 1102.06 197.967 1096.34 197.967C1090.63 197.967 1085.99 202.323 1085.99 207.696C1085.99 213.07 1090.63 217.426 1096.34 217.426Z" fill="#AF42AE"/>
<path d="M1158.61 248.832C1152.26 221.354 1140.73 194.145 1132.1 177.873C1121.89 158.648 1109.33 147.274 1093.74 143.114C1079.65 139.356 1063.37 141.738 1044.04 150.428C1021.7 160.46 988.337 188.676 944.877 234.338C916.439 264.198 892.676 292.213 887.68 298.118C887.359 298.521 887.002 298.856 886.61 299.225C876.762 307.948 867.128 312.478 858.672 312.343C850.358 312.209 845.22 307.713 844.506 307.042L844.042 306.606C839.225 302.211 835.907 286.04 842.401 254.838C847.361 231.05 857.387 203.304 866.736 187.401C884.505 157.239 899.455 157.34 926.252 168.982C940.881 175.323 954.511 178.812 964.752 180.724C966.964 181.127 969.212 180.489 970.818 179.013C973.28 176.765 975.67 174.551 978.061 172.437C982.129 168.814 979.988 162.372 974.457 161.533C974.386 161.533 974.314 161.5 974.243 161.5C965.109 160.158 950.907 157.071 935.422 150.361C915.369 141.638 900.347 139.356 886.788 142.879C871.695 146.805 859.278 157.809 847.717 177.47C837.227 195.319 826.487 224.81 821.064 250.879C813.749 285.973 816.318 309.592 828.699 321.1C830.769 323.147 840.938 332.273 857.637 332.776C872.73 333.212 887.966 326.535 902.881 312.914C903.237 312.578 903.559 312.243 903.844 311.907C904.094 311.605 929.749 280.94 961.184 247.926C1012.89 193.641 1039.86 174.987 1053.42 168.914C1067.76 162.473 1079 160.46 1087.78 162.808C1097.16 165.325 1105.3 173.243 1112.61 186.998C1120.32 201.492 1131.42 227.494 1137.34 253.16C1143.34 279.162 1142.48 298.789 1134.99 307.076C1134.95 307.11 1134.92 307.143 1134.88 307.177L1134.99 307.076C1134.31 307.713 1129.21 312.343 1120.93 312.478C1120.79 312.478 1120.64 312.478 1120.5 312.478C1111.9 312.478 1102.02 307.546 1091.92 298.219C1075.83 283.322 1037.29 247.524 1020.99 232.359C1016.85 228.5 1010.17 228.534 1006.07 232.426C1006 232.493 1005.93 232.56 1005.82 232.661C1001.57 236.687 1001.61 243.162 1005.89 247.155C1022.34 262.454 1060.59 298.017 1076.65 312.847C1091.1 326.2 1105.84 332.977 1120.46 332.977C1121 332.977 1121.53 332.977 1122.03 332.944C1139.8 332.34 1150.15 321.872 1151.26 320.664L1151.33 320.597C1164 306.908 1166.46 282.752 1158.61 248.832Z" fill="url(#paint0_linear)"/>
<path d="M979.291 182.346C969.518 182.346 961.594 174.436 961.594 164.68V133.666C961.594 123.91 969.518 116 979.291 116C989.064 116 996.989 123.91 996.989 133.666V164.68C996.989 174.436 989.064 182.346 979.291 182.346Z" fill="#FFA8A8"/>
<path d="M943.862 170.778C934.088 170.778 926.164 162.868 926.164 153.112V133.699C926.164 123.943 934.088 116.033 943.862 116.033C953.635 116.033 961.559 123.943 961.559 133.699V153.112C961.559 162.868 953.635 170.778 943.862 170.778Z" fill="#FFA8A8"/>
<path d="M1014.72 182.346C1004.95 182.346 997.027 174.436 997.027 164.68V145.267C997.027 135.512 1004.95 127.602 1014.72 127.602C1024.5 127.602 1032.42 135.512 1032.42 145.267V164.68C1032.42 174.436 1024.5 182.346 1014.72 182.346Z" fill="#FFA8A8"/>
<path d="M1050.12 179.479C1040.34 179.479 1032.42 171.569 1032.42 161.813V153.969C1032.42 144.213 1040.34 136.303 1050.12 136.303C1059.89 136.303 1067.81 144.213 1067.81 153.969V161.78C1067.85 171.536 1059.92 179.479 1050.12 179.479Z" fill="#FFA8A8"/>
<g opacity="0.6">
<path opacity="0.6" d="M996.986 151.202C996.986 141.446 1004.91 133.536 1014.68 133.536C1024.46 133.536 1032.38 141.446 1032.38 151.202V145.269C1032.38 135.514 1024.46 127.604 1014.68 127.604C1004.91 127.604 996.986 135.514 996.986 145.269V151.202Z" fill="#FFEDED"/>
</g>
<g opacity="0.6">
<path opacity="0.6" d="M943.862 121.935C953.635 121.935 961.559 129.845 961.559 139.6C961.559 129.845 969.483 121.935 979.257 121.935C989.03 121.935 996.954 129.845 996.954 139.6V133.668C996.954 123.912 989.03 116.002 979.257 116.002C969.483 116.002 961.559 123.912 961.559 133.668C961.559 123.912 953.635 116.002 943.862 116.002C934.088 116.002 926.164 123.912 926.164 133.668V139.6C926.131 129.845 934.088 121.935 943.862 121.935Z" fill="#FFEDED"/>
</g>
<g opacity="0.6">
<path opacity="0.6" d="M1050.12 136.271C1040.34 136.271 1032.42 144.182 1032.42 153.937V159.87C1032.42 150.114 1040.34 142.204 1050.12 142.204C1059.89 142.204 1067.81 150.114 1067.81 159.87V153.937C1067.85 144.182 1059.92 136.271 1050.12 136.271Z" fill="#FFEDED"/>
</g>
<path d="M951.107 160.396C946.848 159.803 939.452 159.803 935.226 160.396C933.542 160.627 931.99 159.506 931.99 158.056V152.684C931.99 149.717 954.343 149.717 954.343 152.684V158.056C954.31 159.506 952.791 160.627 951.107 160.396Z" fill="#FFC4C4"/>
<path d="M987.397 171.142C983.137 170.549 975.741 170.549 971.515 171.142C969.831 171.373 968.279 170.252 968.279 168.802V163.43C968.279 160.464 990.632 160.464 990.632 163.43V168.802C990.632 170.252 989.08 171.373 987.397 171.142Z" fill="#FFC4C4"/>
<path d="M1022.51 171.142C1018.25 170.549 1010.86 170.549 1006.63 171.142C1004.95 171.373 1003.4 170.252 1003.4 168.802V163.43C1003.4 160.464 1025.75 160.464 1025.75 163.43V168.802C1025.75 170.252 1024.2 171.373 1022.51 171.142Z" fill="#FFC4C4"/>
<path d="M1057.64 167.646C1053.39 167.053 1045.99 167.053 1041.76 167.646C1040.08 167.877 1038.53 166.756 1038.53 165.306V159.967C1038.53 157.001 1060.88 157.001 1060.88 159.967V165.306C1060.88 166.756 1059.33 167.877 1057.64 167.646Z" fill="#FFC4C4"/>
<path d="M974.217 261.384C985.102 261.384 993.908 252.559 993.908 241.652C993.908 230.745 985.102 221.92 974.217 221.92H931.668C918.87 221.92 906.765 228.134 899.311 238.578C898.387 239.867 897.53 241.222 896.771 242.61C890.108 254.807 890.867 269.68 898.321 281.38L923.125 320.217C931.041 332.644 934.867 347.22 934.076 361.928L933.21 408.211C961 417.5 978 422 1003.5 427.86C1003.44 433.087 1003.5 426.443 1003.5 427.86C1003.78 404.068 1004.46 346.35 1004.46 329.603C1004.46 302.137 987.674 285.446 972.568 279.331C930.249 262.177 974.217 261.384 974.217 261.384Z" fill="#FFA8A8"/>
<path d="M973.949 222.49H964.936V225.753C964.936 232.609 970.482 238.146 977.35 238.146H993.265C991.383 229.181 983.458 222.49 973.949 222.49Z" fill="#FFC4C4"/>
<g opacity="0.6">
<path opacity="0.6" d="M992.206 294.571C991.018 293.088 989.73 291.737 988.442 290.451C988.013 290.023 987.551 289.594 987.122 289.199C985.57 287.782 983.952 286.463 982.301 285.31C981.608 284.815 980.881 284.321 980.188 283.86C979.231 283.266 978.273 282.673 977.316 282.146C977.084 282.014 976.853 281.882 976.589 281.75C975.169 280.992 973.717 280.333 972.297 279.74C955.821 273.082 952.387 268.896 954.368 266.26C954.368 266.26 954.335 266.26 954.335 266.227C949.052 268.6 946.081 275.455 972.297 286.958C986.957 293.385 1003.6 309.073 1004.22 335.572C1004.22 335.44 1004.22 335.341 1004.22 335.209C1004.22 335.111 1004.22 335.012 1004.22 334.913C1004.22 334.781 1004.22 334.682 1004.22 334.55C1004.22 334.385 1004.22 334.254 1004.22 334.122C1004.22 334.056 1004.22 333.957 1004.22 333.891C1004.22 333.726 1004.22 333.561 1004.22 333.397C1004.22 333.331 1004.22 333.232 1004.22 333.166C1004.22 333.001 1004.22 332.836 1004.22 332.672C1004.22 332.573 1004.22 332.441 1004.22 332.342C1004.22 332.177 1004.22 332.045 1004.22 331.881C1004.22 331.815 1004.22 331.749 1004.22 331.683C1004.22 331.551 1004.22 331.419 1004.22 331.287C1004.22 331.188 1004.22 331.09 1004.22 330.991C1004.22 330.892 1004.22 330.793 1004.22 330.694C1004.22 330.595 1004.22 330.496 1004.22 330.43C1004.22 330.299 1004.22 330.2 1004.22 330.068C1004.22 330.002 1004.22 329.936 1004.22 329.903C1004.22 315.764 999.768 304.525 993.362 296.087C992.999 295.56 992.603 295.066 992.206 294.571Z" fill="#FFEDED"/>
</g>
<g opacity="0.6">
<path opacity="0.6" d="M933.797 361.975C933.797 362.041 933.797 362.106 933.797 362.139L933 408H933.132L933.797 369.39C933.929 366.918 933.929 364.414 933.797 361.975Z" fill="#FFEDED"/>
</g>
<g opacity="0.6">
<path opacity="0.6" d="M896.452 250.375C897.211 248.991 898.07 247.64 898.994 246.354C906.456 235.939 918.541 229.743 931.385 229.743H973.977C983.619 229.743 991.642 236.664 993.359 245.794C993.59 244.608 993.689 243.421 993.689 242.169C993.689 231.292 984.873 222.492 973.977 222.492H931.385C918.574 222.492 906.456 228.688 898.994 239.103C898.07 240.389 897.211 241.74 896.452 243.124C892.787 249.815 891.367 257.297 892.061 264.646C892.556 259.703 893.976 254.858 896.452 250.375Z" fill="#FFEDED"/>
</g>
<path d="M1041.08 403.04H932.053C929.412 403.04 927.299 400.898 927.299 398.294V386.033C927.299 383.396 929.445 381.287 932.053 381.287H1041.08C1043.72 381.287 1045.83 383.429 1045.83 386.033V398.294C1045.83 400.898 1043.69 403.04 1041.08 403.04Z" fill="#333A62"/>
<path d="M1001.59 395.13C1003.23 395.13 1004.56 393.802 1004.56 392.164C1004.56 390.525 1003.23 389.197 1001.59 389.197C999.948 389.197 998.617 390.525 998.617 392.164C998.617 393.802 999.948 395.13 1001.59 395.13Z" fill="#7DADFF"/>
<path d="M992.011 395.13C993.652 395.13 994.982 393.802 994.982 392.164C994.982 390.525 993.652 389.197 992.011 389.197C990.369 389.197 989.039 390.525 989.039 392.164C989.039 393.802 990.369 395.13 992.011 395.13Z" fill="#7DADFF"/>
<path d="M982.438 395.13C984.08 395.13 985.41 393.802 985.41 392.164C985.41 390.525 984.08 389.197 982.438 389.197C980.797 389.197 979.467 390.525 979.467 392.164C979.467 393.802 980.797 395.13 982.438 395.13Z" fill="#7DADFF"/>
<path d="M1041.08 381.287H1011.5V403.04H1041.08C1043.72 403.04 1045.83 400.898 1045.83 398.294V386.033C1045.83 383.429 1043.69 381.287 1041.08 381.287Z" fill="#1D202E"/>
<defs>
<filter id="filter0_i" x="626" y="-120.998" width="750" height="589.998" filterUnits="userSpaceOnUse" color-interpolation-filters="sRGB">
<feFlood flood-opacity="0" result="BackgroundImageFix"/>
<feBlend mode="normal" in="SourceGraphic" in2="BackgroundImageFix" result="shape"/>
<feColorMatrix in="SourceAlpha" type="matrix" values="0 0 0 0 0 0 0 0 0 0 0 0 0 0 0 0 0 0 127 0" result="hardAlpha"/>
<feOffset dy="4"/>
<feGaussianBlur stdDeviation="3"/>
<feComposite in2="hardAlpha" operator="arithmetic" k2="-1" k3="1"/>
<feColorMatrix type="matrix" values="0 0 0 0 0.101961 0 0 0 0 0.101961 0 0 0 0 0.101961 0 0 0 0.3 0"/>
<feBlend mode="normal" in2="shape" result="effect1_innerShadow"/>
</filter>
<linearGradient id="paint0_linear" x1="817" y1="237.136" x2="1163.1" y2="237.136" gradientUnits="userSpaceOnUse">
<stop offset="0.02" stop-color="#00E47D"/>
<stop offset="0.67" stop-color="#DBEA7C"/>
<stop offset="1" stop-color="#FF8641"/>
</linearGradient>
</defs>
</svg>
