<svg width="880" height="370" viewBox="0 0 880 370" fill="none" xmlns="http://www.w3.org/2000/svg">
<g clip-path="url(#clip0)">
<rect width="880" height="370" fill="white"/>
<path d="M365.549 78.0922C415.832 167.7 329.844 271.396 378.536 362.47C379.916 365.051 381.307 367.56 382.708 370H800.111C845.095 277.248 834.179 177.872 792.62 78.0922C779.514 46.6263 756.55 20.6781 727.75 0.0694428L358.202 0C347.254 20.8761 348.09 46.9783 365.549 78.0922Z" fill="#1A1A1A"/>
<path d="M406.062 82.0522C459.552 171.743 368.08 275.535 419.877 366.693C420.511 367.809 421.147 368.911 421.785 370H880.116L880.249 82.052L880.116 4.69344V0L419.425 0.000143233C394.807 22.3449 386.882 49.8913 406.062 82.0522Z" fill="url(#paint0_linear)"/>
<path d="M520.532 336.554C515.333 336.554 511.105 332.335 511.105 327.144C511.105 321.954 515.333 317.734 520.532 317.734C525.732 317.734 529.959 321.954 529.959 327.144C529.959 332.335 525.732 336.554 520.532 336.554ZM520.532 320.736C517.006 320.736 514.112 323.602 514.112 327.144C514.112 330.687 516.983 333.553 520.532 333.553C524.059 333.553 526.953 330.687 526.953 327.144C526.953 323.602 524.059 320.736 520.532 320.736Z" fill="white"/>
<path d="M541.762 300.132C534.867 300.132 529.238 294.536 529.238 287.631C529.238 280.748 534.845 275.129 541.762 275.129C548.657 275.129 554.286 280.725 554.286 287.631C554.286 294.513 548.68 300.132 541.762 300.132ZM541.762 278.153C536.518 278.153 532.268 282.395 532.268 287.631C532.268 292.866 536.518 297.108 541.762 297.108C547.007 297.108 551.257 292.866 551.257 287.631C551.257 282.395 547.007 278.153 541.762 278.153Z" fill="white"/>
<path d="M670.618 149.392C663.723 149.392 658.094 143.796 658.094 136.89C658.094 129.985 663.7 124.389 670.618 124.389C677.535 124.389 683.142 129.985 683.142 136.89C683.142 143.796 677.535 149.392 670.618 149.392ZM670.618 127.413C665.373 127.413 661.123 131.655 661.123 136.89C661.123 142.126 665.373 146.368 670.618 146.368C675.862 146.368 680.112 142.126 680.112 136.89C680.112 131.655 675.862 127.413 670.618 127.413Z" fill="white"/>
<path d="M490.174 180.826C489.857 180.826 489.563 180.736 489.292 180.556C488.976 180.33 488.749 179.969 488.682 179.585L485.833 162.774C485.698 161.961 486.24 161.171 487.077 161.036L503.918 158.193C504.732 158.057 505.523 158.599 505.659 159.434L508.507 176.245C508.643 177.058 508.101 177.848 507.264 177.983L490.422 180.826C490.355 180.804 490.264 180.826 490.174 180.826ZM489.066 163.744L491.417 177.577L505.275 175.23L502.924 161.397L489.066 163.744Z" fill="white"/>
<path d="M656.986 303.835C656.263 303.835 655.63 303.316 655.494 302.572L652.646 285.76C652.51 284.947 653.053 284.158 653.889 284.022L670.731 281.179C671.545 281.044 672.336 281.585 672.472 282.42L675.32 299.232C675.456 300.044 674.913 300.834 674.077 300.969L657.235 303.813C657.144 303.835 657.077 303.835 656.986 303.835ZM655.878 286.753L658.23 300.586L672.087 298.239L669.736 284.406L655.878 286.753Z" fill="white"/>
<path d="M491.596 279.847C491.009 279.847 490.466 279.508 490.217 278.944L477.897 251.052C477.558 250.285 477.897 249.405 478.666 249.067C479.434 248.728 480.316 249.067 480.655 249.834L492.975 277.726C493.315 278.493 492.975 279.373 492.207 279.711C492.003 279.802 491.8 279.847 491.596 279.847Z" fill="white"/>
<path d="M643.624 316.041H638.877V320.78H643.624V316.041Z" fill="white"/>
<path d="M656.24 221.49H651.492V226.229H656.24V221.49Z" fill="white"/>
<path d="M499.171 229.953H495.645V233.473H499.171V229.953Z" fill="white"/>
<path d="M537.193 191.771H533.666V195.292H537.193V191.771Z" fill="white"/>
<path d="M489.527 298.121C490.101 295.669 488.576 293.217 486.121 292.644C483.665 292.07 481.209 293.593 480.634 296.044C480.059 298.495 481.584 300.947 484.04 301.521C486.496 302.094 488.952 300.572 489.527 298.121Z" fill="white"/>
<path d="M525.019 144.441C525.593 141.99 524.068 139.538 521.613 138.964C519.157 138.391 516.701 139.913 516.126 142.364C515.552 144.816 517.077 147.268 519.532 147.841C521.988 148.415 524.444 146.892 525.019 144.441Z" fill="white"/>
<path d="M682.074 320.668C684.596 320.668 686.641 318.627 686.641 316.109C686.641 313.592 684.596 311.551 682.074 311.551C679.552 311.551 677.508 313.592 677.508 316.109C677.508 318.627 679.552 320.668 682.074 320.668Z" fill="white"/>
<path d="M708.119 172.771C709.817 172.771 711.194 171.397 711.194 169.702C711.194 168.007 709.817 166.633 708.119 166.633C706.421 166.633 705.045 168.007 705.045 169.702C705.045 171.397 706.421 172.771 708.119 172.771Z" fill="white"/>
<path d="M502.337 215.083C501.908 215.083 501.478 214.903 501.184 214.542C500.642 213.91 500.732 212.962 501.365 212.42L517.551 198.926C518.184 198.384 519.134 198.475 519.676 199.106C520.219 199.738 520.129 200.686 519.496 201.228L503.309 214.722C503.038 214.97 502.676 215.083 502.337 215.083Z" fill="white"/>
<path d="M667.065 252.588C666.816 252.588 666.567 252.52 666.319 252.385C665.595 251.978 665.324 251.053 665.731 250.331L685.783 214.632C686.19 213.909 687.116 213.639 687.84 214.045C688.563 214.451 688.834 215.376 688.428 216.098L668.376 251.821C668.104 252.317 667.584 252.588 667.065 252.588Z" fill="white"/>
<path d="M654.23 184.37C653.755 184.37 653.281 184.144 653.009 183.738C652.693 183.309 652.648 182.722 652.874 182.249L659.068 168.596C659.271 168.122 659.723 167.806 660.243 167.716C660.763 167.648 661.261 167.851 661.6 168.235L671.818 180.33C672.18 180.759 672.27 181.346 672.066 181.865C671.863 182.384 671.366 182.745 670.801 182.79L654.388 184.325C654.321 184.37 654.275 184.37 654.23 184.37ZM660.809 172.004L656.672 181.098L667.613 180.06L660.809 172.004Z" fill="white"/>
<path d="M660.964 343.98L657.822 351.404C657.505 352.149 658.093 352.984 658.907 352.893L666.276 352.239C667.09 352.171 667.52 351.269 667.09 350.592L662.863 343.822C662.411 343.1 661.303 343.19 660.964 343.98Z" fill="white"/>
<path d="M546.723 151.698L530.029 160.051L531.387 162.754L548.08 154.402L546.723 151.698Z" fill="white"/>
<path d="M642.064 156.297C641.522 156.297 641.002 156.004 640.73 155.507L630.964 137.59C630.557 136.868 630.829 135.943 631.575 135.536C632.298 135.13 633.225 135.401 633.632 136.146L643.398 154.063C643.805 154.785 643.534 155.71 642.788 156.117C642.539 156.229 642.29 156.297 642.064 156.297Z" fill="white"/>
<path d="M647.844 236.32V281.926C647.844 287.816 641.944 293.435 636.858 297.204C632.269 300.589 629.601 305.959 629.601 311.646C629.601 334.776 629.556 370.002 629.556 370.002H558.188L562.166 299.031L545.279 236.32H647.844" fill="#FF8C8C"/>
<path d="M512.884 190.962C518.513 184.666 529.273 178.889 537.751 178.731C537.796 177.264 536.507 174.128 533.817 173.451C533.365 173.338 532.89 173.315 532.438 173.338C523.916 174.037 516.184 176.791 511.098 183.29C508.905 186.359 511.618 189.924 512.884 190.962Z" fill="#1A1A1A"/>
<path d="M675.513 190.962C669.884 184.666 659.123 178.889 650.646 178.731C650.6 177.264 651.889 174.128 654.579 173.451C655.031 173.338 655.506 173.315 655.958 173.338C664.481 174.037 672.212 176.791 677.299 183.29C679.514 186.359 676.801 189.924 675.513 190.962Z" fill="#1A1A1A"/>
<path d="M698.009 271.002C699.145 260.422 697.252 253.62 694.981 242.662L686.57 212.852C686.57 212.536 686.593 212.197 686.593 211.881C686.593 209.377 686.344 206.939 685.847 204.593L685.824 204.389L685.802 204.412C682.343 188.255 667.988 176.137 650.762 176.137C650.581 176.137 650.4 176.137 650.242 176.137H535.108V176.182C518.695 176.972 505.177 188.796 501.831 204.389C501.311 206.804 501.04 209.309 501.04 211.881C501.04 212.288 501.04 212.671 501.062 213.055C498.376 234.995 496.192 247.353 497.468 268.951C496.428 280.731 505.719 290.885 517.588 290.885C523.42 290.885 528.959 288.358 532.802 283.98C532.802 283.98 564.609 249.928 564.632 249.905H623.024C623.046 249.928 654.876 283.98 654.876 283.98C658.719 288.358 664.258 290.885 670.09 290.885C681.747 291.002 696.103 288.761 698.009 271.002Z" fill="#F2F2F2"/>
<path d="M583.664 238.372C586.12 232.454 583.304 225.669 577.375 223.217C571.446 220.766 564.649 223.576 562.193 229.495C559.737 235.413 562.553 242.198 568.482 244.65C574.411 247.101 581.208 244.291 583.664 238.372Z" fill="#F2F2F2"/>
<path d="M616.851 245.376C623.185 244.35 627.487 238.392 626.459 232.069C625.431 225.746 619.463 221.452 613.128 222.478C606.793 223.504 602.492 229.462 603.52 235.785C604.548 242.109 610.516 246.403 616.851 245.376Z" fill="#F2F2F2"/>
<path d="M670.09 290.884C672.17 290.884 674.159 290.568 676.035 290.004L647.099 260.104C640.792 253.583 632.089 249.904 623.023 249.904C623.069 249.972 654.876 283.979 654.876 283.979C658.719 288.357 664.257 290.884 670.09 290.884Z" fill="#CCCCCC"/>
<path d="M511.531 289.958C513.43 290.567 515.487 290.883 517.59 290.883C523.422 290.883 528.961 288.355 532.804 283.978C532.804 283.978 562.305 252.385 564.498 250.038L564.566 249.812C555.478 249.812 546.797 253.491 540.49 260.012L511.531 289.958Z" fill="#CCCCCC"/>
<path d="M572.907 242.616C577.713 242.616 581.61 238.726 581.61 233.928C581.61 229.13 577.713 225.24 572.907 225.24C568.1 225.24 564.203 229.13 564.203 233.928C564.203 238.726 568.1 242.616 572.907 242.616Z" fill="#1A1A1A"/>
<path d="M572.906 242.615C577.721 242.615 581.609 238.734 581.609 233.927C581.609 233.34 581.541 232.754 581.428 232.189C575.957 235.484 570.419 236.906 564.654 236.703C565.83 240.133 569.085 242.615 572.906 242.615Z" fill="#231F20"/>
<path d="M654.547 209.153C658.69 208.176 661.256 204.031 660.278 199.896C659.299 195.76 655.147 193.198 651.004 194.175C646.861 195.152 644.295 199.296 645.273 203.432C646.252 207.568 650.404 210.129 654.547 209.153Z" fill="#BCBEC0"/>
<path d="M659.939 230.345C661.568 226.418 659.7 221.917 655.767 220.29C651.833 218.664 647.324 220.529 645.694 224.455C644.065 228.381 645.933 232.883 649.866 234.509C653.8 236.136 658.309 234.271 659.939 230.345Z" fill="#BCBEC0"/>
<path d="M668.176 222C672.319 221.024 674.885 216.879 673.907 212.743C672.928 208.607 668.776 206.046 664.633 207.023C660.49 207.999 657.924 212.144 658.902 216.28C659.881 220.416 664.033 222.977 668.176 222Z" fill="#BCBEC0"/>
<path d="M640.92 222.631C645.063 221.655 647.629 217.51 646.651 213.374C645.672 209.238 641.521 206.677 637.377 207.654C633.234 208.63 630.668 212.775 631.646 216.911C632.625 221.047 636.777 223.608 640.92 222.631Z" fill="#BCBEC0"/>
<path d="M592.308 206.531H589.37C588.398 206.531 587.629 207.321 587.629 208.269C587.629 209.239 588.42 210.006 589.37 210.006H592.308C593.28 210.006 594.049 209.217 594.049 208.269C594.072 207.298 593.28 206.531 592.308 206.531Z" fill="#BCBEC0"/>
<path d="M602.002 206.531H599.063C598.091 206.531 597.322 207.321 597.322 208.269C597.322 209.239 598.113 210.006 599.063 210.006H602.002C602.974 210.006 603.742 209.217 603.742 208.269C603.742 207.298 602.974 206.531 602.002 206.531Z" fill="#BCBEC0"/>
<path d="M551.048 210.592H543.361V202.919C543.361 199.625 540.671 196.939 537.371 196.939C534.07 196.939 531.38 199.625 531.38 202.919V210.592H523.694C520.393 210.592 517.703 213.277 517.703 216.572C517.703 219.867 520.393 222.552 523.694 222.552H531.38V230.224C531.38 233.519 534.07 236.204 537.371 236.204C540.671 236.204 543.361 233.519 543.361 230.224V222.552H551.048C554.348 222.552 557.038 219.867 557.038 216.572C557.038 213.277 554.348 210.592 551.048 210.592Z" fill="#BCBEC0"/>
<path d="M635.074 242.912C616.312 224.995 608.445 228.992 608.445 228.992C608.445 228.992 608.445 228.992 608.421 228.969C607.737 229.221 607.15 229.543 606.735 229.934C606.686 229.98 606.637 230.025 606.588 230.094C603.681 232.851 608.787 238.019 611.719 240.753C622.981 251.228 649.17 275.578 660.163 285.731C668.69 293.61 677.362 298.135 686.01 299.238L692.387 293.311L692.704 285.271C691.996 285.386 691.263 285.455 690.481 285.478C690.383 285.478 690.139 284.215 690.041 284.238C684.032 286.213 677.533 282.101 670.62 275.715L635.074 242.912Z" fill="#FF8641"/>
<path d="M652.886 169.378C648.171 170.389 643.187 172.089 637.813 174.478C622.52 181.346 599.678 200.665 569.922 231.929C550.451 252.374 534.181 271.555 530.76 275.598C530.541 275.873 530.296 276.103 530.027 276.356C523.285 282.328 516.689 285.429 510.899 285.337C505.207 285.246 501.689 282.167 501.2 281.708L500.882 281.409C497.584 278.4 495.312 267.328 499.759 245.965C503.154 229.678 510.019 210.681 516.42 199.792C528.586 179.141 537.234 182.081 555.997 189.179C559.588 190.535 558.928 182.77 559.197 180.129L533.936 168.574C532.641 168.758 531.396 169.011 530.15 169.332C519.816 172.02 511.314 179.555 503.399 193.016C496.216 205.213 488.887 225.405 485.149 243.254C480.141 267.282 481.9 283.454 490.377 291.333C491.697 292.642 497.853 298.178 507.967 299.189C515.247 298.569 531.273 295.514 545.003 281.317C551.013 274.288 564.938 258.208 581.111 241.21C616.485 204.065 634.979 191.293 644.238 187.135C654.059 182.725 662.634 182.127 667.031 185.366C669.401 187.112 673.383 185.274 675.948 187.571L679.71 184.677L652.886 169.378Z" fill="#AF42AE"/>
<path d="M555.363 207.028H548.473V200.55C548.473 196.921 545.346 193.98 541.486 193.98H541.34C537.48 193.98 534.353 196.921 534.353 200.55V207.028H527.464C523.604 207.028 520.477 209.969 520.477 213.598V213.736C520.477 217.365 523.604 220.306 527.464 220.306H534.353V226.784C534.353 230.413 537.48 233.353 541.34 233.353H541.486C545.346 233.353 548.473 230.413 548.473 226.784V220.306H555.363C559.223 220.306 562.35 217.365 562.35 213.736V213.598C562.35 209.991 559.223 207.028 555.363 207.028Z" fill="#FF8641"/>
<path d="M656.412 206.932C660.027 205.524 661.743 201.627 660.246 198.228C658.748 194.829 654.604 193.214 650.989 194.622C647.374 196.03 645.657 199.927 647.155 203.327C648.652 206.726 652.797 208.34 656.412 206.932Z" fill="#AF42AE"/>
<path d="M660.678 227.674C661.305 224.042 658.682 220.62 654.82 220.031C650.958 219.442 647.318 221.908 646.692 225.539C646.065 229.171 648.688 232.593 652.55 233.182C656.412 233.772 660.051 231.306 660.678 227.674Z" fill="#AF42AE"/>
<path d="M639.96 220.351C643.872 220.351 647.044 217.368 647.044 213.689C647.044 210.01 643.872 207.027 639.96 207.027C636.047 207.027 632.875 210.01 632.875 213.689C632.875 217.368 636.047 220.351 639.96 220.351Z" fill="#AF42AE"/>
<path d="M667.442 220.351C671.355 220.351 674.527 217.368 674.527 213.689C674.527 210.01 671.355 207.027 667.442 207.027C663.529 207.027 660.357 210.01 660.357 213.689C660.357 217.368 663.529 220.351 667.442 220.351Z" fill="#AF42AE"/>
<path d="M710.074 241.854C705.726 223.041 697.835 204.411 691.923 193.27C684.936 180.107 676.336 172.32 665.66 169.471C656.01 166.899 644.87 168.53 631.629 174.479C616.336 181.348 593.494 200.666 563.738 231.93C544.267 252.375 527.997 271.556 524.577 275.599C524.357 275.875 524.113 276.104 523.844 276.357C517.101 282.33 510.505 285.431 504.715 285.339C499.023 285.247 495.505 282.169 495.016 281.709L494.699 281.411C491.401 278.401 489.129 267.329 493.575 245.966C496.971 229.679 503.836 210.682 510.236 199.794C522.403 179.142 532.639 179.211 550.986 187.182C561.002 191.524 570.334 193.913 577.346 195.222C578.86 195.498 580.399 195.061 581.499 194.051C583.184 192.512 584.821 190.996 586.458 189.548C589.243 187.067 587.777 182.657 583.991 182.083C583.942 182.083 583.893 182.06 583.844 182.06C577.59 181.141 567.867 179.028 557.264 174.433C543.534 168.461 533.249 166.899 523.966 169.311C513.632 171.998 505.13 179.533 497.215 192.994C490.033 205.215 482.679 225.407 478.966 243.255C473.958 267.283 475.717 283.455 484.194 291.334C485.611 292.736 492.573 298.984 504.007 299.328C514.341 299.627 524.772 295.056 534.984 285.729C535.228 285.5 535.448 285.27 535.644 285.04C535.815 284.833 553.38 263.838 574.903 241.234C610.302 204.066 628.771 191.294 638.054 187.136C647.875 182.726 655.571 181.348 661.58 182.956C668.006 184.678 673.576 190.1 678.584 199.518C683.861 209.442 691.458 227.244 695.514 244.817C699.618 262.62 699.032 276.058 693.901 281.732C693.877 281.755 693.853 281.778 693.828 281.801L693.901 281.732C693.437 282.169 689.944 285.339 684.276 285.431C684.178 285.431 684.081 285.431 683.983 285.431C678.095 285.431 671.328 282.054 664.414 275.668C653.396 265.469 627.012 240.958 615.847 230.575C613.014 227.933 608.445 227.956 605.636 230.621C605.587 230.667 605.538 230.713 605.465 230.782C602.557 233.538 602.582 237.972 605.514 240.705C616.776 251.18 642.965 275.53 653.958 285.683C663.852 294.826 673.942 299.466 683.958 299.466C684.325 299.466 684.691 299.466 685.033 299.443C697.2 299.03 704.284 291.863 705.042 291.036L705.09 290.99C713.763 281.617 715.449 265.078 710.074 241.854Z" fill="url(#paint1_linear)"/>
<path d="M587.301 196.33C580.609 196.33 575.184 190.914 575.184 184.234V163C575.184 156.32 580.609 150.904 587.301 150.904C593.992 150.904 599.418 156.32 599.418 163V184.234C599.418 190.914 593.992 196.33 587.301 196.33Z" fill="#FFA8A8"/>
<path d="M563.043 188.41C556.351 188.41 550.926 182.994 550.926 176.315V163.023C550.926 156.344 556.351 150.928 563.043 150.928C569.734 150.928 575.16 156.344 575.16 163.023V176.315C575.16 182.994 569.734 188.41 563.043 188.41Z" fill="#FFA8A8"/>
<path d="M611.562 196.33C604.871 196.33 599.445 190.914 599.445 184.235V170.943C599.445 164.264 604.871 158.848 611.562 158.848C618.254 158.848 623.679 164.264 623.679 170.943V184.235C623.679 190.914 618.254 196.33 611.562 196.33Z" fill="#FFA8A8"/>
<path d="M635.795 194.366C629.103 194.366 623.678 188.95 623.678 182.271V176.9C623.678 170.221 629.103 164.805 635.795 164.805C642.486 164.805 647.912 170.221 647.912 176.9V182.248C647.934 188.928 642.509 194.366 635.795 194.366Z" fill="#FFA8A8"/>
<g opacity="0.6">
<path opacity="0.6" d="M599.416 175.007C599.416 168.327 604.842 162.912 611.533 162.912C618.225 162.912 623.65 168.327 623.65 175.007V170.945C623.65 164.265 618.225 158.85 611.533 158.85C604.842 158.85 599.416 164.265 599.416 170.945V175.007Z" fill="#FFEDED"/>
</g>
<g opacity="0.6">
<path opacity="0.6" d="M563.043 154.97C569.734 154.97 575.16 160.386 575.16 167.066C575.16 160.386 580.585 154.97 587.277 154.97C593.968 154.97 599.394 160.386 599.394 167.066V163.004C599.394 156.324 593.968 150.908 587.277 150.908C580.585 150.908 575.16 156.324 575.16 163.004C575.16 156.324 569.734 150.908 563.043 150.908C556.351 150.908 550.926 156.324 550.926 163.004V167.066C550.903 160.386 556.351 154.97 563.043 154.97Z" fill="#FFEDED"/>
</g>
<g opacity="0.6">
<path opacity="0.6" d="M635.797 164.787C629.105 164.787 623.68 170.203 623.68 176.883V180.944C623.68 174.265 629.105 168.849 635.797 168.849C642.488 168.849 647.914 174.265 647.914 180.944V176.883C647.936 170.203 642.511 164.787 635.797 164.787Z" fill="#FFEDED"/>
</g>
<path d="M568.003 181.304C565.087 180.897 560.023 180.897 557.13 181.304C555.977 181.462 554.914 180.694 554.914 179.701V176.023C554.914 173.992 570.219 173.992 570.219 176.023V179.701C570.196 180.694 569.156 181.462 568.003 181.304Z" fill="#FFC4C4"/>
<path d="M592.851 188.657C589.935 188.251 584.871 188.251 581.977 188.657C580.824 188.815 579.762 188.048 579.762 187.055V183.377C579.762 181.346 595.066 181.346 595.066 183.377V187.055C595.066 188.048 594.004 188.815 592.851 188.657Z" fill="#FFC4C4"/>
<path d="M616.894 188.657C613.978 188.251 608.914 188.251 606.02 188.657C604.867 188.815 603.805 188.048 603.805 187.055V183.377C603.805 181.346 619.109 181.346 619.109 183.377V187.055C619.109 188.048 618.047 188.815 616.894 188.657Z" fill="#FFC4C4"/>
<path d="M640.947 186.265C638.03 185.859 632.966 185.859 630.073 186.265C628.92 186.423 627.857 185.656 627.857 184.663V181.008C627.857 178.977 643.162 178.977 643.162 181.008V184.663C643.162 185.656 642.099 186.423 640.947 186.265Z" fill="#FFC4C4"/>
<path d="M583.829 250.446C591.281 250.446 597.311 244.404 597.311 236.936C597.311 229.468 591.281 223.426 583.829 223.426H554.697C545.934 223.426 537.646 227.68 532.543 234.831C531.91 235.714 531.323 236.642 530.804 237.592C526.242 245.943 526.761 256.126 531.865 264.137L548.848 290.727C554.268 299.236 556.887 309.216 556.345 319.286L555.397 370H603.747C603.747 364.614 604.538 311.139 604.538 297.154C604.538 278.349 593.043 266.92 582.7 262.734C553.726 250.989 583.829 250.446 583.829 250.446Z" fill="#FFA8A8"/>
<path d="M583.646 223.814H577.475V226.048C577.475 230.742 581.272 234.533 585.975 234.533H596.871C595.582 228.395 590.157 223.814 583.646 223.814Z" fill="#FFC4C4"/>
<g opacity="0.6">
<path opacity="0.6" d="M596.146 273.167C595.332 272.151 594.451 271.226 593.569 270.346C593.275 270.052 592.959 269.759 592.665 269.488C591.602 268.518 590.494 267.615 589.364 266.826C588.889 266.487 588.392 266.149 587.917 265.833C587.262 265.426 586.606 265.02 585.951 264.659C585.792 264.569 585.634 264.479 585.453 264.388C584.481 263.869 583.487 263.418 582.514 263.012C571.234 258.454 568.883 255.588 570.239 253.782C570.239 253.782 570.217 253.782 570.217 253.76C566.6 255.385 564.565 260.078 582.514 267.954C592.552 272.354 603.945 283.096 604.375 301.239C604.375 301.149 604.375 301.081 604.375 300.991C604.375 300.923 604.375 300.855 604.375 300.788C604.375 300.697 604.375 300.63 604.375 300.539C604.375 300.426 604.375 300.336 604.375 300.246C604.375 300.201 604.375 300.133 604.375 300.088C604.375 299.975 604.375 299.862 604.375 299.75C604.375 299.704 604.375 299.637 604.375 299.592C604.375 299.479 604.375 299.366 604.375 299.253C604.375 299.185 604.375 299.095 604.375 299.027C604.375 298.915 604.375 298.824 604.375 298.711C604.375 298.666 604.375 298.621 604.375 298.576C604.375 298.486 604.375 298.396 604.375 298.305C604.375 298.238 604.375 298.17 604.375 298.102C604.375 298.034 604.375 297.967 604.375 297.899C604.375 297.831 604.375 297.764 604.375 297.719C604.375 297.628 604.375 297.561 604.375 297.47C604.375 297.425 604.375 297.38 604.375 297.358C604.375 287.677 601.323 279.982 596.937 274.205C596.689 273.844 596.417 273.505 596.146 273.167Z" fill="#FFEDED"/>
</g>
<g opacity="0.6">
<path opacity="0.6" d="M556.155 319.316C556.155 319.362 556.155 319.407 556.155 319.429L555.205 370H555.296L556.155 324.394C556.245 322.701 556.245 320.986 556.155 319.316Z" fill="#FFEDED"/>
</g>
<g opacity="0.6">
<path opacity="0.6" d="M530.586 242.905C531.106 241.958 531.694 241.032 532.327 240.152C537.436 233.021 545.71 228.779 554.504 228.779H583.666C590.267 228.779 595.76 233.518 596.936 239.769C597.094 238.956 597.162 238.144 597.162 237.286C597.162 229.84 591.126 223.814 583.666 223.814H554.504C545.732 223.814 537.436 228.057 532.327 235.188C531.694 236.068 531.106 236.993 530.586 237.941C528.077 242.522 527.105 247.644 527.579 252.676C527.918 249.292 528.89 245.974 530.586 242.905Z" fill="#FFEDED"/>
</g>
<path d="M629.605 347.431H554.958C553.15 347.431 551.703 345.964 551.703 344.181V335.787C551.703 333.981 553.173 332.537 554.958 332.537H629.605C631.413 332.537 632.86 334.004 632.86 335.787V344.181C632.86 345.964 631.391 347.431 629.605 347.431Z" fill="#333A62"/>
<path d="M602.568 342.019C603.691 342.019 604.602 341.11 604.602 339.988C604.602 338.866 603.691 337.957 602.568 337.957C601.444 337.957 600.533 338.866 600.533 339.988C600.533 341.11 601.444 342.019 602.568 342.019Z" fill="#7DADFF"/>
<path d="M596.011 342.019C597.135 342.019 598.046 341.11 598.046 339.988C598.046 338.866 597.135 337.957 596.011 337.957C594.887 337.957 593.977 338.866 593.977 339.988C593.977 341.11 594.887 342.019 596.011 342.019Z" fill="#7DADFF"/>
<path d="M589.456 342.019C590.58 342.019 591.491 341.11 591.491 339.988C591.491 338.866 590.58 337.957 589.456 337.957C588.333 337.957 587.422 338.866 587.422 339.988C587.422 341.11 588.333 342.019 589.456 342.019Z" fill="#7DADFF"/>
<path d="M629.607 332.537H609.352V347.431H629.607C631.415 347.431 632.862 345.964 632.862 344.181V335.787C632.862 334.004 631.393 332.537 629.607 332.537Z" fill="#1D202E"/>
</g>
<defs>
<linearGradient id="paint0_linear" x1="405.274" y1="522.155" x2="993.563" y2="222.338" gradientUnits="userSpaceOnUse">
<stop offset="0.02" stop-color="#00E47D"/>
<stop offset="0.67" stop-color="#DBEA7C"/>
<stop offset="1" stop-color="#FF8641"/>
</linearGradient>
<linearGradient id="paint1_linear" x1="476.184" y1="233.846" x2="713.147" y2="233.846" gradientUnits="userSpaceOnUse">
<stop offset="0.02" stop-color="#00E47D"/>
<stop offset="0.67" stop-color="#DBEA7C"/>
<stop offset="1" stop-color="#FF8641"/>
</linearGradient>
<clipPath id="clip0">
<rect width="880" height="370" fill="white"/>
</clipPath>
</defs>
</svg>
