<svg width="238" height="84" viewBox="0 0 238 84" fill="none" xmlns="http://www.w3.org/2000/svg">
<g clip-path="url(#clip0)">
<g opacity="0.1">
<path d="M33.7569 16.5674H57.2424L51.4451 43.5275H10.5916L0 30.2301L3.70784 12.9856L19.6306 0H56.8289L54.5972 10.3928H23.0291L13.4539 18.2013L11.8573 25.6294L17.8337 33.1353H42.8116L44.1391 26.9601H21.0107L33.7569 16.5674ZM75.5227 0H116.695L107.337 43.5275H96.4694L100.031 26.9601H67.4623L63.901 43.5275H53.0331L59.6 12.9829L75.5227 0ZM68.1776 23.6338L76.8437 16.5679H102.265L103.593 10.3928H78.9218L69.3456 18.2013L68.1776 23.6338ZM168.904 0L179.495 13.2974L179.391 13.7803L172.997 43.5269H162.128L167.638 17.8981C165.353 15.0273 163.947 13.2587 161.662 10.3922H154.059L146.935 43.5269H136.067L141.694 17.3486L150.224 10.3922H127.996L120.872 43.5269H110.005L119.363 0H168.904ZM183.696 0H238L235.766 10.3922H192.33L189.051 25.6439C191.33 28.5071 192.741 30.2731 195.017 33.1347H230.877L228.643 43.5269H187.789L177.197 30.2296L183.696 0ZM193.315 26.9601L206.03 16.57L206.44 16.5674H230.094L227.86 26.9601H193.315Z" fill="url(#paint0_linear)"/>
</g>
<path d="M41.4868 19.2102H62.8416L57.5718 43.7245H20.424L10.793 31.6351L14.1632 15.9525L28.6413 4.14746H62.465L60.4352 13.5974H31.7331L23.0269 20.6976L21.5746 27.4518L27.0088 34.2767H49.7209L50.9285 28.6618H29.8977L41.4868 19.2102ZM79.465 4.14746H116.902L108.393 43.7261H98.5116L101.75 28.6618H72.1362L68.8972 43.7261H59.0155L64.9853 15.9525L79.465 4.14746ZM72.7858 25.637L80.666 19.2102H103.781L104.989 13.5953H82.5558L73.8479 20.6976L72.7858 25.637ZM164.375 4.14746L174.006 16.2385L173.911 16.678L168.097 43.7261H158.215L163.225 20.4218C161.147 17.8118 159.866 16.2037 157.79 13.5969H150.877L144.399 43.7261H134.517L139.634 19.9223L147.392 13.5969H127.178L120.698 43.7261H110.821L119.328 4.14746H164.375ZM177.826 4.14746H227.204L225.171 13.5969H185.676L182.695 27.4646C184.77 30.0687 186.049 31.6742 188.122 34.2762H220.729L218.697 43.7261H181.548L171.917 31.6351L177.826 4.14746ZM186.573 28.6618L198.133 19.2145L198.507 19.2118H220.015L217.984 28.6618H186.573Z" fill="url(#paint1_linear)"/>
</g>
<g clip-path="url(#clip1)">
<path d="M38.8725 69.3679C34.2821 64.7341 32.3575 65.7678 32.3575 65.7678C32.3575 65.7678 32.3575 65.7678 32.3515 65.7619C32.1841 65.8272 32.0407 65.9104 31.9391 66.0114C31.9271 66.0233 31.9152 66.0351 31.9032 66.053C31.1919 66.7659 32.4412 68.1025 33.1584 68.8095C35.9138 71.5184 42.3213 77.8156 45.011 80.4414C47.097 82.479 49.2188 83.6493 51.3347 83.9345L52.8947 82.4018L52.9724 80.3225C52.7991 80.3523 52.6198 80.3701 52.4285 80.376C52.4046 80.376 52.3448 80.0493 52.3209 80.0552C50.8506 80.5661 49.2607 79.5027 47.5692 77.8512L38.8725 69.3679Z" fill="#FF8641"/>
<path d="M43.2311 50.352C42.0775 50.6134 40.8582 51.053 39.5433 51.6708C35.8016 53.4471 30.213 58.4432 22.9329 66.5285C18.1692 71.8157 14.1884 76.7762 13.3517 77.8218C13.2979 77.8931 13.2381 77.9525 13.1723 78.0178C11.5227 79.5624 9.90885 80.3644 8.49228 80.3407C7.09962 80.3169 6.23892 79.5208 6.11938 79.402L6.04168 79.3248C5.23477 78.5466 4.6789 75.6831 5.76673 70.1583C6.59755 65.9463 8.27711 61.0334 9.84311 58.2175C12.8197 52.8768 14.9356 53.6372 19.526 55.4729C20.4046 55.8234 20.2432 53.8154 20.309 53.1322L14.1287 50.144C13.8119 50.1916 13.5071 50.2569 13.2022 50.3401C10.6739 51.0351 8.5939 52.9837 6.65732 56.465C4.90006 59.6195 3.10693 64.8414 2.19244 69.4573C0.967132 75.6713 1.39748 79.8535 3.47153 81.8912C3.79429 82.2298 5.30052 83.6615 7.77503 83.9229C9.55621 83.7625 13.4772 82.9724 16.8363 79.301C18.3067 77.4832 21.7136 73.3247 25.6704 68.9286C34.3253 59.3224 38.8499 56.0194 41.1152 54.9441C43.518 53.8035 45.616 53.6491 46.6918 54.4867C47.2716 54.9382 48.2459 54.4629 48.8735 55.057L49.794 54.3085L43.2311 50.352Z" fill="#AF42AE"/>
<path d="M19.3712 60.0887H17.6857V58.4134C17.6857 57.4748 16.9206 56.7144 15.9762 56.7144H15.9404C14.996 56.7144 14.2309 57.4748 14.2309 58.4134V60.0887H12.5454C11.601 60.0887 10.8359 60.8491 10.8359 61.7877V61.8234C10.8359 62.762 11.601 63.5224 12.5454 63.5224H14.2309V65.1977C14.2309 66.1363 14.996 66.8967 15.9404 66.8967H15.9762C16.9206 66.8967 17.6857 66.1363 17.6857 65.1977V63.5224H19.3712C20.3156 63.5224 21.0807 62.762 21.0807 61.8234V61.7877C21.0807 60.855 20.3156 60.0887 19.3712 60.0887Z" fill="#FF8641"/>
<path d="M44.0922 60.0636C44.9767 59.6995 45.3967 58.6917 45.0303 57.8126C44.664 56.9335 43.65 56.5161 42.7655 56.8802C41.8811 57.2444 41.4611 58.2522 41.8274 59.1313C42.1938 60.0103 43.2078 60.4278 44.0922 60.0636Z" fill="#AF42AE"/>
<path d="M45.1372 65.4276C45.2905 64.4884 44.6488 63.6034 43.7039 63.451C42.7589 63.2986 41.8685 63.9364 41.7152 64.8756C41.5618 65.8148 42.2035 66.6997 43.1485 66.8522C44.0935 67.0046 44.9838 66.3668 45.1372 65.4276Z" fill="#AF42AE"/>
<path d="M40.0693 63.5345C41.0266 63.5345 41.8027 62.7632 41.8027 61.8117C41.8027 60.8602 41.0266 60.0889 40.0693 60.0889C39.112 60.0889 38.3359 60.8602 38.3359 61.8117C38.3359 62.7632 39.112 63.5345 40.0693 63.5345Z" fill="#AF42AE"/>
<path d="M46.792 63.5345C47.7493 63.5345 48.5253 62.7632 48.5253 61.8117C48.5253 60.8602 47.7493 60.0889 46.792 60.0889C45.8346 60.0889 45.0586 60.8602 45.0586 61.8117C45.0586 62.7632 45.8346 63.5345 46.792 63.5345Z" fill="#AF42AE"/>
<path d="M57.224 69.0939C56.16 64.2284 54.2294 59.4105 52.783 56.5293C51.0735 53.1252 48.9696 51.1113 46.3576 50.3747C43.9967 49.7093 41.2711 50.1311 38.0315 51.6698C34.2899 53.446 28.7013 58.4422 21.4212 66.5275C16.6575 71.8147 12.6767 76.7752 11.8399 77.8208C11.7861 77.8921 11.7264 77.9515 11.6606 78.0168C10.0109 79.5614 8.39713 80.3634 6.98057 80.3396C5.5879 80.3159 4.7272 79.5198 4.60766 79.401L4.52996 79.3238C3.72305 78.5455 3.16718 75.6821 4.25501 70.1573C5.08583 65.9453 6.76539 61.0323 8.33139 58.2164C11.308 52.8757 13.8124 52.8936 18.3012 54.955C20.7518 56.0778 23.035 56.6956 24.7504 57.0342C25.121 57.1055 25.4976 56.9926 25.7665 56.7313C26.179 56.3332 26.5794 55.9411 26.9799 55.5669C27.6613 54.9253 27.3027 53.7847 26.3762 53.6361C26.3643 53.6361 26.3523 53.6302 26.3403 53.6302C24.8102 53.3926 22.4313 52.846 19.8373 51.6579C16.4782 50.1133 13.9618 49.7093 11.6905 50.3331C9.1622 51.0282 7.08218 52.9767 5.1456 56.458C3.38834 59.6184 1.58923 64.8403 0.680716 69.4562C-0.544586 75.6702 -0.114236 79.8525 1.95981 81.8902C2.30648 82.2525 4.00995 83.8684 6.80723 83.9575C9.33554 84.0347 11.8878 82.8525 14.3862 80.4406C14.4459 80.3812 14.4997 80.3218 14.5476 80.2624C14.5894 80.2089 18.8869 74.7791 24.1527 68.9335C32.8135 59.3214 37.3322 56.0184 39.6035 54.9431C42.0063 53.8025 43.8891 53.446 45.3594 53.8619C46.9314 54.3074 48.2942 55.7095 49.5195 58.1451C50.8105 60.7115 52.6694 65.3156 53.6616 69.8602C54.6658 74.4643 54.5223 77.9396 53.2671 79.4069C53.2611 79.4129 53.2552 79.4188 53.2492 79.4248L53.2671 79.4069C53.1536 79.5198 52.2988 80.3396 50.9122 80.3634C50.8882 80.3634 50.8643 80.3634 50.8404 80.3634C49.3999 80.3634 47.7443 79.4901 46.0528 77.8386C43.3571 75.2009 36.9019 68.8622 34.1703 66.177C33.477 65.4938 32.3593 65.4997 31.6719 66.1889C31.66 66.2007 31.648 66.2126 31.6301 66.2304C30.9188 66.9433 30.9248 68.0899 31.642 68.7968C34.3975 71.5058 40.8049 77.8029 43.4946 80.4287C45.9153 82.7931 48.3838 83.9932 50.8344 83.9932C50.9241 83.9932 51.0138 83.9932 51.0974 83.9872C54.074 83.8803 55.8074 82.0268 55.9927 81.8129L56.0046 81.801C58.1265 79.3772 58.5389 75.0999 57.224 69.0939Z" fill="url(#paint2_linear)"/>
</g>
<path d="M105.345 50.0547L113.52 60.4249L108.501 83.9999H66.5938L73.8135 50.0547H105.345ZM76.706 75.8927H101.839L102.863 71.0763H77.7302L76.706 75.8927ZM84.8715 62.9737H103.56L99.7631 58.1573H80.4797L78.3022 68.3846L84.8715 62.9737Z" fill="white"/>
<path d="M124.987 75.8927H133.24L131.515 83.9953H109.727L116.946 50.0547H125.333L118.741 81.0455L124.987 75.8927Z" fill="white"/>
<path d="M177.998 60.4249L175.137 73.8739L162.848 83.9999H141.456L133.281 73.6297L138.296 50.0547H169.823L177.998 60.4249ZM142.429 70.0393L145.276 73.6481L164.116 58.1573H144.957L142.429 70.0393ZM168.845 64.0107L165.131 59.3003L146.217 74.851L147.038 75.8927H160.213L167.613 69.795L168.845 64.0107Z" fill="white"/>
<path d="M202.188 62.9737H220.313L215.838 83.9999H184.311L176.137 73.6297L178.997 60.1806L191.291 50.0547H220L218.274 58.1573H193.912L186.521 64.2504L185.289 70.0439L189.903 75.8973H209.181L210.206 71.0809H192.357L202.188 62.9737Z" fill="white"/>
<g opacity="0.1">
<path d="M103.338 48.2651L111.944 59.1823L106.66 84.0006H62.543L70.1435 48.2651H103.338ZM73.1885 75.4658H99.6471L100.725 70.3954H74.2667L73.1885 75.4658ZM81.7846 61.8655H101.459L97.4616 56.7951H77.1612L74.8689 67.5618L81.7846 61.8655Z" fill="white"/>
<path d="M124.019 75.4653H132.707L130.891 83.9952H107.953L115.554 48.2646H124.383L117.443 80.8899L124.019 75.4653Z" fill="white"/>
<path d="M179.821 59.1818L176.81 73.3401L163.872 84.0001H141.352L132.746 73.0829L138.025 48.2646H171.215L179.821 59.1818ZM142.377 69.3032L145.373 73.1024L165.207 56.7946H145.038L142.377 69.3032ZM170.185 62.9567L166.276 57.9979L146.364 74.3687L147.228 75.4653H161.099L168.889 69.046L170.185 62.9567Z" fill="white"/>
<path d="M205.288 61.865H224.37L219.659 84.0001H186.469L177.863 73.0829L180.874 58.9246L193.817 48.2646H224.039L222.223 56.7946H196.576L188.795 63.209L187.499 69.308L192.355 75.4702H212.651L213.729 70.3998H194.939L205.288 61.865Z" fill="white"/>
</g>
<defs>
<linearGradient id="paint0_linear" x1="0" y1="17654.3" x2="1.04371e+06" y2="17654.3" gradientUnits="userSpaceOnUse">
<stop offset="0.02" stop-color="#97FA60"/>
<stop offset="0.67" stop-color="#DBEA7C"/>
<stop offset="1" stop-color="#FC8173"/>
</linearGradient>
<linearGradient id="paint1_linear" x1="10.793" y1="23.9371" x2="227.204" y2="23.9371" gradientUnits="userSpaceOnUse">
<stop offset="0.02" stop-color="#00E47D"/>
<stop offset="0.67" stop-color="#DBEA7C"/>
<stop offset="1" stop-color="#FF8641"/>
</linearGradient>
<linearGradient id="paint2_linear" x1="0" y1="67.0229" x2="57.9757" y2="67.0229" gradientUnits="userSpaceOnUse">
<stop offset="0.02" stop-color="#00E47D"/>
<stop offset="0.67" stop-color="#DBEA7C"/>
<stop offset="1" stop-color="#FF8641"/>
</linearGradient>
<clipPath id="clip0">
<rect width="238" height="43.726" fill="white"/>
</clipPath>
<clipPath id="clip1">
<rect width="57.9777" height="33.9452" fill="white" transform="translate(0 50.0547)"/>
</clipPath>
</defs>
</svg>
